# Blender 5.2.0 LTS
# www.blender.org
mtllib base_link.mtl
o base_link_mesh
v 0.000000 -1178.250000 -25.000000
v 0.000000 -1178.250000 -25.000000
v 0.000000 -1178.250000 -25.000000
v 0.000000 -1175.750000 -25.000000
v 0.000000 -1175.750000 -25.000000
v 0.000000 -1175.750000 -25.000000
v 6.470476 -1178.250000 -24.148146
v 6.470476 -1178.250000 -24.148146
v 6.470476 -1178.250000 -24.148146
v 6.470476 -1175.750000 -24.148146
v 6.470476 -1175.750000 -24.148146
v 6.470476 -1175.750000 -24.148146
v 12.500000 -1178.250000 -21.650635
v 12.500000 -1178.250000 -21.650635
v 12.500000 -1178.250000 -21.650635
v 12.500000 -1175.750000 -21.650635
v 12.500000 -1175.750000 -21.650635
v 12.500000 -1175.750000 -21.650635
v 17.677670 -1178.250000 -17.677670
v 17.677670 -1178.250000 -17.677670
v 17.677670 -1178.250000 -17.677670
v 17.677670 -1175.750000 -17.677670
v 17.677670 -1175.750000 -17.677670
v 17.677670 -1175.750000 -17.677670
v 21.650635 -1178.250000 -12.500000
v 21.650635 -1178.250000 -12.500000
v 21.650635 -1178.250000 -12.500000
v 21.650635 -1175.750000 -12.500000
v 21.650635 -1175.750000 -12.500000
v 21.650635 -1175.750000 -12.500000
v 24.148146 -1178.250000 -6.470476
v 24.148146 -1178.250000 -6.470476
v 24.148146 -1178.250000 -6.470476
v 24.148146 -1175.750000 -6.470476
v 24.148146 -1175.750000 -6.470476
v 24.148146 -1175.750000 -6.470476
v 25.000000 -1178.250000 0.000000
v 25.000000 -1178.250000 0.000000
v 25.000000 -1178.250000 0.000000
v 25.000000 -1175.750000 0.000000
v 25.000000 -1175.750000 0.000000
v 25.000000 -1175.750000 0.000000
v 24.148146 -1178.250000 6.470476
v 24.148146 -1178.250000 6.470476
v 24.148146 -1178.250000 6.470476
v 24.148146 -1175.750000 6.470476
v 24.148146 -1175.750000 6.470476
v 24.148146 -1175.750000 6.470476
v 21.650635 -1178.250000 12.500000
v 21.650635 -1178.250000 12.500000
v 21.650635 -1178.250000 12.500000
v 21.650635 -1175.750000 12.500000
v 21.650635 -1175.750000 12.500000
v 21.650635 -1175.750000 12.500000
v 17.677670 -1178.250000 17.677670
v 17.677670 -1178.250000 17.677670
v 17.677670 -1178.250000 17.677670
v 17.677670 -1175.750000 17.677670
v 17.677670 -1175.750000 17.677670
v 17.677670 -1175.750000 17.677670
v 12.500000 -1178.250000 21.650635
v 12.500000 -1178.250000 21.650635
v 12.500000 -1178.250000 21.650635
v 12.500000 -1175.750000 21.650635
v 12.500000 -1175.750000 21.650635
v 12.500000 -1175.750000 21.650635
v 6.470476 -1178.250000 24.148146
v 6.470476 -1178.250000 24.148146
v 6.470476 -1178.250000 24.148146
v 6.470476 -1175.750000 24.148146
v 6.470476 -1175.750000 24.148146
v 6.470476 -1175.750000 24.148146
v 0.000000 -1178.250000 25.000000
v 0.000000 -1178.250000 25.000000
v 0.000000 -1178.250000 25.000000
v 0.000000 -1175.750000 25.000000
v 0.000000 -1175.750000 25.000000
v 0.000000 -1175.750000 25.000000
v -6.470476 -1178.250000 24.148146
v -6.470476 -1178.250000 24.148146
v -6.470476 -1178.250000 24.148146
v -6.470476 -1175.750000 24.148146
v -6.470476 -1175.750000 24.148146
v -6.470476 -1175.750000 24.148146
v -12.500000 -1178.250000 21.650635
v -12.500000 -1178.250000 21.650635
v -12.500000 -1178.250000 21.650635
v -12.500000 -1175.750000 21.650635
v -12.500000 -1175.750000 21.650635
v -12.500000 -1175.750000 21.650635
v -17.677670 -1178.250000 17.677670
v -17.677670 -1178.250000 17.677670
v -17.677670 -1178.250000 17.677670
v -17.677670 -1175.750000 17.677670
v -17.677670 -1175.750000 17.677670
v -17.677670 -1175.750000 17.677670
v -21.650635 -1178.250000 12.500000
v -21.650635 -1178.250000 12.500000
v -21.650635 -1178.250000 12.500000
v -21.650635 -1175.750000 12.500000
v -21.650635 -1175.750000 12.500000
v -21.650635 -1175.750000 12.500000
v -24.148146 -1178.250000 6.470476
v -24.148146 -1178.250000 6.470476
v -24.148146 -1178.250000 6.470476
v -24.148146 -1175.750000 6.470476
v -24.148146 -1175.750000 6.470476
v -24.148146 -1175.750000 6.470476
v -25.000000 -1178.250000 0.000000
v -25.000000 -1178.250000 0.000000
v -25.000000 -1178.250000 0.000000
v -25.000000 -1175.750000 0.000000
v -25.000000 -1175.750000 0.000000
v -25.000000 -1175.750000 0.000000
v -24.148146 -1178.250000 -6.470476
v -24.148146 -1178.250000 -6.470476
v -24.148146 -1178.250000 -6.470476
v -24.148146 -1175.750000 -6.470476
v -24.148146 -1175.750000 -6.470476
v -24.148146 -1175.750000 -6.470476
v -21.650635 -1178.250000 -12.500000
v -21.650635 -1178.250000 -12.500000
v -21.650635 -1178.250000 -12.500000
v -21.650635 -1175.750000 -12.500000
v -21.650635 -1175.750000 -12.500000
v -21.650635 -1175.750000 -12.500000
v -17.677670 -1178.250000 -17.677670
v -17.677670 -1178.250000 -17.677670
v -17.677670 -1178.250000 -17.677670
v -17.677670 -1175.750000 -17.677670
v -17.677670 -1175.750000 -17.677670
v -17.677670 -1175.750000 -17.677670
v -12.500000 -1178.250000 -21.650635
v -12.500000 -1178.250000 -21.650635
v -12.500000 -1178.250000 -21.650635
v -12.500000 -1175.750000 -21.650635
v -12.500000 -1175.750000 -21.650635
v -12.500000 -1175.750000 -21.650635
v -6.470476 -1178.250000 -24.148146
v -6.470476 -1178.250000 -24.148146
v -6.470476 -1178.250000 -24.148146
v -6.470476 -1175.750000 -24.148146
v -6.470476 -1175.750000 -24.148146
v -6.470476 -1175.750000 -24.148146
v 0.000000 4.000000 -8.000000
v 0.000000 4.000000 -8.000000
v 0.000000 4.000000 -8.000000
v 0.000000 29.000000 -8.000000
v 0.000000 29.000000 -8.000000
v 0.000000 29.000000 -8.000000
v 2.070552 4.000000 -7.727407
v 2.070552 4.000000 -7.727407
v 2.070552 4.000000 -7.727407
v 2.070552 29.000000 -7.727407
v 2.070552 29.000000 -7.727407
v 2.070552 29.000000 -7.727407
v 4.000000 4.000000 -6.928203
v 4.000000 4.000000 -6.928203
v 4.000000 4.000000 -6.928203
v 4.000000 29.000000 -6.928203
v 4.000000 29.000000 -6.928203
v 4.000000 29.000000 -6.928203
v 5.656854 4.000000 -5.656854
v 5.656854 4.000000 -5.656854
v 5.656854 4.000000 -5.656854
v 5.656854 29.000000 -5.656854
v 5.656854 29.000000 -5.656854
v 5.656854 29.000000 -5.656854
v 6.928203 4.000000 -4.000000
v 6.928203 4.000000 -4.000000
v 6.928203 4.000000 -4.000000
v 6.928203 29.000000 -4.000000
v 6.928203 29.000000 -4.000000
v 6.928203 29.000000 -4.000000
v 7.727407 4.000000 -2.070552
v 7.727407 4.000000 -2.070552
v 7.727407 4.000000 -2.070552
v 7.727407 29.000000 -2.070552
v 7.727407 29.000000 -2.070552
v 7.727407 29.000000 -2.070552
v 8.000000 4.000000 0.000000
v 8.000000 4.000000 0.000000
v 8.000000 4.000000 0.000000
v 8.000000 29.000000 0.000000
v 8.000000 29.000000 0.000000
v 8.000000 29.000000 0.000000
v 7.727407 4.000000 2.070552
v 7.727407 4.000000 2.070552
v 7.727407 4.000000 2.070552
v 7.727407 29.000000 2.070552
v 7.727407 29.000000 2.070552
v 7.727407 29.000000 2.070552
v 6.928203 4.000000 4.000000
v 6.928203 4.000000 4.000000
v 6.928203 4.000000 4.000000
v 6.928203 29.000000 4.000000
v 6.928203 29.000000 4.000000
v 6.928203 29.000000 4.000000
v 5.656854 4.000000 5.656854
v 5.656854 4.000000 5.656854
v 5.656854 4.000000 5.656854
v 5.656854 29.000000 5.656854
v 5.656854 29.000000 5.656854
v 5.656854 29.000000 5.656854
v 4.000000 4.000000 6.928203
v 4.000000 4.000000 6.928203
v 4.000000 4.000000 6.928203
v 4.000000 29.000000 6.928203
v 4.000000 29.000000 6.928203
v 4.000000 29.000000 6.928203
v 2.070552 4.000000 7.727407
v 2.070552 4.000000 7.727407
v 2.070552 4.000000 7.727407
v 2.070552 29.000000 7.727407
v 2.070552 29.000000 7.727407
v 2.070552 29.000000 7.727407
v 0.000000 4.000000 8.000000
v 0.000000 4.000000 8.000000
v 0.000000 4.000000 8.000000
v 0.000000 29.000000 8.000000
v 0.000000 29.000000 8.000000
v 0.000000 29.000000 8.000000
v -2.070552 4.000000 7.727407
v -2.070552 4.000000 7.727407
v -2.070552 4.000000 7.727407
v -2.070552 29.000000 7.727407
v -2.070552 29.000000 7.727407
v -2.070552 29.000000 7.727407
v -4.000000 4.000000 6.928203
v -4.000000 4.000000 6.928203
v -4.000000 4.000000 6.928203
v -4.000000 29.000000 6.928203
v -4.000000 29.000000 6.928203
v -4.000000 29.000000 6.928203
v -5.656854 4.000000 5.656854
v -5.656854 4.000000 5.656854
v -5.656854 4.000000 5.656854
v -5.656854 29.000000 5.656854
v -5.656854 29.000000 5.656854
v -5.656854 29.000000 5.656854
v -6.928203 4.000000 4.000000
v -6.928203 4.000000 4.000000
v -6.928203 4.000000 4.000000
v -6.928203 29.000000 4.000000
v -6.928203 29.000000 4.000000
v -6.928203 29.000000 4.000000
v -7.727407 4.000000 2.070552
v -7.727407 4.000000 2.070552
v -7.727407 4.000000 2.070552
v -7.727407 29.000000 2.070552
v -7.727407 29.000000 2.070552
v -7.727407 29.000000 2.070552
v -8.000000 4.000000 0.000000
v -8.000000 4.000000 0.000000
v -8.000000 4.000000 0.000000
v -8.000000 29.000000 0.000000
v -8.000000 29.000000 0.000000
v -8.000000 29.000000 0.000000
v -7.727407 4.000000 -2.070552
v -7.727407 4.000000 -2.070552
v -7.727407 4.000000 -2.070552
v -7.727407 29.000000 -2.070552
v -7.727407 29.000000 -2.070552
v -7.727407 29.000000 -2.070552
v -6.928203 4.000000 -4.000000
v -6.928203 4.000000 -4.000000
v -6.928203 4.000000 -4.000000
v -6.928203 29.000000 -4.000000
v -6.928203 29.000000 -4.000000
v -6.928203 29.000000 -4.000000
v -5.656854 4.000000 -5.656854
v -5.656854 4.000000 -5.656854
v -5.656854 4.000000 -5.656854
v -5.656854 29.000000 -5.656854
v -5.656854 29.000000 -5.656854
v -5.656854 29.000000 -5.656854
v -4.000000 4.000000 -6.928203
v -4.000000 4.000000 -6.928203
v -4.000000 4.000000 -6.928203
v -4.000000 29.000000 -6.928203
v -4.000000 29.000000 -6.928203
v -4.000000 29.000000 -6.928203
v -2.070552 4.000000 -7.727407
v -2.070552 4.000000 -7.727407
v -2.070552 4.000000 -7.727407
v -2.070552 29.000000 -7.727407
v -2.070552 29.000000 -7.727407
v -2.070552 29.000000 -7.727407
v 0.000000 0.000000 -18.000000
v 0.000000 0.000000 -18.000000
v 0.000000 0.000000 -18.000000
v 0.000000 4.000000 -18.000000
v 0.000000 4.000000 -18.000000
v 0.000000 4.000000 -18.000000
v 4.658743 0.000000 -17.386665
v 4.658743 0.000000 -17.386665
v 4.658743 0.000000 -17.386665
v 4.658743 4.000000 -17.386665
v 4.658743 4.000000 -17.386665
v 4.658743 4.000000 -17.386665
v 9.000000 0.000000 -15.588457
v 9.000000 0.000000 -15.588457
v 9.000000 0.000000 -15.588457
v 9.000000 4.000000 -15.588457
v 9.000000 4.000000 -15.588457
v 9.000000 4.000000 -15.588457
v 12.727921 0.000000 -12.727921
v 12.727921 0.000000 -12.727921
v 12.727921 0.000000 -12.727921
v 12.727921 4.000000 -12.727921
v 12.727921 4.000000 -12.727921
v 12.727921 4.000000 -12.727921
v 15.588457 0.000000 -9.000000
v 15.588457 0.000000 -9.000000
v 15.588457 0.000000 -9.000000
v 15.588457 4.000000 -9.000000
v 15.588457 4.000000 -9.000000
v 15.588457 4.000000 -9.000000
v 17.386665 0.000000 -4.658743
v 17.386665 0.000000 -4.658743
v 17.386665 0.000000 -4.658743
v 17.386665 4.000000 -4.658743
v 17.386665 4.000000 -4.658743
v 17.386665 4.000000 -4.658743
v 18.000000 0.000000 0.000000
v 18.000000 0.000000 0.000000
v 18.000000 0.000000 0.000000
v 18.000000 4.000000 0.000000
v 18.000000 4.000000 0.000000
v 18.000000 4.000000 0.000000
v 17.386665 0.000000 4.658743
v 17.386665 0.000000 4.658743
v 17.386665 0.000000 4.658743
v 17.386665 4.000000 4.658743
v 17.386665 4.000000 4.658743
v 17.386665 4.000000 4.658743
v 15.588457 0.000000 9.000000
v 15.588457 0.000000 9.000000
v 15.588457 0.000000 9.000000
v 15.588457 4.000000 9.000000
v 15.588457 4.000000 9.000000
v 15.588457 4.000000 9.000000
v 12.727921 0.000000 12.727921
v 12.727921 0.000000 12.727921
v 12.727921 0.000000 12.727921
v 12.727921 4.000000 12.727921
v 12.727921 4.000000 12.727921
v 12.727921 4.000000 12.727921
v 9.000000 0.000000 15.588457
v 9.000000 0.000000 15.588457
v 9.000000 0.000000 15.588457
v 9.000000 4.000000 15.588457
v 9.000000 4.000000 15.588457
v 9.000000 4.000000 15.588457
v 4.658743 0.000000 17.386665
v 4.658743 0.000000 17.386665
v 4.658743 0.000000 17.386665
v 4.658743 4.000000 17.386665
v 4.658743 4.000000 17.386665
v 4.658743 4.000000 17.386665
v 0.000000 0.000000 18.000000
v 0.000000 0.000000 18.000000
v 0.000000 0.000000 18.000000
v 0.000000 4.000000 18.000000
v 0.000000 4.000000 18.000000
v 0.000000 4.000000 18.000000
v -4.658743 0.000000 17.386665
v -4.658743 0.000000 17.386665
v -4.658743 0.000000 17.386665
v -4.658743 4.000000 17.386665
v -4.658743 4.000000 17.386665
v -4.658743 4.000000 17.386665
v -9.000000 0.000000 15.588457
v -9.000000 0.000000 15.588457
v -9.000000 0.000000 15.588457
v -9.000000 4.000000 15.588457
v -9.000000 4.000000 15.588457
v -9.000000 4.000000 15.588457
v -12.727921 0.000000 12.727921
v -12.727921 0.000000 12.727921
v -12.727921 0.000000 12.727921
v -12.727921 4.000000 12.727921
v -12.727921 4.000000 12.727921
v -12.727921 4.000000 12.727921
v -15.588457 0.000000 9.000000
v -15.588457 0.000000 9.000000
v -15.588457 0.000000 9.000000
v -15.588457 4.000000 9.000000
v -15.588457 4.000000 9.000000
v -15.588457 4.000000 9.000000
v -17.386665 0.000000 4.658743
v -17.386665 0.000000 4.658743
v -17.386665 0.000000 4.658743
v -17.386665 4.000000 4.658743
v -17.386665 4.000000 4.658743
v -17.386665 4.000000 4.658743
v -18.000000 0.000000 0.000000
v -18.000000 0.000000 0.000000
v -18.000000 0.000000 0.000000
v -18.000000 4.000000 0.000000
v -18.000000 4.000000 0.000000
v -18.000000 4.000000 0.000000
v -17.386665 0.000000 -4.658743
v -17.386665 0.000000 -4.658743
v -17.386665 0.000000 -4.658743
v -17.386665 4.000000 -4.658743
v -17.386665 4.000000 -4.658743
v -17.386665 4.000000 -4.658743
v -15.588457 0.000000 -9.000000
v -15.588457 0.000000 -9.000000
v -15.588457 0.000000 -9.000000
v -15.588457 4.000000 -9.000000
v -15.588457 4.000000 -9.000000
v -15.588457 4.000000 -9.000000
v -12.727921 0.000000 -12.727921
v -12.727921 0.000000 -12.727921
v -12.727921 0.000000 -12.727921
v -12.727921 4.000000 -12.727921
v -12.727921 4.000000 -12.727921
v -12.727921 4.000000 -12.727921
v -9.000000 0.000000 -15.588457
v -9.000000 0.000000 -15.588457
v -9.000000 0.000000 -15.588457
v -9.000000 4.000000 -15.588457
v -9.000000 4.000000 -15.588457
v -9.000000 4.000000 -15.588457
v -4.658743 0.000000 -17.386665
v -4.658743 0.000000 -17.386665
v -4.658743 0.000000 -17.386665
v -4.658743 4.000000 -17.386665
v -4.658743 4.000000 -17.386665
v -4.658743 4.000000 -17.386665
v -11.500000 4.000000 6.100000
v -11.500000 4.000000 6.100000
v -11.500000 4.000000 6.100000
v -11.500000 33.000000 6.100000
v -11.500000 33.000000 6.100000
v -11.500000 33.000000 6.100000
v -11.500000 4.000000 -6.100000
v -11.500000 4.000000 -6.100000
v -11.500000 4.000000 -6.100000
v -11.500000 33.000000 -6.100000
v -11.500000 33.000000 -6.100000
v -11.500000 33.000000 -6.100000
v 11.500000 4.000000 6.100000
v 11.500000 4.000000 6.100000
v 11.500000 4.000000 6.100000
v 11.500000 33.000000 6.100000
v 11.500000 33.000000 6.100000
v 11.500000 33.000000 6.100000
v 11.500000 4.000000 -6.100000
v 11.500000 4.000000 -6.100000
v 11.500000 4.000000 -6.100000
v 11.500000 33.000000 -6.100000
v 11.500000 33.000000 -6.100000
v 11.500000 33.000000 -6.100000
vn 0.1305 -0.0000 -0.9914
vn 0.3827 -0.0000 -0.9239
vn 0.6088 -0.0000 -0.7934
vn 0.7934 -0.0000 -0.6088
vn 0.9239 -0.0000 -0.3827
vn 0.9914 -0.0000 -0.1305
vn 0.9914 -0.0000 0.1305
vn 0.9239 -0.0000 0.3827
vn 0.7934 -0.0000 0.6088
vn 0.6088 -0.0000 0.7934
vn 0.3827 -0.0000 0.9239
vn 0.1305 -0.0000 0.9914
vn -0.1305 -0.0000 0.9914
vn -0.3827 -0.0000 0.9239
vn -0.6088 -0.0000 0.7934
vn -0.7934 -0.0000 0.6088
vn -0.9239 -0.0000 0.3827
vn -0.9914 -0.0000 0.1305
vn -0.9914 -0.0000 -0.1305
vn -0.9239 -0.0000 -0.3827
vn -0.7934 -0.0000 -0.6088
vn -0.6088 -0.0000 -0.7934
vn -0.0000 1.0000 -0.0000
vn -0.3827 -0.0000 -0.9239
vn -0.1305 -0.0000 -0.9914
vn -0.0000 -1.0000 -0.0000
vn -0.0001 1.0000 -0.0000
vn 0.0001 1.0000 -0.0000
vn 0.0002 1.0000 -0.0000
vn -0.0002 1.0000 -0.0000
vn 0.0002 -1.0000 -0.0000
vn 0.0001 -1.0000 -0.0000
vn -0.0002 -1.0000 -0.0000
vn -0.0001 -1.0000 -0.0000
vn 0.6088 -0.0000 -0.7933
vn 0.7933 -0.0000 -0.6088
vn 0.7933 -0.0000 0.6088
vn 0.6088 -0.0000 0.7933
vn -0.6088 -0.0000 0.7933
vn -0.7933 -0.0000 0.6088
vn -0.7933 -0.0000 -0.6088
vn -0.6088 -0.0000 -0.7933
vn -1.0000 -0.0000 -0.0000
vn -0.0000 -0.0000 -1.0000
vn 1.0000 -0.0000 -0.0000
vn -0.0000 -0.0000 1.0000
vt 1.000000 0.500000
vt 1.000000 1.000000
vt 0.958333 1.000000
vt 0.958333 0.500000
vt 0.916667 1.000000
vt 0.916667 0.500000
vt 0.875000 1.000000
vt 0.875000 0.500000
vt 0.833333 1.000000
vt 0.833333 0.500000
vt 0.791667 1.000000
vt 0.791667 0.500000
vt 0.750000 1.000000
vt 0.750000 0.500000
vt 0.708333 1.000000
vt 0.708333 0.500000
vt 0.666667 1.000000
vt 0.666667 0.500000
vt 0.625000 1.000000
vt 0.625000 0.500000
vt 0.583333 1.000000
vt 0.583333 0.500000
vt 0.541666 1.000000
vt 0.541666 0.500000
vt 0.500000 1.000000
vt 0.500000 0.500000
vt 0.458333 1.000000
vt 0.458333 0.500000
vt 0.416666 1.000000
vt 0.416666 0.500000
vt 0.375000 1.000000
vt 0.375000 0.500000
vt 0.333333 1.000000
vt 0.333333 0.500000
vt 0.291667 1.000000
vt 0.291667 0.500000
vt 0.250000 1.000000
vt 0.250000 0.500000
vt 0.208333 1.000000
vt 0.208333 0.500000
vt 0.166666 1.000000
vt 0.166666 0.500000
vt 0.125000 1.000000
vt 0.125000 0.500000
vt 0.083333 1.000000
vt 0.083333 0.500000
vt 0.370000 0.457846
vt 0.312117 0.481822
vt 0.250000 0.490000
vt 0.187883 0.481822
vt 0.130000 0.457846
vt 0.080294 0.419706
vt 0.042154 0.370000
vt 0.018178 0.312117
vt 0.010000 0.250000
vt 0.018178 0.187883
vt 0.042154 0.130000
vt 0.080294 0.080294
vt 0.130000 0.042154
vt 0.187883 0.018178
vt 0.250000 0.010000
vt 0.312117 0.018178
vt 0.370000 0.042154
vt 0.419706 0.080294
vt 0.457846 0.130000
vt 0.481822 0.187883
vt 0.490000 0.250000
vt 0.481822 0.312117
vt 0.457846 0.370000
vt 0.419706 0.419706
vt 0.041666 1.000000
vt 0.041666 0.500000
vt -0.000000 1.000000
vt -0.000000 0.500000
vt 0.687883 0.481822
vt 0.750000 0.490000
vt 0.812117 0.481822
vt 0.870000 0.457846
vt 0.919706 0.419706
vt 0.957846 0.370000
vt 0.981822 0.312117
vt 0.990000 0.250000
vt 0.981822 0.187883
vt 0.957846 0.130000
vt 0.919706 0.080294
vt 0.870000 0.042154
vt 0.812117 0.018178
vt 0.750000 0.010000
vt 0.687883 0.018178
vt 0.630000 0.042154
vt 0.580294 0.080294
vt 0.542154 0.130000
vt 0.518178 0.187883
vt 0.510000 0.250000
vt 0.518178 0.312117
vt 0.542154 0.370000
vt 0.580294 0.419706
vt 0.630000 0.457846
vt 0.375000 0.000000
vt 0.625000 0.000000
vt 0.625000 0.250000
vt 0.375000 0.250000
vt 0.625000 0.500000
vt 0.375000 0.500000
vt 0.625000 0.750000
vt 0.375000 0.750000
vt 0.625000 1.000000
vt 0.375000 1.000000
vt 0.125000 0.500000
vt 0.125000 0.750000
vt 0.875000 0.500000
vt 0.875000 0.750000
s 0
usemtl M_Blue
f 2/1/1 5/2/1 11/3/1
f 2/1/1 11/3/1 8/4/1
f 9/4/2 12/3/2 17/5/2
f 9/4/2 17/5/2 14/6/2
f 15/6/3 18/5/3 23/7/3
f 15/6/3 23/7/3 20/8/3
f 21/8/4 24/7/4 29/9/4
f 21/8/4 29/9/4 26/10/4
s 1
f 27/10/5 30/9/5 35/11/5
s 0
f 27/10/5 35/11/5 32/12/5
f 33/12/6 36/11/6 42/13/6
f 33/12/6 42/13/6 39/14/6
f 38/14/7 41/13/7 48/15/7
f 38/14/7 48/15/7 45/16/7
f 44/16/8 47/15/8 54/17/8
s 1
f 44/16/8 54/17/8 51/18/8
s 0
f 50/18/9 53/17/9 60/19/9
f 50/18/9 60/19/9 57/20/9
f 56/20/10 59/19/10 66/21/10
f 56/20/10 66/21/10 63/22/10
f 62/22/11 65/21/11 72/23/11
f 62/22/11 72/23/11 69/24/11
f 68/24/12 71/23/12 77/25/12
f 68/24/12 77/25/12 74/26/12
f 75/26/13 78/25/13 83/27/13
f 75/26/13 83/27/13 80/28/13
f 81/28/14 84/27/14 89/29/14
f 81/28/14 89/29/14 86/30/14
f 87/30/15 90/29/15 95/31/15
f 87/30/15 95/31/15 92/32/15
f 93/32/16 96/31/16 101/33/16
f 93/32/16 101/33/16 98/34/16
s 1
f 99/34/17 102/33/17 107/35/17
s 0
f 99/34/17 107/35/17 104/36/17
f 105/36/18 108/35/18 113/37/18
f 105/36/18 113/37/18 110/38/18
f 111/38/19 114/37/19 120/39/19
f 111/38/19 120/39/19 117/40/19
f 116/40/20 119/39/20 126/41/20
s 1
f 116/40/20 126/41/20 123/42/20
s 0
f 122/42/21 125/41/21 132/43/21
f 122/42/21 132/43/21 129/44/21
f 128/44/22 131/43/22 138/45/22
f 128/44/22 138/45/22 135/46/22
f 16/47/23 10/48/23 4/49/23
f 4/49/23 142/50/23 136/51/23
f 136/51/23 130/52/23 124/53/23
f 124/53/23 118/54/23 112/55/23
f 112/55/23 106/56/23 100/57/23
f 100/57/23 94/58/23 88/59/23
f 88/59/23 82/60/23 76/61/23
f 76/61/23 70/62/23 64/63/23
f 64/63/23 58/64/23 52/65/23
f 52/65/23 46/66/23 40/67/23
f 40/67/23 34/68/23 28/69/23
f 28/69/23 22/70/23 16/47/23
f 16/47/23 4/49/23 136/51/23
f 136/51/23 124/53/23 112/55/23
f 112/55/23 100/57/23 88/59/23
f 88/59/23 76/61/23 64/63/23
f 64/63/23 52/65/23 40/67/23
f 40/67/23 28/69/23 16/47/23
f 16/47/23 136/51/23 112/55/23
f 112/55/23 88/59/23 64/63/23
f 64/63/23 40/67/23 16/47/23
f 112/55/23 64/63/23 16/47/23
f 134/46/24 137/45/24 144/71/24
f 134/46/24 144/71/24 141/72/24
f 140/72/25 143/71/25 6/73/25
f 140/72/25 6/73/25 3/74/25
f 139/75/26 1/76/26 7/77/26
f 7/77/26 13/78/26 19/79/26
f 19/79/26 25/80/26 31/81/26
f 31/81/26 37/82/26 43/83/26
f 43/83/26 49/84/26 55/85/26
f 55/85/26 61/86/26 67/87/26
f 67/87/26 73/88/26 79/89/26
f 79/89/26 85/90/26 91/91/26
f 91/91/26 97/92/26 103/93/26
f 103/93/26 109/94/26 115/95/26
f 115/95/26 121/96/26 127/97/26
f 127/97/26 133/98/26 139/75/26
f 139/75/26 7/77/26 19/79/26
f 19/79/26 31/81/26 43/83/26
f 43/83/26 55/85/26 67/87/26
f 67/87/26 79/89/26 91/91/26
f 91/91/26 103/93/26 115/95/26
f 115/95/26 127/97/26 139/75/26
f 139/75/26 19/79/26 43/83/26
f 43/83/26 67/87/26 91/91/26
f 91/91/26 115/95/26 139/75/26
f 43/83/26 91/91/26 139/75/26
usemtl M_Dark
f 146/1/1 149/2/1 155/3/1
f 146/1/1 155/3/1 152/4/1
f 153/4/2 156/3/2 161/5/2
f 153/4/2 161/5/2 158/6/2
f 159/6/3 162/5/3 167/7/3
f 159/6/3 167/7/3 164/8/3
f 165/8/4 168/7/4 173/9/4
f 165/8/4 173/9/4 170/10/4
s 1
f 171/10/5 174/9/5 179/11/5
s 0
f 171/10/5 179/11/5 176/12/5
f 177/12/6 180/11/6 186/13/6
f 177/12/6 186/13/6 183/14/6
f 182/14/7 185/13/7 192/15/7
f 182/14/7 192/15/7 189/16/7
f 188/16/8 191/15/8 198/17/8
s 1
f 188/16/8 198/17/8 195/18/8
s 0
f 194/18/9 197/17/9 204/19/9
f 194/18/9 204/19/9 201/20/9
f 200/20/10 203/19/10 210/21/10
f 200/20/10 210/21/10 207/22/10
f 206/22/11 209/21/11 216/23/11
f 206/22/11 216/23/11 213/24/11
f 212/24/12 215/23/12 221/25/12
f 212/24/12 221/25/12 218/26/12
f 219/26/13 222/25/13 227/27/13
f 219/26/13 227/27/13 224/28/13
f 225/28/14 228/27/14 233/29/14
f 225/28/14 233/29/14 230/30/14
f 231/30/15 234/29/15 239/31/15
f 231/30/15 239/31/15 236/32/15
f 237/32/16 240/31/16 245/33/16
f 237/32/16 245/33/16 242/34/16
s 1
f 243/34/17 246/33/17 251/35/17
s 0
f 243/34/17 251/35/17 248/36/17
f 249/36/18 252/35/18 257/37/18
f 249/36/18 257/37/18 254/38/18
f 255/38/19 258/37/19 264/39/19
f 255/38/19 264/39/19 261/40/19
f 260/40/20 263/39/20 270/41/20
s 1
f 260/40/20 270/41/20 267/42/20
s 0
f 266/42/21 269/41/21 276/43/21
f 266/42/21 276/43/21 273/44/21
f 272/44/22 275/43/22 282/45/22
f 272/44/22 282/45/22 279/46/22
f 160/47/27 154/48/27 148/49/27
f 148/49/28 286/50/28 280/51/28
f 280/51/29 274/52/29 268/53/29
f 268/53/23 262/54/23 256/55/23
f 256/55/23 250/56/23 244/57/23
f 244/57/29 238/58/29 232/59/29
f 232/59/28 226/60/28 220/61/28
f 220/61/27 214/62/27 208/63/27
f 208/63/30 202/64/30 196/65/30
f 196/65/23 190/66/23 184/67/23
f 184/67/23 178/68/23 172/69/23
f 172/69/30 166/70/30 160/47/30
f 160/47/23 148/49/23 280/51/23
f 280/51/23 268/53/23 256/55/23
f 256/55/27 244/57/27 232/59/27
f 232/59/23 220/61/23 208/63/23
f 208/63/23 196/65/23 184/67/23
f 184/67/28 172/69/28 160/47/28
f 160/47/23 280/51/23 256/55/23
f 256/55/23 232/59/23 208/63/23
f 208/63/23 184/67/23 160/47/23
f 256/55/23 208/63/23 160/47/23
f 278/46/24 281/45/24 288/71/24
f 278/46/24 288/71/24 285/72/24
f 284/72/25 287/71/25 150/73/25
f 284/72/25 150/73/25 147/74/25
f 283/75/26 145/76/26 151/77/26
f 151/77/26 157/78/26 163/79/26
f 163/79/26 169/80/26 175/81/26
f 175/81/26 181/82/26 187/83/26
f 187/83/31 193/84/31 199/85/31
f 199/85/32 205/86/32 211/87/32
f 211/87/26 217/88/26 223/89/26
f 223/89/26 229/90/26 235/91/26
f 235/91/26 241/92/26 247/93/26
f 247/93/26 253/94/26 259/95/26
f 259/95/33 265/96/33 271/97/33
f 271/97/34 277/98/34 283/75/34
f 283/75/26 151/77/26 163/79/26
f 163/79/34 175/81/34 187/83/34
f 187/83/26 199/85/26 211/87/26
f 211/87/26 223/89/26 235/91/26
f 235/91/32 247/93/32 259/95/32
f 259/95/26 271/97/26 283/75/26
f 283/75/26 163/79/26 187/83/26
f 187/83/26 211/87/26 235/91/26
f 235/91/26 259/95/26 283/75/26
f 187/83/26 235/91/26 283/75/26
f 290/1/1 293/2/1 299/3/1
f 290/1/1 299/3/1 296/4/1
s 1
f 297/4/2 300/3/2 305/5/2
f 297/4/2 305/5/2 302/6/2
s 0
f 303/6/3 306/5/3 311/7/3
f 303/6/35 311/7/35 308/8/35
f 309/8/4 312/7/4 317/9/4
f 309/8/36 317/9/36 314/10/36
f 315/10/5 318/9/5 323/11/5
s 1
f 315/10/5 323/11/5 320/12/5
s 0
f 321/12/6 324/11/6 330/13/6
f 321/12/6 330/13/6 327/14/6
f 326/14/7 329/13/7 336/15/7
f 326/14/7 336/15/7 333/16/7
s 1
f 332/16/8 335/15/8 342/17/8
s 0
f 332/16/8 342/17/8 339/18/8
f 338/18/9 341/17/9 348/19/9
f 338/18/37 348/19/37 345/20/37
f 344/20/10 347/19/10 354/21/10
f 344/20/38 354/21/38 351/22/38
s 1
f 350/22/11 353/21/11 360/23/11
f 350/22/11 360/23/11 357/24/11
s 0
f 356/24/12 359/23/12 365/25/12
f 356/24/12 365/25/12 362/26/12
f 363/26/13 366/25/13 371/27/13
f 363/26/13 371/27/13 368/28/13
s 1
f 369/28/14 372/27/14 377/29/14
f 369/28/14 377/29/14 374/30/14
s 0
f 375/30/15 378/29/15 383/31/15
f 375/30/39 383/31/39 380/32/39
f 381/32/16 384/31/16 389/33/16
f 381/32/40 389/33/40 386/34/40
f 387/34/17 390/33/17 395/35/17
s 1
f 387/34/17 395/35/17 392/36/17
s 0
f 393/36/18 396/35/18 401/37/18
f 393/36/18 401/37/18 398/38/18
f 399/38/19 402/37/19 408/39/19
f 399/38/19 408/39/19 405/40/19
s 1
f 404/40/20 407/39/20 414/41/20
s 0
f 404/40/20 414/41/20 411/42/20
f 410/42/21 413/41/21 420/43/21
f 410/42/41 420/43/41 417/44/41
f 416/44/22 419/43/22 426/45/22
f 416/44/42 426/45/42 423/46/42
f 304/47/28 298/48/28 292/49/28
f 292/49/27 430/50/27 424/51/27
f 424/51/23 418/52/23 412/53/23
f 412/53/23 406/54/23 400/55/23
f 400/55/23 394/56/23 388/57/23
f 388/57/23 382/58/23 376/59/23
f 376/59/27 370/60/27 364/61/27
f 364/61/28 358/62/28 352/63/28
f 352/63/23 346/64/23 340/65/23
f 340/65/23 334/66/23 328/67/23
f 328/67/23 322/68/23 316/69/23
f 316/69/23 310/70/23 304/47/23
f 304/47/23 292/49/23 424/51/23
f 424/51/23 412/53/23 400/55/23
f 400/55/23 388/57/23 376/59/23
f 376/59/23 364/61/23 352/63/23
f 352/63/23 340/65/23 328/67/23
f 328/67/23 316/69/23 304/47/23
f 304/47/23 424/51/23 400/55/23
f 400/55/23 376/59/23 352/63/23
f 352/63/23 328/67/23 304/47/23
f 400/55/23 352/63/23 304/47/23
s 1
f 422/46/24 425/45/24 432/71/24
f 422/46/24 432/71/24 429/72/24
s 0
f 428/72/25 431/71/25 294/73/25
f 428/72/25 294/73/25 291/74/25
f 427/75/26 289/76/26 295/77/26
f 295/77/32 301/78/32 307/79/32
f 307/79/31 313/80/31 319/81/31
f 319/81/26 325/82/26 331/83/26
f 331/83/31 337/84/31 343/85/31
f 343/85/32 349/86/32 355/87/32
f 355/87/26 361/88/26 367/89/26
f 367/89/34 373/90/34 379/91/34
f 379/91/33 385/92/33 391/93/33
f 391/93/26 397/94/26 403/95/26
f 403/95/33 409/96/33 415/97/33
f 415/97/34 421/98/34 427/75/34
f 427/75/26 295/77/26 307/79/26
f 307/79/34 319/81/34 331/83/34
f 331/83/26 343/85/26 355/87/26
f 355/87/26 367/89/26 379/91/26
f 379/91/32 391/93/32 403/95/32
f 403/95/26 415/97/26 427/75/26
f 427/75/26 307/79/26 331/83/26
f 331/83/26 355/87/26 379/91/26
f 379/91/26 403/95/26 427/75/26
f 331/83/26 379/91/26 427/75/26
usemtl M_Servo
f 435/99/43 438/100/43 444/101/43
f 435/99/43 444/101/43 441/102/43
f 439/102/44 442/101/44 454/103/44
f 439/102/44 454/103/44 451/104/44
f 453/104/45 456/103/45 450/105/45
f 453/104/45 450/105/45 447/106/45
f 445/106/46 448/105/46 436/107/46
f 445/106/46 436/107/46 433/108/46
f 440/109/26 452/104/26 446/106/26
f 440/109/26 446/106/26 434/110/26
f 455/103/23 443/111/23 437/112/23
f 455/103/23 437/112/23 449/105/23
