# Blender 5.2.0 LTS
# www.blender.org
mtllib link1.mtl
o link1_mesh
v 0.000000 -1141.000000 0.000000
v 0.000000 -1141.000000 0.000000
v 0.000000 -1141.000000 0.000000
v 0.000000 -1141.000000 0.000000
v 0.000000 -1141.000000 0.000000
v 0.000000 -1141.000000 0.000000
v 0.000000 -1141.000000 0.000000
v 0.000000 -1141.000000 0.000000
v 0.000000 -1141.000000 0.000000
v 0.000000 -1141.000000 0.000000
v 0.000000 -1141.000000 0.000000
v 0.000000 -1141.000000 0.000000
v 0.000000 -1141.000000 0.000000
v 0.000000 -1141.000000 0.000000
v 0.000000 -1141.000000 0.000000
v 0.000000 -1141.000000 0.000000
v 0.000000 -1141.000000 0.000000
v 0.000000 -1141.000000 0.000000
v 0.000000 -1141.000000 0.000000
v 0.000000 -1141.000000 0.000000
v 0.000000 -1141.937866 -3.500000
v 0.000000 -1141.937866 -3.500000
v 0.000000 -1141.937866 -3.500000
v 0.000000 -1141.937866 -3.500000
v 0.000000 -1143.050293 -4.949748
v 0.000000 -1143.050293 -4.949748
v 0.000000 -1143.050293 -4.949748
v 0.000000 -1143.050293 -4.949748
v 0.000000 -1146.188232 -6.761481
v 0.000000 -1146.188232 -6.761481
v 0.000000 -1146.188232 -6.761481
v 0.000000 -1146.188232 -6.761481
v 0.000000 -1148.000000 -7.000000
v 0.000000 -1148.000000 -7.000000
v 0.000000 -1148.000000 -7.000000
v 0.000000 -1148.000000 -7.000000
v 0.000000 -1149.811768 -6.761481
v 0.000000 -1149.811768 -6.761481
v 0.000000 -1149.811768 -6.761481
v 0.000000 -1149.811768 -6.761481
v 0.000000 -1152.949707 -4.949748
v 0.000000 -1152.949707 -4.949748
v 0.000000 -1152.949707 -4.949748
v 0.000000 -1152.949707 -4.949748
v 0.000000 -1154.062134 -3.500000
v 0.000000 -1154.062134 -3.500000
v 0.000000 -1154.062134 -3.500000
v 0.000000 -1154.062134 -3.500000
v 0.000000 -1155.000000 0.000000
v 0.000000 -1155.000000 0.000000
v 0.000000 -1155.000000 0.000000
v 0.000000 -1155.000000 0.000000
v 0.000000 -1155.000000 0.000000
v 0.000000 -1155.000000 0.000000
v 0.000000 -1155.000000 0.000000
v 0.000000 -1155.000000 0.000000
v 0.000000 -1155.000000 0.000000
v 0.000000 -1155.000000 0.000000
v 0.000000 -1155.000000 0.000000
v 0.000000 -1155.000000 0.000000
v 0.000000 -1155.000000 0.000000
v 0.000000 -1155.000000 0.000000
v 0.000000 -1155.000000 0.000000
v 0.000000 -1155.000000 0.000000
v 0.000000 -1155.000000 0.000000
v 0.000000 -1155.000000 0.000000
v 0.000000 -1155.000000 0.000000
v 0.000000 -1155.000000 0.000000
v 0.559856 -1141.238525 -1.723061
v 0.559856 -1141.238525 -1.723061
v 0.559856 -1141.238525 -1.723061
v 0.559856 -1141.238525 -1.723061
v 1.081560 -1141.937866 -3.328698
v 1.081560 -1141.937866 -3.328698
v 1.081560 -1141.937866 -3.328698
v 1.081560 -1141.937866 -3.328698
v 1.529556 -1143.050293 -4.707490
v 1.529556 -1143.050293 -4.707490
v 1.529556 -1143.050293 -4.707490
v 1.529556 -1143.050293 -4.707490
v 1.873316 -1144.500000 -5.765474
v 1.873316 -1144.500000 -5.765474
v 1.873316 -1144.500000 -5.765474
v 1.873316 -1144.500000 -5.765474
v 2.089412 -1146.188232 -6.430551
v 2.089412 -1146.188232 -6.430551
v 2.089412 -1146.188232 -6.430551
v 2.089412 -1146.188232 -6.430551
v 2.163119 -1148.000000 -6.657396
v 2.163119 -1148.000000 -6.657396
v 2.163119 -1148.000000 -6.657396
v 2.163119 -1148.000000 -6.657396
v 2.089412 -1149.811768 -6.430551
v 2.089412 -1149.811768 -6.430551
v 2.089412 -1149.811768 -6.430551
v 2.089412 -1149.811768 -6.430551
v 1.873316 -1151.500000 -5.765474
v 1.873316 -1151.500000 -5.765474
v 1.873316 -1151.500000 -5.765474
v 1.873316 -1151.500000 -5.765474
v 1.529556 -1152.949707 -4.707490
v 1.529556 -1152.949707 -4.707490
v 1.529556 -1152.949707 -4.707490
v 1.529556 -1152.949707 -4.707490
v 1.081560 -1154.062134 -3.328698
v 1.081560 -1154.062134 -3.328698
v 1.081560 -1154.062134 -3.328698
v 1.081560 -1154.062134 -3.328698
v 0.559856 -1154.761475 -1.723061
v 0.559856 -1154.761475 -1.723061
v 0.559856 -1154.761475 -1.723061
v 0.559856 -1154.761475 -1.723061
v 1.064910 -1141.238525 -1.465723
v 1.064910 -1141.238525 -1.465723
v 1.064910 -1141.238525 -1.465723
v 1.064910 -1141.238525 -1.465723
v 2.057249 -1141.937866 -2.831560
v 2.057249 -1141.937866 -2.831560
v 2.057249 -1141.937866 -2.831560
v 2.057249 -1141.937866 -2.831560
v 2.909389 -1143.050293 -4.004430
v 2.909389 -1143.050293 -4.004430
v 2.909389 -1143.050293 -4.004430
v 2.909389 -1143.050293 -4.004430
v 3.563259 -1144.500000 -4.904405
v 3.563259 -1144.500000 -4.904405
v 3.563259 -1144.500000 -4.904405
v 3.563259 -1144.500000 -4.904405
v 3.974299 -1146.188232 -5.470153
v 3.974299 -1146.188232 -5.470153
v 3.974299 -1146.188232 -5.470153
v 3.974299 -1146.188232 -5.470153
v 4.114497 -1148.000000 -5.663119
v 4.114497 -1148.000000 -5.663119
v 4.114497 -1148.000000 -5.663119
v 4.114497 -1148.000000 -5.663119
v 3.974299 -1149.811768 -5.470153
v 3.974299 -1149.811768 -5.470153
v 3.974299 -1149.811768 -5.470153
v 3.974299 -1149.811768 -5.470153
v 3.563259 -1151.500000 -4.904405
v 3.563259 -1151.500000 -4.904405
v 3.563259 -1151.500000 -4.904405
v 3.563259 -1151.500000 -4.904405
v 2.909389 -1152.949707 -4.004430
v 2.909389 -1152.949707 -4.004430
v 2.909389 -1152.949707 -4.004430
v 2.909389 -1152.949707 -4.004430
v 2.057249 -1154.062134 -2.831560
v 2.057249 -1154.062134 -2.831560
v 2.057249 -1154.062134 -2.831560
v 2.057249 -1154.062134 -2.831560
v 1.064910 -1154.761475 -1.465723
v 1.064910 -1154.761475 -1.465723
v 1.064910 -1154.761475 -1.465723
v 1.064910 -1154.761475 -1.465723
v 1.465723 -1141.238525 -1.064910
v 1.465723 -1141.238525 -1.064910
v 1.465723 -1141.238525 -1.064910
v 1.465723 -1141.238525 -1.064910
v 2.831560 -1141.937866 -2.057249
v 2.831560 -1141.937866 -2.057249
v 2.831560 -1141.937866 -2.057249
v 2.831560 -1141.937866 -2.057249
v 4.004430 -1143.050293 -2.909389
v 4.004430 -1143.050293 -2.909389
v 4.004430 -1143.050293 -2.909389
v 4.004430 -1143.050293 -2.909389
v 4.904405 -1144.500000 -3.563259
v 4.904405 -1144.500000 -3.563259
v 4.904405 -1144.500000 -3.563259
v 4.904405 -1144.500000 -3.563259
v 5.470153 -1146.188232 -3.974298
v 5.470153 -1146.188232 -3.974298
v 5.470153 -1146.188232 -3.974298
v 5.470153 -1146.188232 -3.974298
v 5.663120 -1148.000000 -4.114497
v 5.663120 -1148.000000 -4.114497
v 5.663120 -1148.000000 -4.114497
v 5.663120 -1148.000000 -4.114497
v 5.470153 -1149.811768 -3.974298
v 5.470153 -1149.811768 -3.974298
v 5.470153 -1149.811768 -3.974298
v 5.470153 -1149.811768 -3.974298
v 4.904405 -1151.500000 -3.563259
v 4.904405 -1151.500000 -3.563259
v 4.904405 -1151.500000 -3.563259
v 4.904405 -1151.500000 -3.563259
v 4.004430 -1152.949707 -2.909389
v 4.004430 -1152.949707 -2.909389
v 4.004430 -1152.949707 -2.909389
v 4.004430 -1152.949707 -2.909389
v 2.831560 -1154.062134 -2.057249
v 2.831560 -1154.062134 -2.057249
v 2.831560 -1154.062134 -2.057249
v 2.831560 -1154.062134 -2.057249
v 1.465723 -1154.761475 -1.064910
v 1.465723 -1154.761475 -1.064910
v 1.465723 -1154.761475 -1.064910
v 1.465723 -1154.761475 -1.064910
v 1.723061 -1141.238525 -0.559856
v 1.723061 -1141.238525 -0.559856
v 1.723061 -1141.238525 -0.559856
v 1.723061 -1141.238525 -0.559856
v 3.328698 -1141.937866 -1.081560
v 3.328698 -1141.937866 -1.081560
v 3.328698 -1141.937866 -1.081560
v 3.328698 -1141.937866 -1.081560
v 4.707490 -1143.050293 -1.529556
v 4.707490 -1143.050293 -1.529556
v 4.707490 -1143.050293 -1.529556
v 4.707490 -1143.050293 -1.529556
v 5.765474 -1144.500000 -1.873316
v 5.765474 -1144.500000 -1.873316
v 5.765474 -1144.500000 -1.873316
v 5.765474 -1144.500000 -1.873316
v 6.430551 -1146.188232 -2.089412
v 6.430551 -1146.188232 -2.089412
v 6.430551 -1146.188232 -2.089412
v 6.430551 -1146.188232 -2.089412
v 6.657397 -1148.000000 -2.163119
v 6.657397 -1148.000000 -2.163119
v 6.657397 -1148.000000 -2.163119
v 6.657397 -1148.000000 -2.163119
v 6.430551 -1149.811768 -2.089412
v 6.430551 -1149.811768 -2.089412
v 6.430551 -1149.811768 -2.089412
v 6.430551 -1149.811768 -2.089412
v 5.765474 -1151.500000 -1.873316
v 5.765474 -1151.500000 -1.873316
v 5.765474 -1151.500000 -1.873316
v 5.765474 -1151.500000 -1.873316
v 4.707490 -1152.949707 -1.529556
v 4.707490 -1152.949707 -1.529556
v 4.707490 -1152.949707 -1.529556
v 4.707490 -1152.949707 -1.529556
v 3.328698 -1154.062134 -1.081560
v 3.328698 -1154.062134 -1.081560
v 3.328698 -1154.062134 -1.081560
v 3.328698 -1154.062134 -1.081560
v 1.723061 -1154.761475 -0.559856
v 1.723061 -1154.761475 -0.559856
v 1.723061 -1154.761475 -0.559856
v 1.723061 -1154.761475 -0.559856
v 1.811733 -1141.238525 0.000000
v 1.811733 -1141.238525 0.000000
v 1.811733 -1141.238525 0.000000
v 1.811733 -1141.238525 0.000000
v 3.500001 -1141.937866 0.000000
v 3.500001 -1141.937866 0.000000
v 3.500001 -1141.937866 0.000000
v 3.500001 -1141.937866 0.000000
v 4.949748 -1143.050293 0.000000
v 4.949748 -1143.050293 0.000000
v 4.949748 -1143.050293 0.000000
v 4.949748 -1143.050293 0.000000
v 6.062179 -1144.500000 -0.000000
v 6.062179 -1144.500000 -0.000000
v 6.062179 -1144.500000 -0.000000
v 6.062179 -1144.500000 -0.000000
v 6.761481 -1146.188232 0.000000
v 6.761481 -1146.188232 0.000000
v 6.761481 -1146.188232 0.000000
v 6.761481 -1146.188232 0.000000
v 7.000001 -1148.000000 0.000000
v 7.000001 -1148.000000 0.000000
v 7.000001 -1148.000000 0.000000
v 7.000001 -1148.000000 0.000000
v 6.761481 -1149.811768 0.000000
v 6.761481 -1149.811768 0.000000
v 6.761481 -1149.811768 0.000000
v 6.761481 -1149.811768 0.000000
v 6.062179 -1151.500000 -0.000000
v 6.062179 -1151.500000 -0.000000
v 6.062179 -1151.500000 -0.000000
v 6.062179 -1151.500000 -0.000000
v 4.949748 -1152.949707 0.000000
v 4.949748 -1152.949707 0.000000
v 4.949748 -1152.949707 0.000000
v 4.949748 -1152.949707 0.000000
v 3.500001 -1154.062134 0.000000
v 3.500001 -1154.062134 0.000000
v 3.500001 -1154.062134 0.000000
v 3.500001 -1154.062134 0.000000
v 1.811733 -1154.761475 0.000000
v 1.811733 -1154.761475 0.000000
v 1.811733 -1154.761475 0.000000
v 1.811733 -1154.761475 0.000000
v 1.723061 -1141.238525 0.559856
v 1.723061 -1141.238525 0.559856
v 1.723061 -1141.238525 0.559856
v 1.723061 -1141.238525 0.559856
v 3.328699 -1141.937866 1.081560
v 3.328699 -1141.937866 1.081560
v 3.328699 -1141.937866 1.081560
v 3.328699 -1141.937866 1.081560
v 4.707490 -1143.050293 1.529557
v 4.707490 -1143.050293 1.529557
v 4.707490 -1143.050293 1.529557
v 4.707490 -1143.050293 1.529557
v 5.765475 -1144.500000 1.873316
v 5.765475 -1144.500000 1.873316
v 5.765475 -1144.500000 1.873316
v 5.765475 -1144.500000 1.873316
v 6.430551 -1146.188232 2.089413
v 6.430551 -1146.188232 2.089413
v 6.430551 -1146.188232 2.089413
v 6.430551 -1146.188232 2.089413
v 6.657397 -1148.000000 2.163120
v 6.657397 -1148.000000 2.163120
v 6.657397 -1148.000000 2.163120
v 6.657397 -1148.000000 2.163120
v 6.430551 -1149.811768 2.089413
v 6.430551 -1149.811768 2.089413
v 6.430551 -1149.811768 2.089413
v 6.430551 -1149.811768 2.089413
v 5.765475 -1151.500000 1.873316
v 5.765475 -1151.500000 1.873316
v 5.765475 -1151.500000 1.873316
v 5.765475 -1151.500000 1.873316
v 4.707490 -1152.949707 1.529557
v 4.707490 -1152.949707 1.529557
v 4.707490 -1152.949707 1.529557
v 4.707490 -1152.949707 1.529557
v 3.328699 -1154.062134 1.081560
v 3.328699 -1154.062134 1.081560
v 3.328699 -1154.062134 1.081560
v 3.328699 -1154.062134 1.081560
v 1.723061 -1154.761475 0.559856
v 1.723061 -1154.761475 0.559856
v 1.723061 -1154.761475 0.559856
v 1.723061 -1154.761475 0.559856
v 1.465723 -1141.238525 1.064910
v 1.465723 -1141.238525 1.064910
v 1.465723 -1141.238525 1.064910
v 1.465723 -1141.238525 1.064910
v 2.831560 -1141.937866 2.057249
v 2.831560 -1141.937866 2.057249
v 2.831560 -1141.937866 2.057249
v 2.831560 -1141.937866 2.057249
v 4.004430 -1143.050293 2.909389
v 4.004430 -1143.050293 2.909389
v 4.004430 -1143.050293 2.909389
v 4.004430 -1143.050293 2.909389
v 4.904406 -1144.500000 3.563259
v 4.904406 -1144.500000 3.563259
v 4.904406 -1144.500000 3.563259
v 4.904406 -1144.500000 3.563259
v 5.470153 -1146.188232 3.974299
v 5.470153 -1146.188232 3.974299
v 5.470153 -1146.188232 3.974299
v 5.470153 -1146.188232 3.974299
v 5.663120 -1148.000000 4.114498
v 5.663120 -1148.000000 4.114498
v 5.663120 -1148.000000 4.114498
v 5.663120 -1148.000000 4.114498
v 5.470153 -1149.811768 3.974299
v 5.470153 -1149.811768 3.974299
v 5.470153 -1149.811768 3.974299
v 5.470153 -1149.811768 3.974299
v 4.904406 -1151.500000 3.563259
v 4.904406 -1151.500000 3.563259
v 4.904406 -1151.500000 3.563259
v 4.904406 -1151.500000 3.563259
v 4.004430 -1152.949707 2.909389
v 4.004430 -1152.949707 2.909389
v 4.004430 -1152.949707 2.909389
v 4.004430 -1152.949707 2.909389
v 2.831560 -1154.062134 2.057249
v 2.831560 -1154.062134 2.057249
v 2.831560 -1154.062134 2.057249
v 2.831560 -1154.062134 2.057249
v 1.465723 -1154.761475 1.064910
v 1.465723 -1154.761475 1.064910
v 1.465723 -1154.761475 1.064910
v 1.465723 -1154.761475 1.064910
v 1.064910 -1141.238525 1.465723
v 1.064910 -1141.238525 1.465723
v 1.064910 -1141.238525 1.465723
v 1.064910 -1141.238525 1.465723
v 2.057249 -1141.937866 2.831560
v 2.057249 -1141.937866 2.831560
v 2.057249 -1141.937866 2.831560
v 2.057249 -1141.937866 2.831560
v 2.909389 -1143.050293 4.004431
v 2.909389 -1143.050293 4.004431
v 2.909389 -1143.050293 4.004431
v 2.909389 -1143.050293 4.004431
v 3.563260 -1144.500000 4.904406
v 3.563260 -1144.500000 4.904406
v 3.563260 -1144.500000 4.904406
v 3.563260 -1144.500000 4.904406
v 3.974298 -1146.188232 5.470153
v 3.974298 -1146.188232 5.470153
v 3.974298 -1146.188232 5.470153
v 3.974298 -1146.188232 5.470153
v 4.114498 -1148.000000 5.663121
v 4.114498 -1148.000000 5.663121
v 4.114498 -1148.000000 5.663121
v 4.114498 -1148.000000 5.663121
v 3.974298 -1149.811768 5.470153
v 3.974298 -1149.811768 5.470153
v 3.974298 -1149.811768 5.470153
v 3.974298 -1149.811768 5.470153
v 3.563260 -1151.500000 4.904406
v 3.563260 -1151.500000 4.904406
v 3.563260 -1151.500000 4.904406
v 3.563260 -1151.500000 4.904406
v 2.909389 -1152.949707 4.004431
v 2.909389 -1152.949707 4.004431
v 2.909389 -1152.949707 4.004431
v 2.909389 -1152.949707 4.004431
v 2.057249 -1154.062134 2.831560
v 2.057249 -1154.062134 2.831560
v 2.057249 -1154.062134 2.831560
v 2.057249 -1154.062134 2.831560
v 1.064910 -1154.761475 1.465723
v 1.064910 -1154.761475 1.465723
v 1.064910 -1154.761475 1.465723
v 1.064910 -1154.761475 1.465723
v 0.559857 -1141.238525 1.723061
v 0.559857 -1141.238525 1.723061
v 0.559857 -1141.238525 1.723061
v 0.559857 -1141.238525 1.723061
v 1.081560 -1141.937866 3.328699
v 1.081560 -1141.937866 3.328699
v 1.081560 -1141.937866 3.328699
v 1.081560 -1141.937866 3.328699
v 1.529556 -1143.050293 4.707490
v 1.529556 -1143.050293 4.707490
v 1.529556 -1143.050293 4.707490
v 1.529556 -1143.050293 4.707490
v 1.873317 -1144.500000 5.765475
v 1.873317 -1144.500000 5.765475
v 1.873317 -1144.500000 5.765475
v 1.873317 -1144.500000 5.765475
v 2.089412 -1146.188232 6.430551
v 2.089412 -1146.188232 6.430551
v 2.089412 -1146.188232 6.430551
v 2.089412 -1146.188232 6.430551
v 2.163119 -1148.000000 6.657398
v 2.163119 -1148.000000 6.657398
v 2.163119 -1148.000000 6.657398
v 2.163119 -1148.000000 6.657398
v 2.089412 -1149.811768 6.430551
v 2.089412 -1149.811768 6.430551
v 2.089412 -1149.811768 6.430551
v 2.089412 -1149.811768 6.430551
v 1.873317 -1151.500000 5.765475
v 1.873317 -1151.500000 5.765475
v 1.873317 -1151.500000 5.765475
v 1.873317 -1151.500000 5.765475
v 1.529556 -1152.949707 4.707490
v 1.529556 -1152.949707 4.707490
v 1.529556 -1152.949707 4.707490
v 1.529556 -1152.949707 4.707490
v 1.081560 -1154.062134 3.328699
v 1.081560 -1154.062134 3.328699
v 1.081560 -1154.062134 3.328699
v 1.081560 -1154.062134 3.328699
v 0.559857 -1154.761475 1.723061
v 0.559857 -1154.761475 1.723061
v 0.559857 -1154.761475 1.723061
v 0.559857 -1154.761475 1.723061
v 0.000000 -1141.238525 1.811733
v 0.000000 -1141.238525 1.811733
v 0.000000 -1141.238525 1.811733
v 0.000000 -1141.238525 1.811733
v -0.000000 -1141.937866 3.500001
v -0.000000 -1141.937866 3.500001
v -0.000000 -1141.937866 3.500001
v -0.000000 -1141.937866 3.500001
v -0.000000 -1143.050293 4.949749
v -0.000000 -1143.050293 4.949749
v -0.000000 -1143.050293 4.949749
v -0.000000 -1143.050293 4.949749
v 0.000001 -1144.500000 6.062180
v 0.000001 -1144.500000 6.062180
v 0.000001 -1144.500000 6.062180
v 0.000001 -1144.500000 6.062180
v -0.000000 -1146.188232 6.761481
v -0.000000 -1146.188232 6.761481
v -0.000000 -1146.188232 6.761481
v -0.000000 -1146.188232 6.761481
v -0.000000 -1148.000000 7.000002
v -0.000000 -1148.000000 7.000002
v -0.000000 -1148.000000 7.000002
v -0.000000 -1148.000000 7.000002
v -0.000000 -1149.811768 6.761481
v -0.000000 -1149.811768 6.761481
v -0.000000 -1149.811768 6.761481
v -0.000000 -1149.811768 6.761481
v 0.000001 -1151.500000 6.062180
v 0.000001 -1151.500000 6.062180
v 0.000001 -1151.500000 6.062180
v 0.000001 -1151.500000 6.062180
v -0.000000 -1152.949707 4.949749
v -0.000000 -1152.949707 4.949749
v -0.000000 -1152.949707 4.949749
v -0.000000 -1152.949707 4.949749
v -0.000000 -1154.062134 3.500001
v -0.000000 -1154.062134 3.500001
v -0.000000 -1154.062134 3.500001
v -0.000000 -1154.062134 3.500001
v 0.000000 -1154.761475 1.811733
v 0.000000 -1154.761475 1.811733
v 0.000000 -1154.761475 1.811733
v 0.000000 -1154.761475 1.811733
v -0.559856 -1141.238525 1.723061
v -0.559856 -1141.238525 1.723061
v -0.559856 -1141.238525 1.723061
v -0.559856 -1141.238525 1.723061
v -1.081560 -1141.937866 3.328699
v -1.081560 -1141.937866 3.328699
v -1.081560 -1141.937866 3.328699
v -1.081560 -1141.937866 3.328699
v -1.529557 -1143.050293 4.707491
v -1.529557 -1143.050293 4.707491
v -1.529557 -1143.050293 4.707491
v -1.529557 -1143.050293 4.707491
v -1.873316 -1144.500000 5.765476
v -1.873316 -1144.500000 5.765476
v -1.873316 -1144.500000 5.765476
v -1.873316 -1144.500000 5.765476
v -2.089413 -1146.188232 6.430551
v -2.089413 -1146.188232 6.430551
v -2.089413 -1146.188232 6.430551
v -2.089413 -1146.188232 6.430551
v -2.163120 -1148.000000 6.657398
v -2.163120 -1148.000000 6.657398
v -2.163120 -1148.000000 6.657398
v -2.163120 -1148.000000 6.657398
v -2.089413 -1149.811768 6.430551
v -2.089413 -1149.811768 6.430551
v -2.089413 -1149.811768 6.430551
v -2.089413 -1149.811768 6.430551
v -1.873316 -1151.500000 5.765476
v -1.873316 -1151.500000 5.765476
v -1.873316 -1151.500000 5.765476
v -1.873316 -1151.500000 5.765476
v -1.529557 -1152.949707 4.707491
v -1.529557 -1152.949707 4.707491
v -1.529557 -1152.949707 4.707491
v -1.529557 -1152.949707 4.707491
v -1.081560 -1154.062134 3.328699
v -1.081560 -1154.062134 3.328699
v -1.081560 -1154.062134 3.328699
v -1.081560 -1154.062134 3.328699
v -0.559856 -1154.761475 1.723061
v -0.559856 -1154.761475 1.723061
v -0.559856 -1154.761475 1.723061
v -0.559856 -1154.761475 1.723061
v -1.064910 -1141.238525 1.465723
v -1.064910 -1141.238525 1.465723
v -1.064910 -1141.238525 1.465723
v -1.064910 -1141.238525 1.465723
v -2.057250 -1141.937866 2.831561
v -2.057250 -1141.937866 2.831561
v -2.057250 -1141.937866 2.831561
v -2.057250 -1141.937866 2.831561
v -2.909389 -1143.050293 4.004431
v -2.909389 -1143.050293 4.004431
v -2.909389 -1143.050293 4.004431
v -2.909389 -1143.050293 4.004431
v -3.563260 -1144.500000 4.904407
v -3.563260 -1144.500000 4.904407
v -3.563260 -1144.500000 4.904407
v -3.563260 -1144.500000 4.904407
v -3.974299 -1146.188232 5.470153
v -3.974299 -1146.188232 5.470153
v -3.974299 -1146.188232 5.470153
v -3.974299 -1146.188232 5.470153
v -4.114499 -1148.000000 5.663121
v -4.114499 -1148.000000 5.663121
v -4.114499 -1148.000000 5.663121
v -4.114499 -1148.000000 5.663121
v -3.974299 -1149.811768 5.470153
v -3.974299 -1149.811768 5.470153
v -3.974299 -1149.811768 5.470153
v -3.974299 -1149.811768 5.470153
v -3.563260 -1151.500000 4.904407
v -3.563260 -1151.500000 4.904407
v -3.563260 -1151.500000 4.904407
v -3.563260 -1151.500000 4.904407
v -2.909389 -1152.949707 4.004431
v -2.909389 -1152.949707 4.004431
v -2.909389 -1152.949707 4.004431
v -2.909389 -1152.949707 4.004431
v -2.057250 -1154.062134 2.831561
v -2.057250 -1154.062134 2.831561
v -2.057250 -1154.062134 2.831561
v -2.057250 -1154.062134 2.831561
v -1.064910 -1154.761475 1.465723
v -1.064910 -1154.761475 1.465723
v -1.064910 -1154.761475 1.465723
v -1.064910 -1154.761475 1.465723
v -1.465723 -1141.238525 1.064910
v -1.465723 -1141.238525 1.064910
v -1.465723 -1141.238525 1.064910
v -1.465723 -1141.238525 1.064910
v -2.831561 -1141.937866 2.057249
v -2.831561 -1141.937866 2.057249
v -2.831561 -1141.937866 2.057249
v -2.831561 -1141.937866 2.057249
v -4.004431 -1143.050293 2.909389
v -4.004431 -1143.050293 2.909389
v -4.004431 -1143.050293 2.909389
v -4.004431 -1143.050293 2.909389
v -4.904407 -1144.500000 3.563260
v -4.904407 -1144.500000 3.563260
v -4.904407 -1144.500000 3.563260
v -4.904407 -1144.500000 3.563260
v -5.470153 -1146.188232 3.974298
v -5.470153 -1146.188232 3.974298
v -5.470153 -1146.188232 3.974298
v -5.470153 -1146.188232 3.974298
v -5.663122 -1148.000000 4.114499
v -5.663122 -1148.000000 4.114499
v -5.663122 -1148.000000 4.114499
v -5.663122 -1148.000000 4.114499
v -5.470153 -1149.811768 3.974298
v -5.470153 -1149.811768 3.974298
v -5.470153 -1149.811768 3.974298
v -5.470153 -1149.811768 3.974298
v -4.904407 -1151.500000 3.563260
v -4.904407 -1151.500000 3.563260
v -4.904407 -1151.500000 3.563260
v -4.904407 -1151.500000 3.563260
v -4.004431 -1152.949707 2.909389
v -4.004431 -1152.949707 2.909389
v -4.004431 -1152.949707 2.909389
v -4.004431 -1152.949707 2.909389
v -2.831561 -1154.062134 2.057249
v -2.831561 -1154.062134 2.057249
v -2.831561 -1154.062134 2.057249
v -2.831561 -1154.062134 2.057249
v -1.465723 -1154.761475 1.064910
v -1.465723 -1154.761475 1.064910
v -1.465723 -1154.761475 1.064910
v -1.465723 -1154.761475 1.064910
v -1.723061 -1141.238525 0.559857
v -1.723061 -1141.238525 0.559857
v -1.723061 -1141.238525 0.559857
v -1.723061 -1141.238525 0.559857
v -3.328700 -1141.937866 1.081560
v -3.328700 -1141.937866 1.081560
v -3.328700 -1141.937866 1.081560
v -3.328700 -1141.937866 1.081560
v -4.707491 -1143.050293 1.529556
v -4.707491 -1143.050293 1.529556
v -4.707491 -1143.050293 1.529556
v -4.707491 -1143.050293 1.529556
v -5.765476 -1144.500000 1.873317
v -5.765476 -1144.500000 1.873317
v -5.765476 -1144.500000 1.873317
v -5.765476 -1144.500000 1.873317
v -6.430551 -1146.188232 2.089412
v -6.430551 -1146.188232 2.089412
v -6.430551 -1146.188232 2.089412
v -6.430551 -1146.188232 2.089412
v -6.657400 -1148.000000 2.163120
v -6.657400 -1148.000000 2.163120
v -6.657400 -1148.000000 2.163120
v -6.657400 -1148.000000 2.163120
v -6.430551 -1149.811768 2.089412
v -6.430551 -1149.811768 2.089412
v -6.430551 -1149.811768 2.089412
v -6.430551 -1149.811768 2.089412
v -5.765476 -1151.500000 1.873317
v -5.765476 -1151.500000 1.873317
v -5.765476 -1151.500000 1.873317
v -5.765476 -1151.500000 1.873317
v -4.707491 -1152.949707 1.529556
v -4.707491 -1152.949707 1.529556
v -4.707491 -1152.949707 1.529556
v -4.707491 -1152.949707 1.529556
v -3.328700 -1154.062134 1.081560
v -3.328700 -1154.062134 1.081560
v -3.328700 -1154.062134 1.081560
v -3.328700 -1154.062134 1.081560
v -1.723061 -1154.761475 0.559857
v -1.723061 -1154.761475 0.559857
v -1.723061 -1154.761475 0.559857
v -1.723061 -1154.761475 0.559857
v -1.811734 -1141.238525 0.000000
v -1.811734 -1141.238525 0.000000
v -1.811734 -1141.238525 0.000000
v -1.811734 -1141.238525 0.000000
v -3.500002 -1141.937866 -0.000000
v -3.500002 -1141.937866 -0.000000
v -3.500002 -1141.937866 -0.000000
v -3.500002 -1141.937866 -0.000000
v -4.949749 -1143.050293 -0.000000
v -4.949749 -1143.050293 -0.000000
v -4.949749 -1143.050293 -0.000000
v -4.949749 -1143.050293 -0.000000
v -6.062181 -1144.500000 0.000000
v -6.062181 -1144.500000 0.000000
v -6.062181 -1144.500000 0.000000
v -6.062181 -1144.500000 0.000000
v -6.761481 -1146.188232 -0.000000
v -6.761481 -1146.188232 -0.000000
v -6.761481 -1146.188232 -0.000000
v -6.761481 -1146.188232 -0.000000
v -7.000004 -1148.000000 -0.000000
v -7.000004 -1148.000000 -0.000000
v -7.000004 -1148.000000 -0.000000
v -7.000004 -1148.000000 -0.000000
v -6.761481 -1149.811768 -0.000000
v -6.761481 -1149.811768 -0.000000
v -6.761481 -1149.811768 -0.000000
v -6.761481 -1149.811768 -0.000000
v -6.062181 -1151.500000 0.000000
v -6.062181 -1151.500000 0.000000
v -6.062181 -1151.500000 0.000000
v -6.062181 -1151.500000 0.000000
v -4.949749 -1152.949707 -0.000000
v -4.949749 -1152.949707 -0.000000
v -4.949749 -1152.949707 -0.000000
v -4.949749 -1152.949707 -0.000000
v -3.500002 -1154.062134 -0.000000
v -3.500002 -1154.062134 -0.000000
v -3.500002 -1154.062134 -0.000000
v -3.500002 -1154.062134 -0.000000
v -1.811734 -1154.761475 0.000000
v -1.811734 -1154.761475 0.000000
v -1.811734 -1154.761475 0.000000
v -1.811734 -1154.761475 0.000000
v -1.723061 -1141.238525 -0.559856
v -1.723061 -1141.238525 -0.559856
v -1.723061 -1141.238525 -0.559856
v -1.723061 -1141.238525 -0.559856
v -3.328700 -1141.937866 -1.081560
v -3.328700 -1141.937866 -1.081560
v -3.328700 -1141.937866 -1.081560
v -3.328700 -1141.937866 -1.081560
v -4.707491 -1143.050293 -1.529557
v -4.707491 -1143.050293 -1.529557
v -4.707491 -1143.050293 -1.529557
v -4.707491 -1143.050293 -1.529557
v -5.765477 -1144.500000 -1.873317
v -5.765477 -1144.500000 -1.873317
v -5.765477 -1144.500000 -1.873317
v -5.765477 -1144.500000 -1.873317
v -6.430551 -1146.188232 -2.089413
v -6.430551 -1146.188232 -2.089413
v -6.430551 -1146.188232 -2.089413
v -6.430551 -1146.188232 -2.089413
v -6.657400 -1148.000000 -2.163121
v -6.657400 -1148.000000 -2.163121
v -6.657400 -1148.000000 -2.163121
v -6.657400 -1148.000000 -2.163121
v -6.430551 -1149.811768 -2.089413
v -6.430551 -1149.811768 -2.089413
v -6.430551 -1149.811768 -2.089413
v -6.430551 -1149.811768 -2.089413
v -5.765477 -1151.500000 -1.873317
v -5.765477 -1151.500000 -1.873317
v -5.765477 -1151.500000 -1.873317
v -5.765477 -1151.500000 -1.873317
v -4.707491 -1152.949707 -1.529557
v -4.707491 -1152.949707 -1.529557
v -4.707491 -1152.949707 -1.529557
v -4.707491 -1152.949707 -1.529557
v -3.328700 -1154.062134 -1.081560
v -3.328700 -1154.062134 -1.081560
v -3.328700 -1154.062134 -1.081560
v -3.328700 -1154.062134 -1.081560
v -1.723061 -1154.761475 -0.559856
v -1.723061 -1154.761475 -0.559856
v -1.723061 -1154.761475 -0.559856
v -1.723061 -1154.761475 -0.559856
v -1.465724 -1141.238525 -1.064910
v -1.465724 -1141.238525 -1.064910
v -1.465724 -1141.238525 -1.064910
v -1.465724 -1141.238525 -1.064910
v -2.831561 -1141.937866 -2.057250
v -2.831561 -1141.937866 -2.057250
v -2.831561 -1141.937866 -2.057250
v -2.831561 -1141.937866 -2.057250
v -4.004431 -1143.050293 -2.909390
v -4.004431 -1143.050293 -2.909390
v -4.004431 -1143.050293 -2.909390
v -4.004431 -1143.050293 -2.909390
v -4.904408 -1144.500000 -3.563260
v -4.904408 -1144.500000 -3.563260
v -4.904408 -1144.500000 -3.563260
v -4.904408 -1144.500000 -3.563260
v -5.470153 -1146.188232 -3.974299
v -5.470153 -1146.188232 -3.974299
v -5.470153 -1146.188232 -3.974299
v -5.470153 -1146.188232 -3.974299
v -5.663122 -1148.000000 -4.114500
v -5.663122 -1148.000000 -4.114500
v -5.663122 -1148.000000 -4.114500
v -5.663122 -1148.000000 -4.114500
v -5.470153 -1149.811768 -3.974299
v -5.470153 -1149.811768 -3.974299
v -5.470153 -1149.811768 -3.974299
v -5.470153 -1149.811768 -3.974299
v -4.904408 -1151.500000 -3.563260
v -4.904408 -1151.500000 -3.563260
v -4.904408 -1151.500000 -3.563260
v -4.904408 -1151.500000 -3.563260
v -4.004431 -1152.949707 -2.909390
v -4.004431 -1152.949707 -2.909390
v -4.004431 -1152.949707 -2.909390
v -4.004431 -1152.949707 -2.909390
v -2.831561 -1154.062134 -2.057250
v -2.831561 -1154.062134 -2.057250
v -2.831561 -1154.062134 -2.057250
v -2.831561 -1154.062134 -2.057250
v -1.465724 -1154.761475 -1.064910
v -1.465724 -1154.761475 -1.064910
v -1.465724 -1154.761475 -1.064910
v -1.465724 -1154.761475 -1.064910
v -1.064911 -1141.238525 -1.465723
v -1.064911 -1141.238525 -1.465723
v -1.064911 -1141.238525 -1.465723
v -1.064911 -1141.238525 -1.465723
v -2.057250 -1141.937866 -2.831562
v -2.057250 -1141.937866 -2.831562
v -2.057250 -1141.937866 -2.831562
v -2.057250 -1141.937866 -2.831562
v -2.909389 -1143.050293 -4.004432
v -2.909389 -1143.050293 -4.004432
v -2.909389 -1143.050293 -4.004432
v -2.909389 -1143.050293 -4.004432
v -3.563261 -1144.500000 -4.904408
v -3.563261 -1144.500000 -4.904408
v -3.563261 -1144.500000 -4.904408
v -3.563261 -1144.500000 -4.904408
v -3.974298 -1146.188232 -5.470153
v -3.974298 -1146.188232 -5.470153
v -3.974298 -1146.188232 -5.470153
v -3.974298 -1146.188232 -5.470153
v -4.114499 -1148.000000 -5.663123
v -4.114499 -1148.000000 -5.663123
v -4.114499 -1148.000000 -5.663123
v -4.114499 -1148.000000 -5.663123
v -3.974298 -1149.811768 -5.470153
v -3.974298 -1149.811768 -5.470153
v -3.974298 -1149.811768 -5.470153
v -3.974298 -1149.811768 -5.470153
v -3.563261 -1151.500000 -4.904408
v -3.563261 -1151.500000 -4.904408
v -3.563261 -1151.500000 -4.904408
v -3.563261 -1151.500000 -4.904408
v -2.909389 -1152.949707 -4.004432
v -2.909389 -1152.949707 -4.004432
v -2.909389 -1152.949707 -4.004432
v -2.909389 -1152.949707 -4.004432
v -2.057250 -1154.062134 -2.831562
v -2.057250 -1154.062134 -2.831562
v -2.057250 -1154.062134 -2.831562
v -2.057250 -1154.062134 -2.831562
v -1.064911 -1154.761475 -1.465723
v -1.064911 -1154.761475 -1.465723
v -1.064911 -1154.761475 -1.465723
v -1.064911 -1154.761475 -1.465723
v -0.559857 -1141.238525 -1.723061
v -0.559857 -1141.238525 -1.723061
v -0.559857 -1141.238525 -1.723061
v -0.559857 -1141.238525 -1.723061
v -1.081560 -1141.937866 -3.328700
v -1.081560 -1141.937866 -3.328700
v -1.081560 -1141.937866 -3.328700
v -1.081560 -1141.937866 -3.328700
v -1.529556 -1143.050293 -4.707491
v -1.529556 -1143.050293 -4.707491
v -1.529556 -1143.050293 -4.707491
v -1.529556 -1143.050293 -4.707491
v -1.873317 -1144.500000 -5.765477
v -1.873317 -1144.500000 -5.765477
v -1.873317 -1144.500000 -5.765477
v -1.873317 -1144.500000 -5.765477
v -2.089412 -1146.188232 -6.430551
v -2.089412 -1146.188232 -6.430551
v -2.089412 -1146.188232 -6.430551
v -2.089412 -1146.188232 -6.430551
v -2.163120 -1148.000000 -6.657400
v -2.163120 -1148.000000 -6.657400
v -2.163120 -1148.000000 -6.657400
v -2.163120 -1148.000000 -6.657400
v -2.089412 -1149.811768 -6.430551
v -2.089412 -1149.811768 -6.430551
v -2.089412 -1149.811768 -6.430551
v -2.089412 -1149.811768 -6.430551
v -1.873317 -1151.500000 -5.765477
v -1.873317 -1151.500000 -5.765477
v -1.873317 -1151.500000 -5.765477
v -1.873317 -1151.500000 -5.765477
v -1.529556 -1152.949707 -4.707491
v -1.529556 -1152.949707 -4.707491
v -1.529556 -1152.949707 -4.707491
v -1.529556 -1152.949707 -4.707491
v -1.081560 -1154.062134 -3.328700
v -1.081560 -1154.062134 -3.328700
v -1.081560 -1154.062134 -3.328700
v -1.081560 -1154.062134 -3.328700
v -0.559857 -1154.761475 -1.723061
v -0.559857 -1154.761475 -1.723061
v -0.559857 -1154.761475 -1.723061
v -0.559857 -1154.761475 -1.723061
v -0.000000 -1141.238525 -1.811734
v -0.000000 -1141.238525 -1.811734
v -0.000000 -1141.238525 -1.811734
v -0.000000 -1141.238525 -1.811734
v -0.000000 -1144.500000 -6.062181
v -0.000000 -1144.500000 -6.062181
v -0.000000 -1144.500000 -6.062181
v -0.000000 -1144.500000 -6.062181
v -0.000000 -1151.500000 -6.062181
v -0.000000 -1151.500000 -6.062181
v -0.000000 -1151.500000 -6.062181
v -0.000000 -1151.500000 -6.062181
v -0.000000 -1154.761475 -1.811734
v -0.000000 -1154.761475 -1.811734
v -0.000000 -1154.761475 -1.811734
v -0.000000 -1154.761475 -1.811734
v 0.000000 -1148.000000 -3.000000
v 0.000000 -1148.000000 -3.000000
v 0.000000 -1148.000000 -3.000000
v 0.000000 -1093.000000 -3.000000
v 0.000000 -1093.000000 -3.000000
v 0.000000 -1093.000000 -3.000000
v 0.776457 -1148.000000 -2.897778
v 0.776457 -1148.000000 -2.897778
v 0.776457 -1148.000000 -2.897778
v 0.776457 -1093.000000 -2.897778
v 0.776457 -1093.000000 -2.897778
v 0.776457 -1093.000000 -2.897778
v 1.500000 -1148.000000 -2.598076
v 1.500000 -1148.000000 -2.598076
v 1.500000 -1148.000000 -2.598076
v 1.500000 -1093.000000 -2.598076
v 1.500000 -1093.000000 -2.598076
v 1.500000 -1093.000000 -2.598076
v 2.121320 -1148.000000 -2.121320
v 2.121320 -1148.000000 -2.121320
v 2.121320 -1148.000000 -2.121320
v 2.121320 -1093.000000 -2.121320
v 2.121320 -1093.000000 -2.121320
v 2.121320 -1093.000000 -2.121320
v 2.598076 -1148.000000 -1.500000
v 2.598076 -1148.000000 -1.500000
v 2.598076 -1148.000000 -1.500000
v 2.598076 -1093.000000 -1.500000
v 2.598076 -1093.000000 -1.500000
v 2.598076 -1093.000000 -1.500000
v 2.897778 -1148.000000 -0.776457
v 2.897778 -1148.000000 -0.776457
v 2.897778 -1148.000000 -0.776457
v 2.897778 -1093.000000 -0.776457
v 2.897778 -1093.000000 -0.776457
v 2.897778 -1093.000000 -0.776457
v 3.000000 -1148.000000 0.000000
v 3.000000 -1148.000000 0.000000
v 3.000000 -1148.000000 0.000000
v 3.000000 -1093.000000 0.000000
v 3.000000 -1093.000000 0.000000
v 3.000000 -1093.000000 0.000000
v 2.897778 -1148.000000 0.776457
v 2.897778 -1148.000000 0.776457
v 2.897778 -1148.000000 0.776457
v 2.897778 -1093.000000 0.776457
v 2.897778 -1093.000000 0.776457
v 2.897778 -1093.000000 0.776457
v 2.598076 -1148.000000 1.500000
v 2.598076 -1148.000000 1.500000
v 2.598076 -1148.000000 1.500000
v 2.598076 -1093.000000 1.500000
v 2.598076 -1093.000000 1.500000
v 2.598076 -1093.000000 1.500000
v 2.121320 -1148.000000 2.121320
v 2.121320 -1148.000000 2.121320
v 2.121320 -1148.000000 2.121320
v 2.121320 -1093.000000 2.121320
v 2.121320 -1093.000000 2.121320
v 2.121320 -1093.000000 2.121320
v 1.500000 -1148.000000 2.598076
v 1.500000 -1148.000000 2.598076
v 1.500000 -1148.000000 2.598076
v 1.500000 -1093.000000 2.598076
v 1.500000 -1093.000000 2.598076
v 1.500000 -1093.000000 2.598076
v 0.776457 -1148.000000 2.897778
v 0.776457 -1148.000000 2.897778
v 0.776457 -1148.000000 2.897778
v 0.776457 -1093.000000 2.897778
v 0.776457 -1093.000000 2.897778
v 0.776457 -1093.000000 2.897778
v 0.000000 -1148.000000 3.000000
v 0.000000 -1148.000000 3.000000
v 0.000000 -1148.000000 3.000000
v 0.000000 -1093.000000 3.000000
v 0.000000 -1093.000000 3.000000
v 0.000000 -1093.000000 3.000000
v -0.776457 -1148.000000 2.897778
v -0.776457 -1148.000000 2.897778
v -0.776457 -1148.000000 2.897778
v -0.776457 -1093.000000 2.897778
v -0.776457 -1093.000000 2.897778
v -0.776457 -1093.000000 2.897778
v -1.500000 -1148.000000 2.598076
v -1.500000 -1148.000000 2.598076
v -1.500000 -1148.000000 2.598076
v -1.500000 -1093.000000 2.598076
v -1.500000 -1093.000000 2.598076
v -1.500000 -1093.000000 2.598076
v -2.121320 -1148.000000 2.121320
v -2.121320 -1148.000000 2.121320
v -2.121320 -1148.000000 2.121320
v -2.121320 -1093.000000 2.121320
v -2.121320 -1093.000000 2.121320
v -2.121320 -1093.000000 2.121320
v -2.598076 -1148.000000 1.500000
v -2.598076 -1148.000000 1.500000
v -2.598076 -1148.000000 1.500000
v -2.598076 -1093.000000 1.500000
v -2.598076 -1093.000000 1.500000
v -2.598076 -1093.000000 1.500000
v -2.897778 -1148.000000 0.776457
v -2.897778 -1148.000000 0.776457
v -2.897778 -1148.000000 0.776457
v -2.897778 -1093.000000 0.776457
v -2.897778 -1093.000000 0.776457
v -2.897778 -1093.000000 0.776457
v -3.000000 -1148.000000 0.000000
v -3.000000 -1148.000000 0.000000
v -3.000000 -1148.000000 0.000000
v -3.000000 -1093.000000 0.000000
v -3.000000 -1093.000000 0.000000
v -3.000000 -1093.000000 0.000000
v -2.897778 -1148.000000 -0.776457
v -2.897778 -1148.000000 -0.776457
v -2.897778 -1148.000000 -0.776457
v -2.897778 -1093.000000 -0.776457
v -2.897778 -1093.000000 -0.776457
v -2.897778 -1093.000000 -0.776457
v -2.598076 -1148.000000 -1.500000
v -2.598076 -1148.000000 -1.500000
v -2.598076 -1148.000000 -1.500000
v -2.598076 -1093.000000 -1.500000
v -2.598076 -1093.000000 -1.500000
v -2.598076 -1093.000000 -1.500000
v -2.121320 -1148.000000 -2.121320
v -2.121320 -1148.000000 -2.121320
v -2.121320 -1148.000000 -2.121320
v -2.121320 -1093.000000 -2.121320
v -2.121320 -1093.000000 -2.121320
v -2.121320 -1093.000000 -2.121320
v -1.500000 -1148.000000 -2.598076
v -1.500000 -1148.000000 -2.598076
v -1.500000 -1148.000000 -2.598076
v -1.500000 -1093.000000 -2.598076
v -1.500000 -1093.000000 -2.598076
v -1.500000 -1093.000000 -2.598076
v -0.776457 -1148.000000 -2.897778
v -0.776457 -1148.000000 -2.897778
v -0.776457 -1148.000000 -2.897778
v -0.776457 -1093.000000 -2.897778
v -0.776457 -1093.000000 -2.897778
v -0.776457 -1093.000000 -2.897778
vn 0.0960 0.7897 -0.6060
vn 0.0960 -0.7897 -0.6060
vn 0.1551 -0.1289 -0.9794
vn 0.1247 0.6040 -0.7872
vn 0.0605 -0.9222 -0.3820
vn 0.0207 0.9912 -0.1305
vn 0.1448 -0.3786 -0.9141
vn 0.1448 -0.3787 -0.9141
vn 0.1448 0.3786 -0.9141
vn 0.1448 0.3787 -0.9141
vn 0.0207 -0.9912 -0.1305
vn 0.0605 0.9222 -0.3820
vn 0.1247 -0.6040 -0.7872
vn 0.1551 0.1289 -0.9794
vn 0.4202 -0.3787 -0.8247
vn 0.4202 0.3787 -0.8247
vn 0.0600 -0.9912 -0.1177
vn 0.1756 0.9222 -0.3446
vn 0.3618 -0.6040 -0.7101
vn 0.4502 0.1289 -0.8836
vn 0.2785 0.7897 -0.5466
vn 0.2785 -0.7897 -0.5466
vn 0.4502 -0.1289 -0.8836
vn 0.3618 0.6040 -0.7101
vn 0.1756 -0.9222 -0.3446
vn 0.0600 0.9912 -0.1177
vn 0.7012 -0.1289 -0.7012
vn 0.5635 0.6040 -0.5635
vn 0.2735 -0.9222 -0.2735
vn 0.0934 0.9912 -0.0934
vn 0.6545 -0.3787 -0.6545
vn 0.6545 0.3787 -0.6545
vn 0.0934 -0.9912 -0.0934
vn 0.2735 0.9222 -0.2735
vn 0.5635 -0.6040 -0.5635
vn 0.7012 0.1289 -0.7012
vn 0.4338 0.7897 -0.4338
vn 0.4338 -0.7897 -0.4338
vn 0.7101 -0.6040 -0.3618
vn 0.8836 0.1289 -0.4502
vn 0.5466 0.7897 -0.2785
vn 0.5466 -0.7897 -0.2785
vn 0.8836 -0.1289 -0.4502
vn 0.7101 0.6040 -0.3618
vn 0.3446 -0.9222 -0.1756
vn 0.1177 0.9912 -0.0600
vn 0.8247 -0.3787 -0.4202
vn 0.8247 0.3787 -0.4202
vn 0.1177 -0.9912 -0.0600
vn 0.3446 0.9222 -0.1756
vn 0.1305 0.9912 -0.0207
vn 0.9141 -0.3787 -0.1448
vn 0.9141 0.3787 -0.1448
vn 0.1305 -0.9912 -0.0207
vn 0.3820 0.9222 -0.0605
vn 0.7872 -0.6040 -0.1247
vn 0.9794 0.1289 -0.1551
vn 0.6060 0.7897 -0.0960
vn 0.6060 -0.7897 -0.0960
vn 0.9794 -0.1289 -0.1551
vn 0.7872 0.6040 -0.1247
vn 0.3820 -0.9222 -0.0605
vn 0.6060 -0.7897 0.0960
vn 0.9794 -0.1289 0.1551
vn 0.7872 0.6040 0.1247
vn 0.3820 -0.9222 0.0605
vn 0.1305 0.9912 0.0207
vn 0.9141 -0.3787 0.1448
vn 0.9141 0.3787 0.1448
vn 0.1305 -0.9912 0.0207
vn 0.3820 0.9222 0.0605
vn 0.7872 -0.6040 0.1247
vn 0.9794 0.1289 0.1551
vn 0.6060 0.7897 0.0960
vn 0.3446 0.9222 0.1756
vn 0.7101 -0.6040 0.3618
vn 0.8836 0.1289 0.4502
vn 0.5466 0.7897 0.2785
vn 0.5466 -0.7897 0.2785
vn 0.8836 -0.1289 0.4502
vn 0.7101 0.6040 0.3618
vn 0.3446 -0.9222 0.1756
vn 0.1177 0.9912 0.0600
vn 0.8247 -0.3787 0.4202
vn 0.8247 0.3787 0.4202
vn 0.1177 -0.9912 0.0600
vn 0.2735 -0.9222 0.2735
vn 0.0934 0.9912 0.0934
vn 0.6545 -0.3787 0.6545
vn 0.6545 0.3787 0.6545
vn 0.0934 -0.9912 0.0934
vn 0.2735 0.9222 0.2735
vn 0.5635 -0.6040 0.5635
vn 0.7012 0.1289 0.7012
vn 0.4338 0.7897 0.4338
vn 0.4338 -0.7897 0.4338
vn 0.7012 -0.1289 0.7012
vn 0.5635 0.6040 0.5635
vn 0.2785 0.7897 0.5466
vn 0.2785 -0.7897 0.5466
vn 0.4502 -0.1289 0.8836
vn 0.3618 0.6040 0.7101
vn 0.1756 -0.9222 0.3446
vn 0.0600 0.9912 0.1177
vn 0.4202 -0.3787 0.8247
vn 0.4202 0.3787 0.8247
vn 0.0600 -0.9912 0.1177
vn 0.1756 0.9222 0.3446
vn 0.3618 -0.6040 0.7101
vn 0.4502 0.1289 0.8836
vn 0.0207 -0.9912 0.1305
vn 0.0605 0.9222 0.3820
vn 0.1247 -0.6040 0.7872
vn 0.1551 0.1289 0.9794
vn 0.0960 0.7897 0.6060
vn 0.0960 -0.7897 0.6060
vn 0.1551 -0.1289 0.9794
vn 0.1247 0.6040 0.7872
vn 0.0605 -0.9222 0.3820
vn 0.0207 0.9912 0.1305
vn 0.1448 -0.3787 0.9141
vn 0.1448 0.3787 0.9141
vn 0.1448 0.3786 0.9141
vn -0.1247 0.6040 0.7872
vn -0.0605 -0.9222 0.3820
vn -0.0207 0.9912 0.1305
vn -0.1448 -0.3787 0.9141
vn -0.1448 -0.3786 0.9141
vn -0.1448 0.3786 0.9141
vn -0.1448 0.3787 0.9141
vn -0.0207 -0.9912 0.1305
vn -0.0605 0.9222 0.3820
vn -0.1247 -0.6040 0.7872
vn -0.1551 0.1289 0.9794
vn -0.0960 0.7897 0.6060
vn -0.0960 -0.7897 0.6060
vn -0.1551 -0.1289 0.9794
vn -0.2785 0.7897 0.5466
vn -0.2785 -0.7897 0.5466
vn -0.4502 -0.1289 0.8836
vn -0.3618 0.6040 0.7101
vn -0.1756 -0.9222 0.3446
vn -0.0600 0.9912 0.1177
vn -0.4202 -0.3787 0.8247
vn -0.4202 -0.3786 0.8247
vn -0.4202 0.3787 0.8247
vn -0.0600 -0.9912 0.1177
vn -0.1756 0.9222 0.3446
vn -0.3618 -0.6040 0.7101
vn -0.4502 0.1289 0.8836
vn -0.6545 0.3787 0.6545
vn -0.0934 -0.9912 0.0934
vn -0.2735 0.9222 0.2735
vn -0.5635 -0.6040 0.5635
vn -0.7012 0.1289 0.7012
vn -0.4338 0.7897 0.4338
vn -0.4338 -0.7897 0.4338
vn -0.7012 -0.1289 0.7012
vn -0.5635 0.6040 0.5635
vn -0.2735 -0.9222 0.2735
vn -0.0934 0.9912 0.0934
vn -0.6545 -0.3787 0.6545
vn -0.7101 0.6040 0.3618
vn -0.3446 -0.9222 0.1756
vn -0.1177 0.9912 0.0600
vn -0.8247 -0.3787 0.4202
vn -0.8247 -0.3786 0.4202
vn -0.8247 0.3787 0.4202
vn -0.8247 0.3786 0.4202
vn -0.1177 -0.9912 0.0600
vn -0.3446 0.9222 0.1756
vn -0.7101 -0.6040 0.3618
vn -0.8836 0.1289 0.4502
vn -0.5466 0.7897 0.2785
vn -0.5466 -0.7897 0.2785
vn -0.8836 -0.1289 0.4502
vn -0.9794 0.1289 0.1551
vn -0.6060 0.7897 0.0960
vn -0.6060 -0.7897 0.0960
vn -0.9794 -0.1289 0.1551
vn -0.7872 0.6040 0.1247
vn -0.3820 -0.9222 0.0605
vn -0.1305 0.9912 0.0207
vn -0.9141 -0.3786 0.1448
vn -0.9141 0.3786 0.1448
vn -0.1305 -0.9912 0.0207
vn -0.3820 0.9222 0.0605
vn -0.7872 -0.6040 0.1247
vn -0.9141 0.3786 -0.1448
vn -0.1305 -0.9912 -0.0207
vn -0.3820 0.9222 -0.0605
vn -0.7872 -0.6040 -0.1247
vn -0.9794 0.1289 -0.1551
vn -0.6060 0.7897 -0.0960
vn -0.6060 -0.7897 -0.0960
vn -0.9794 -0.1289 -0.1551
vn -0.7872 0.6040 -0.1247
vn -0.3820 -0.9222 -0.0605
vn -0.1305 0.9912 -0.0207
vn -0.9141 -0.3786 -0.1448
vn -0.8836 -0.1289 -0.4502
vn -0.7101 0.6040 -0.3618
vn -0.3446 -0.9222 -0.1756
vn -0.1177 0.9912 -0.0600
vn -0.8247 -0.3786 -0.4202
vn -0.8247 0.3786 -0.4202
vn -0.1177 -0.9912 -0.0600
vn -0.3446 0.9222 -0.1756
vn -0.7101 -0.6040 -0.3618
vn -0.8836 0.1289 -0.4502
vn -0.5466 0.7897 -0.2785
vn -0.5466 -0.7897 -0.2785
vn -0.7012 0.1289 -0.7012
vn -0.4338 0.7897 -0.4338
vn -0.4338 -0.7897 -0.4338
vn -0.7012 -0.1289 -0.7012
vn -0.5635 0.6040 -0.5635
vn -0.2735 -0.9222 -0.2735
vn -0.0934 0.9912 -0.0934
vn -0.6545 -0.3786 -0.6545
vn -0.6545 0.3786 -0.6545
vn -0.0934 -0.9912 -0.0934
vn -0.2735 0.9222 -0.2735
vn -0.5635 -0.6040 -0.5635
vn -0.4202 -0.3786 -0.8247
vn -0.4202 0.3787 -0.8247
vn -0.4202 0.3786 -0.8247
vn -0.0600 -0.9912 -0.1177
vn -0.1756 0.9222 -0.3446
vn -0.3618 -0.6040 -0.7101
vn -0.4502 0.1289 -0.8836
vn -0.2785 0.7897 -0.5466
vn -0.2785 -0.7897 -0.5466
vn -0.4502 -0.1289 -0.8836
vn -0.3618 0.6040 -0.7101
vn -0.1756 -0.9222 -0.3446
vn -0.0600 0.9912 -0.1177
vn -0.1551 -0.1289 -0.9794
vn -0.1247 0.6040 -0.7872
vn -0.0605 -0.9222 -0.3820
vn -0.0207 0.9912 -0.1305
vn -0.1448 -0.3787 -0.9141
vn -0.1448 -0.3786 -0.9141
vn -0.1448 0.3787 -0.9141
vn -0.1448 0.3786 -0.9141
vn -0.0207 -0.9912 -0.1305
vn -0.0605 0.9222 -0.3820
vn -0.1247 -0.6040 -0.7872
vn -0.1551 0.1289 -0.9794
vn -0.0960 0.7897 -0.6060
vn -0.0960 -0.7897 -0.6060
vn 0.1305 -0.0000 -0.9914
vn 0.3827 -0.0000 -0.9239
vn 0.6088 -0.0000 -0.7934
vn 0.7934 -0.0000 -0.6088
vn 0.9239 -0.0000 -0.3827
vn 0.9914 -0.0000 -0.1305
vn 0.9914 -0.0000 0.1305
vn 0.9239 -0.0000 0.3827
vn 0.7934 -0.0000 0.6088
vn 0.6088 -0.0000 0.7934
vn 0.3827 -0.0000 0.9239
vn 0.1305 -0.0000 0.9914
vn -0.1305 -0.0000 0.9914
vn -0.3827 -0.0000 0.9239
vn -0.6088 -0.0000 0.7934
vn -0.7934 -0.0000 0.6088
vn -0.9239 -0.0000 0.3827
vn -0.9914 -0.0000 0.1305
vn -0.9914 -0.0000 -0.1305
vn -0.9239 -0.0000 -0.3827
vn -0.7934 -0.0000 -0.6088
vn -0.6088 -0.0000 -0.7934
vn -0.0000 1.0000 -0.0000
vn -0.3827 -0.0000 -0.9239
vn -0.1305 -0.0000 -0.9914
vn -0.0000 -1.0000 -0.0000
vt 0.750000 0.750000
vt 0.750000 0.833333
vt 0.700000 0.833333
vt 0.700000 0.750000
vt 0.750000 0.166667
vt 0.750000 0.250000
vt 0.700000 0.250000
vt 0.700000 0.166667
vt 0.750000 0.416667
vt 0.750000 0.500000
vt 0.700000 0.500000
vt 0.700000 0.416667
vt 0.750000 0.666667
vt 0.700000 0.666667
vt 0.750000 0.083333
vt 0.700000 0.083333
vt 0.750000 0.916667
vt 0.725000 1.000000
vt 0.700000 0.916667
vt 0.750000 0.333333
vt 0.700000 0.333333
vt 0.750000 0.583333
vt 0.700000 0.583333
vt 0.725000 0.000000
vt 0.650000 0.416667
vt 0.650000 0.333333
vt 0.650000 0.666667
vt 0.650000 0.583333
vt 0.675000 0.000000
vt 0.650000 0.083333
vt 0.650000 0.916667
vt 0.650000 0.833333
vt 0.650000 0.250000
vt 0.650000 0.500000
vt 0.650000 0.750000
vt 0.650000 0.166667
vt 0.675000 1.000000
vt 0.600000 0.500000
vt 0.600000 0.416667
vt 0.600000 0.750000
vt 0.600000 0.666667
vt 0.600000 0.166667
vt 0.600000 0.083333
vt 0.625000 1.000000
vt 0.600000 0.916667
vt 0.600000 0.333333
vt 0.600000 0.583333
vt 0.625000 0.000000
vt 0.600000 0.833333
vt 0.600000 0.250000
vt 0.550000 0.333333
vt 0.550000 0.250000
vt 0.550000 0.583333
vt 0.550000 0.500000
vt 0.550000 0.833333
vt 0.550000 0.750000
vt 0.550000 0.166667
vt 0.550000 0.416667
vt 0.550000 0.666667
vt 0.550000 0.083333
vt 0.575000 1.000000
vt 0.550000 0.916667
vt 0.575000 0.000000
vt 0.525000 1.000000
vt 0.500000 0.916667
vt 0.500000 0.416667
vt 0.500000 0.333333
vt 0.500000 0.666667
vt 0.500000 0.583333
vt 0.525000 0.000000
vt 0.500000 0.083333
vt 0.500000 0.833333
vt 0.500000 0.250000
vt 0.500000 0.500000
vt 0.500000 0.750000
vt 0.500000 0.166667
vt 0.450000 0.250000
vt 0.450000 0.166667
vt 0.450000 0.500000
vt 0.450000 0.416667
vt 0.450000 0.750000
vt 0.450000 0.666667
vt 0.450000 0.083333
vt 0.475000 1.000000
vt 0.450000 0.916667
vt 0.450000 0.333333
vt 0.450000 0.583333
vt 0.475000 0.000000
vt 0.450000 0.833333
vt 0.400000 0.916667
vt 0.400000 0.833333
vt 0.400000 0.333333
vt 0.400000 0.250000
vt 0.400000 0.583333
vt 0.400000 0.500000
vt 0.400000 0.750000
vt 0.400000 0.166667
vt 0.400000 0.416667
vt 0.400000 0.666667
vt 0.400000 0.083333
vt 0.425000 1.000000
vt 0.425000 0.000000
vt 0.350000 0.166667
vt 0.350000 0.083333
vt 0.375000 1.000000
vt 0.350000 0.916667
vt 0.350000 0.416667
vt 0.350000 0.333333
vt 0.350000 0.666667
vt 0.350000 0.583333
vt 0.375000 0.000000
vt 0.350000 0.833333
vt 0.350000 0.250000
vt 0.350000 0.500000
vt 0.350000 0.750000
vt 0.300000 0.833333
vt 0.300000 0.750000
vt 0.300000 0.250000
vt 0.300000 0.166667
vt 0.300000 0.500000
vt 0.300000 0.416667
vt 0.300000 0.666667
vt 0.300000 0.083333
vt 0.325000 1.000000
vt 0.300000 0.916667
vt 0.300000 0.333333
vt 0.300000 0.583333
vt 0.325000 0.000000
vt 0.275000 0.000000
vt 0.250000 0.083333
vt 0.250000 0.916667
vt 0.250000 0.833333
vt 0.250000 0.333333
vt 0.250000 0.250000
vt 0.250000 0.583333
vt 0.250000 0.500000
vt 0.250000 0.750000
vt 0.250000 0.166667
vt 0.250000 0.416667
vt 0.250000 0.666667
vt 0.275000 1.000000
vt 0.200000 0.750000
vt 0.200000 0.666667
vt 0.200000 0.166667
vt 0.200000 0.083333
vt 0.225000 1.000000
vt 0.200000 0.916667
vt 0.200000 0.416667
vt 0.200000 0.333333
vt 0.200000 0.583333
vt 0.225000 0.000000
vt 0.200000 0.833333
vt 0.200000 0.250000
vt 0.200000 0.500000
vt 0.150000 0.833333
vt 0.150000 0.750000
vt 0.150000 0.250000
vt 0.150000 0.166667
vt 0.150000 0.500000
vt 0.150000 0.416667
vt 0.150000 0.666667
vt 0.150000 0.083333
vt 0.175000 1.000000
vt 0.150000 0.916667
vt 0.150000 0.333333
vt 0.150000 0.583333
vt 0.175000 0.000000
vt 0.100000 0.666667
vt 0.100000 0.583333
vt 0.125000 0.000000
vt 0.100000 0.083333
vt 0.100000 0.916667
vt 0.100000 0.833333
vt 0.100000 0.333333
vt 0.100000 0.250000
vt 0.100000 0.500000
vt 0.100000 0.750000
vt 0.100000 0.166667
vt 0.100000 0.416667
vt 0.125000 1.000000
vt 0.050000 0.750000
vt 0.050000 0.666667
vt 0.050000 0.166667
vt 0.050000 0.083333
vt 0.075000 1.000000
vt 0.050000 0.916667
vt 0.050000 0.416667
vt 0.050000 0.333333
vt 0.050000 0.583333
vt 0.075000 0.000000
vt 0.050000 0.833333
vt 0.050000 0.250000
vt 0.050000 0.500000
vt 0.000000 0.583333
vt 0.000000 0.500000
vt 0.000000 0.833333
vt 0.000000 0.750000
vt 0.000000 0.250000
vt 0.000000 0.166667
vt 0.000000 0.416667
vt 0.000000 0.666667
vt 0.000000 0.083333
vt 0.025000 1.000000
vt 0.000000 0.916667
vt 0.000000 0.333333
vt 0.025000 0.000000
vt 1.000000 0.583333
vt 1.000000 0.666667
vt 0.950000 0.666667
vt 0.950000 0.583333
vt 0.975000 0.000000
vt 1.000000 0.083333
vt 0.950000 0.083333
vt 1.000000 0.833333
vt 1.000000 0.916667
vt 0.950000 0.916667
vt 0.950000 0.833333
vt 1.000000 0.250000
vt 1.000000 0.333333
vt 0.950000 0.333333
vt 0.950000 0.250000
vt 1.000000 0.500000
vt 0.950000 0.500000
vt 1.000000 0.750000
vt 0.950000 0.750000
vt 1.000000 0.166667
vt 0.950000 0.166667
vt 1.000000 0.416667
vt 0.950000 0.416667
vt 0.975000 1.000000
vt 0.900000 0.500000
vt 0.900000 0.416667
vt 0.900000 0.750000
vt 0.900000 0.666667
vt 0.900000 0.166667
vt 0.900000 0.083333
vt 0.925000 1.000000
vt 0.900000 0.916667
vt 0.900000 0.333333
vt 0.900000 0.583333
vt 0.925000 0.000000
vt 0.900000 0.833333
vt 0.900000 0.250000
vt 0.850000 0.583333
vt 0.850000 0.500000
vt 0.850000 0.833333
vt 0.850000 0.750000
vt 0.850000 0.250000
vt 0.850000 0.166667
vt 0.850000 0.416667
vt 0.850000 0.666667
vt 0.850000 0.083333
vt 0.875000 1.000000
vt 0.850000 0.916667
vt 0.850000 0.333333
vt 0.875000 0.000000
vt 0.800000 0.416667
vt 0.800000 0.333333
vt 0.800000 0.666667
vt 0.800000 0.583333
vt 0.825000 0.000000
vt 0.800000 0.083333
vt 0.800000 0.916667
vt 0.800000 0.833333
vt 0.800000 0.250000
vt 0.800000 0.500000
vt 0.800000 0.750000
vt 0.800000 0.166667
vt 0.825000 1.000000
vt 0.775000 1.000000
vt 0.775000 0.000000
vt 1.000000 1.000000
vt 0.958333 1.000000
vt 0.958333 0.500000
vt 0.916667 1.000000
vt 0.916667 0.500000
vt 0.875000 1.000000
vt 0.875000 0.500000
vt 0.833333 1.000000
vt 0.833333 0.500000
vt 0.791667 1.000000
vt 0.791667 0.500000
vt 0.750000 1.000000
vt 0.750000 0.500000
vt 0.708333 1.000000
vt 0.708333 0.500000
vt 0.666667 1.000000
vt 0.666667 0.500000
vt 0.625000 1.000000
vt 0.625000 0.500000
vt 0.583333 1.000000
vt 0.583333 0.500000
vt 0.541666 1.000000
vt 0.541666 0.500000
vt 0.500000 1.000000
vt 0.500000 0.500000
vt 0.458333 1.000000
vt 0.458333 0.500000
vt 0.416666 1.000000
vt 0.416666 0.500000
vt 0.375000 1.000000
vt 0.375000 0.500000
vt 0.333333 1.000000
vt 0.333333 0.500000
vt 0.291667 1.000000
vt 0.291667 0.500000
vt 0.250000 1.000000
vt 0.250000 0.500000
vt 0.208333 1.000000
vt 0.208333 0.500000
vt 0.166666 1.000000
vt 0.166666 0.500000
vt 0.125000 1.000000
vt 0.125000 0.500000
vt 0.083333 1.000000
vt 0.083333 0.500000
vt 0.370000 0.457846
vt 0.312117 0.481822
vt 0.250000 0.490000
vt 0.187883 0.481822
vt 0.130000 0.457846
vt 0.080294 0.419706
vt 0.042154 0.370000
vt 0.018178 0.312117
vt 0.010000 0.250000
vt 0.018178 0.187883
vt 0.042154 0.130000
vt 0.080294 0.080294
vt 0.130000 0.042154
vt 0.187883 0.018178
vt 0.250000 0.010000
vt 0.312117 0.018178
vt 0.370000 0.042154
vt 0.419706 0.080294
vt 0.457846 0.130000
vt 0.481822 0.187883
vt 0.490000 0.250000
vt 0.481822 0.312117
vt 0.457846 0.370000
vt 0.419706 0.419706
vt 0.041666 1.000000
vt 0.041666 0.500000
vt -0.000000 1.000000
vt -0.000000 0.500000
vt 0.687883 0.481822
vt 0.750000 0.490000
vt 0.812117 0.481822
vt 0.870000 0.457846
vt 0.919706 0.419706
vt 0.957846 0.370000
vt 0.981822 0.312117
vt 0.990000 0.250000
vt 0.981822 0.187883
vt 0.957846 0.130000
vt 0.919706 0.080294
vt 0.870000 0.042154
vt 0.812117 0.018178
vt 0.750000 0.010000
vt 0.687883 0.018178
vt 0.630000 0.042154
vt 0.580294 0.080294
vt 0.542154 0.130000
vt 0.518178 0.187883
vt 0.510000 0.250000
vt 0.518178 0.312117
vt 0.542154 0.370000
vt 0.580294 0.419706
vt 0.630000 0.457846
s 0
usemtl M_Dark
f 25/1/1 22/2/1 74/3/1
f 25/1/1 74/3/1 77/4/1
f 46/5/2 41/6/2 101/7/2
f 46/5/2 101/7/2 106/8/2
f 38/9/3 34/10/3 90/11/3
f 38/9/3 90/11/3 94/12/3
f 909/13/4 26/1/4 78/4/4
f 909/13/4 78/4/4 81/14/4
s 1
f 918/15/5 45/5/5 105/8/5
s 0
f 918/15/5 105/8/5 111/16/5
f 905/17/6 2/18/6 69/19/6
f 914/20/7 37/9/7 93/12/7
f 914/20/8 93/12/8 98/21/8
f 29/22/9 910/13/9 82/14/9
f 29/22/10 82/14/10 85/23/10
f 50/24/11 917/15/11 109/16/11
f 21/2/12 906/17/12 71/19/12
s 1
f 21/2/12 71/19/12 73/3/12
s 0
f 42/6/13 913/20/13 97/21/13
f 42/6/13 97/21/13 102/7/13
f 33/10/14 30/22/14 86/23/14
f 33/10/14 86/23/14 89/11/14
f 100/21/15 95/12/15 137/25/15
f 100/21/15 137/25/15 142/26/15
s 1
f 87/23/16 84/14/16 126/27/16
s 0
f 87/23/16 126/27/16 129/28/16
f 52/29/17 110/16/17 153/30/17
f 75/3/18 72/19/18 115/31/18
f 75/3/18 115/31/18 117/32/18
f 104/7/19 99/21/19 141/26/19
s 1
f 104/7/19 141/26/19 146/33/19
s 0
f 91/11/20 88/23/20 130/28/20
f 91/11/20 130/28/20 133/34/20
f 79/4/21 76/3/21 119/32/21
s 1
f 79/4/21 119/32/21 121/35/21
s 0
f 108/8/22 103/7/22 145/33/22
f 108/8/22 145/33/22 151/36/22
f 96/12/23 92/11/23 134/34/23
f 96/12/23 134/34/23 138/25/23
f 83/14/24 80/4/24 122/35/24
f 83/14/24 122/35/24 125/27/24
f 112/16/25 107/8/25 149/36/25
f 112/16/25 149/36/25 155/30/25
f 70/19/26 4/37/26 113/31/26
f 140/25/27 136/34/27 178/38/27
f 140/25/27 178/38/27 182/39/27
f 127/27/28 124/35/28 167/40/28
f 127/27/28 167/40/28 169/41/28
f 156/30/29 150/36/29 193/42/29
f 156/30/29 193/42/29 199/43/29
f 114/31/30 6/44/30 157/45/30
f 144/26/31 139/25/31 181/39/31
f 144/26/31 181/39/31 186/46/31
f 131/28/32 128/27/32 170/41/32
s 1
f 131/28/32 170/41/32 173/47/32
s 0
f 54/48/33 154/30/33 197/43/33
f 118/32/34 116/31/34 159/45/34
s 1
f 118/32/34 159/45/34 161/49/34
s 0
f 148/33/35 143/26/35 185/46/35
f 148/33/35 185/46/35 191/50/35
f 135/34/36 132/28/36 174/47/36
f 135/34/36 174/47/36 177/38/36
f 123/35/37 120/32/37 163/49/37
f 123/35/37 163/49/37 165/40/37
f 152/36/38 147/33/38 189/50/38
f 152/36/38 189/50/38 195/42/38
f 192/50/39 187/46/39 229/51/39
f 192/50/39 229/51/39 235/52/39
f 179/38/40 176/47/40 218/53/40
f 179/38/40 218/53/40 221/54/40
f 166/40/41 164/49/41 207/55/41
f 166/40/41 207/55/41 209/56/41
f 196/42/42 190/50/42 233/52/42
f 196/42/42 233/52/42 239/57/42
f 184/39/43 180/38/43 222/54/43
f 184/39/43 222/54/43 226/58/43
f 171/41/44 168/40/44 211/56/44
f 171/41/44 211/56/44 213/59/44
f 200/43/45 194/42/45 237/57/45
f 200/43/45 237/57/45 243/60/45
f 158/45/46 8/61/46 201/62/46
f 188/46/47 183/39/47 225/58/47
f 188/46/47 225/58/47 231/51/47
f 175/47/48 172/41/48 215/59/48
f 175/47/48 215/59/48 217/53/48
f 56/63/49 198/43/49 241/60/49
f 162/49/50 160/45/50 203/62/50
f 162/49/50 203/62/50 205/55/50
s 1
f 202/62/51 10/64/51 246/65/51
s 0
f 232/51/52 227/58/52 270/66/52
f 232/51/52 270/66/52 276/67/52
f 219/53/53 216/59/53 260/68/53
f 219/53/53 260/68/53 262/69/53
s 1
f 58/70/54 242/60/54 286/71/54
s 0
f 206/55/55 204/62/55 248/65/55
f 206/55/55 248/65/55 250/72/55
f 236/52/56 230/51/56 274/67/56
f 236/52/56 274/67/56 280/73/56
f 223/54/57 220/53/57 264/69/57
f 223/54/57 264/69/57 266/74/57
f 210/56/58 208/55/58 252/72/58
f 210/56/58 252/72/58 254/75/58
f 240/57/59 234/52/59 278/73/59
f 240/57/59 278/73/59 284/76/59
s 1
f 228/58/60 224/54/60 268/74/60
s 0
f 228/58/60 268/74/60 272/66/60
s 1
f 214/59/61 212/56/61 256/75/61
s 0
f 214/59/61 256/75/61 258/68/61
s 1
f 244/60/62 238/57/62 282/76/62
f 244/60/62 282/76/62 288/71/62
s 0
f 283/76/63 277/73/63 322/77/63
f 283/76/63 322/77/63 328/78/63
f 271/66/64 267/74/64 312/79/64
s 1
f 271/66/64 312/79/64 316/80/64
s 0
f 257/68/65 255/75/65 300/81/65
f 257/68/65 300/81/65 302/82/65
f 287/71/66 281/76/66 326/78/66
f 287/71/66 326/78/66 332/83/66
s 1
f 245/65/67 9/84/67 290/85/67
s 0
f 275/67/68 269/66/68 315/80/68
f 275/67/68 315/80/68 320/86/68
f 261/69/69 259/68/69 304/82/69
f 261/69/69 304/82/69 307/87/69
s 1
f 57/88/70 285/71/70 330/83/70
f 249/72/71 247/65/71 292/85/71
s 0
f 249/72/71 292/85/71 294/89/71
f 279/73/72 273/67/72 318/86/72
f 279/73/72 318/86/72 324/77/72
f 265/74/73 263/69/73 308/87/73
f 265/74/73 308/87/73 311/79/73
f 253/75/74 251/72/74 296/89/74
f 253/75/74 296/89/74 298/81/74
f 293/89/75 291/85/75 336/90/75
s 1
f 293/89/75 336/90/75 338/91/75
s 0
f 323/77/76 317/86/76 363/92/76
s 1
f 323/77/76 363/92/76 368/93/76
s 0
f 309/79/77 306/87/77 352/94/77
f 309/79/77 352/94/77 355/95/77
f 297/81/78 295/89/78 340/91/78
f 297/81/78 340/91/78 342/96/78
f 327/78/79 321/77/79 366/93/79
f 327/78/79 366/93/79 372/97/79
f 314/80/80 310/79/80 356/95/80
f 314/80/80 356/95/80 360/98/80
f 301/82/81 299/81/81 344/96/81
f 301/82/81 344/96/81 347/99/81
s 1
f 331/83/82 325/78/82 370/97/82
s 0
f 331/83/82 370/97/82 376/100/82
f 289/85/83 7/101/83 334/90/83
f 319/86/84 313/80/84 359/98/84
s 1
f 319/86/84 359/98/84 364/92/84
s 0
f 305/87/85 303/82/85 348/99/85
f 305/87/85 348/99/85 351/94/85
f 55/102/86 329/83/86 374/100/86
f 375/100/87 369/97/87 414/103/87
s 1
f 375/100/87 414/103/87 420/104/87
s 0
f 333/90/88 5/105/88 378/106/88
f 362/92/89 357/98/89 403/107/89
f 362/92/89 403/107/89 408/108/89
f 349/94/90 346/99/90 392/109/90
f 349/94/90 392/109/90 395/110/90
f 53/111/91 373/100/91 418/104/91
f 337/91/92 335/90/92 380/106/92
s 1
f 337/91/92 380/106/92 382/112/92
s 0
f 367/93/93 361/92/93 407/108/93
f 367/93/93 407/108/93 412/113/93
s 1
f 353/95/94 350/94/94 396/110/94
s 0
f 353/95/94 396/110/94 399/114/94
f 341/96/95 339/91/95 384/112/95
f 341/96/95 384/112/95 387/115/95
f 371/97/96 365/93/96 411/113/96
f 371/97/96 411/113/96 416/103/96
f 358/98/97 354/95/97 400/114/97
f 358/98/97 400/114/97 404/107/97
s 1
f 345/99/98 343/96/98 388/115/98
s 0
f 345/99/98 388/115/98 391/109/98
f 385/115/99 383/112/99 428/116/99
f 385/115/99 428/116/99 431/117/99
s 1
f 415/103/100 409/113/100 455/118/100
s 0
f 415/103/100 455/118/100 460/119/100
f 402/107/101 398/114/101 444/120/101
f 402/107/101 444/120/101 448/121/101
f 389/109/102 386/115/102 432/117/102
s 1
f 389/109/102 432/117/102 435/122/102
s 0
f 419/104/103 413/103/103 459/119/103
f 419/104/103 459/119/103 464/123/103
f 377/106/104 3/124/104 422/125/104
f 406/108/105 401/107/105 447/121/105
f 406/108/105 447/121/105 452/126/105
s 1
f 393/110/106 390/109/106 436/122/106
s 0
f 393/110/106 436/122/106 439/127/106
f 51/128/107 417/104/107 462/123/107
f 381/112/108 379/106/108 424/125/108
f 381/112/108 424/125/108 427/116/108
f 410/113/109 405/108/109 451/126/109
f 410/113/109 451/126/109 456/118/109
f 397/114/110 394/110/110 440/127/110
f 397/114/110 440/127/110 443/120/110
f 49/129/111 461/123/111 505/130/111
f 425/116/112 423/125/112 466/131/112
f 425/116/112 466/131/112 469/132/112
f 454/118/113 449/126/113 493/133/113
f 454/118/113 493/133/113 498/134/113
f 441/120/114 438/127/114 482/135/114
f 441/120/114 482/135/114 485/136/114
f 429/117/115 426/116/115 470/132/115
f 429/117/115 470/132/115 473/137/115
f 458/119/116 453/118/116 497/134/116
f 458/119/116 497/134/116 502/138/116
f 446/121/117 442/120/117 486/136/117
f 446/121/117 486/136/117 490/139/117
f 433/122/118 430/117/118 474/137/118
f 433/122/118 474/137/118 477/140/118
f 463/123/119 457/119/119 501/138/119
f 463/123/119 501/138/119 506/130/119
f 421/125/120 1/141/120 465/131/120
f 450/126/121 445/121/121 489/139/121
f 450/126/121 489/139/121 494/133/121
f 437/127/122 434/122/122 478/140/122
f 437/127/123 478/140/123 481/135/123
s 1
f 479/140/124 476/137/124 518/142/124
s 0
f 479/140/124 518/142/124 521/143/124
f 508/130/125 503/138/125 545/144/125
s 1
f 508/130/125 545/144/125 551/145/125
f 467/131/126 11/146/126 509/147/126
s 0
f 496/133/127 491/139/127 533/148/127
f 496/133/128 533/148/128 538/149/128
f 483/135/129 480/140/129 522/143/129
f 483/135/130 522/143/130 525/150/130
f 59/151/131 507/130/131 549/145/131
f 471/132/132 468/131/132 511/147/132
f 471/132/132 511/147/132 513/152/132
f 500/134/133 495/133/133 537/149/133
f 500/134/133 537/149/133 542/153/133
f 487/136/134 484/135/134 526/150/134
f 487/136/134 526/150/134 529/154/134
f 475/137/135 472/132/135 514/152/135
f 475/137/135 514/152/135 517/142/135
f 504/138/136 499/134/136 541/153/136
f 504/138/136 541/153/136 546/144/136
f 492/139/137 488/136/137 530/154/137
f 492/139/137 530/154/137 534/148/137
f 519/142/138 516/152/138 559/155/138
s 1
f 519/142/138 559/155/138 561/156/138
s 0
f 548/144/139 543/153/139 585/157/139
f 548/144/139 585/157/139 591/158/139
f 536/148/140 532/154/140 574/159/140
f 536/148/140 574/159/140 578/160/140
f 523/143/141 520/142/141 562/156/141
f 523/143/141 562/156/141 565/161/141
f 552/145/142 547/144/142 589/158/142
f 552/145/142 589/158/142 595/162/142
f 510/147/143 13/163/143 553/164/143
f 540/149/144 535/148/144 577/160/144
f 540/149/145 577/160/145 582/165/145
s 1
f 527/150/146 524/143/146 566/161/146
s 0
f 527/150/146 566/161/146 569/166/146
f 61/167/147 550/145/147 593/162/147
f 515/152/148 512/147/148 555/164/148
f 515/152/148 555/164/148 557/155/148
f 544/153/149 539/149/149 581/165/149
s 1
f 544/153/149 581/165/149 586/157/149
s 0
f 531/154/150 528/150/150 570/166/150
f 531/154/150 570/166/150 573/159/150
f 571/166/151 568/161/151 610/168/151
s 1
f 571/166/151 610/168/151 613/169/151
s 0
f 63/170/152 594/162/152 637/171/152
f 558/155/153 556/164/153 599/172/153
f 558/155/153 599/172/153 601/173/153
f 588/157/154 583/165/154 625/174/154
f 588/157/154 625/174/154 631/175/154
f 575/159/155 572/166/155 614/169/155
f 575/159/155 614/169/155 617/176/155
f 563/156/156 560/155/156 603/173/156
f 563/156/156 603/173/156 605/177/156
f 592/158/157 587/157/157 629/175/157
f 592/158/157 629/175/157 635/178/157
f 580/160/158 576/159/158 618/176/158
f 580/160/158 618/176/158 622/179/158
s 1
f 567/161/159 564/156/159 607/177/159
s 0
f 567/161/159 607/177/159 609/168/159
f 596/162/160 590/158/160 633/178/160
f 596/162/160 633/178/160 639/171/160
f 554/164/161 15/180/161 597/172/161
s 1
f 584/165/162 579/160/162 621/179/162
s 0
f 584/165/162 621/179/162 626/174/162
f 611/168/163 608/177/163 651/181/163
f 611/168/163 651/181/163 653/182/163
f 640/171/164 634/178/164 677/183/164
f 640/171/164 677/183/164 683/184/164
f 598/172/165 17/185/165 641/186/165
f 628/174/166 623/179/166 665/187/166
f 628/174/167 665/187/167 671/188/167
f 615/169/168 612/168/168 655/182/168
f 615/169/169 655/182/169 657/189/169
f 65/190/170 638/171/170 681/184/170
s 1
f 602/173/171 600/172/171 643/186/171
s 0
f 602/173/171 643/186/171 645/191/171
f 632/175/172 627/174/172 669/188/172
f 632/175/172 669/188/172 675/192/172
f 619/176/173 616/169/173 658/189/173
f 619/176/173 658/189/173 661/193/173
f 606/177/174 604/173/174 647/191/174
f 606/177/174 647/191/174 649/181/174
f 636/178/175 630/175/175 673/192/175
f 636/178/175 673/192/175 679/183/175
f 624/179/176 620/176/176 662/193/176
f 624/179/176 662/193/176 666/187/176
f 663/193/177 660/189/177 703/194/177
f 663/193/177 703/194/177 705/195/177
f 650/181/178 648/191/178 691/196/178
f 650/181/178 691/196/178 693/197/178
f 680/183/179 674/192/179 717/198/179
f 680/183/179 717/198/179 723/199/179
f 668/187/180 664/193/180 707/195/180
f 668/187/180 707/195/180 711/200/180
f 654/182/181 652/181/181 695/197/181
f 654/182/181 695/197/181 697/201/181
f 684/184/182 678/183/182 721/199/182
f 684/184/182 721/199/182 727/202/182
f 642/186/183 19/203/183 685/204/183
f 672/188/184 667/187/184 709/200/184
f 672/188/184 709/200/184 715/205/184
f 659/189/185 656/182/185 699/201/185
f 659/189/185 699/201/185 701/194/185
f 67/206/186 682/184/186 725/202/186
f 646/191/187 644/186/187 687/204/187
f 646/191/187 687/204/187 689/196/187
f 676/192/188 670/188/188 713/205/188
f 676/192/188 713/205/188 719/198/188
f 702/207/189 700/208/189 744/209/189
f 702/207/189 744/209/189 747/210/189
f 68/211/190 726/212/190 770/213/190
f 690/214/191 688/215/191 732/216/191
f 690/214/191 732/216/191 734/217/191
f 720/218/192 714/219/192 758/220/192
f 720/218/192 758/220/192 764/221/192
f 706/222/193 704/207/193 748/210/193
s 1
f 706/222/193 748/210/193 751/223/193
s 0
f 694/224/194 692/214/194 736/217/194
f 694/224/194 736/217/194 738/225/194
f 724/226/195 718/218/195 762/221/195
f 724/226/195 762/221/195 768/227/195
f 712/228/196 708/222/196 752/223/196
f 712/228/196 752/223/196 756/229/196
f 698/208/197 696/224/197 740/225/197
f 698/208/197 740/225/197 742/209/197
s 1
f 728/212/198 722/226/198 766/227/198
s 0
f 728/212/198 766/227/198 772/213/198
f 686/215/199 20/230/199 730/216/199
f 716/219/200 710/228/200 755/229/200
f 716/219/200 755/229/200 760/220/200
f 754/229/201 750/223/201 796/231/201
f 754/229/201 796/231/201 800/232/201
f 741/209/202 739/225/202 784/233/202
f 741/209/202 784/233/202 787/234/202
f 771/213/203 765/227/203 810/235/203
f 771/213/203 810/235/203 816/236/203
f 729/216/204 18/237/204 774/238/204
f 759/220/205 753/229/205 799/232/205
f 759/220/205 799/232/205 804/239/205
f 745/210/206 743/209/206 788/234/206
f 745/210/206 788/234/206 791/240/206
f 66/241/207 769/213/207 814/236/207
f 733/217/208 731/216/208 776/238/208
f 733/217/208 776/238/208 778/242/208
f 763/221/209 757/220/209 803/239/209
f 763/221/209 803/239/209 808/243/209
f 749/223/210 746/210/210 792/240/210
f 749/223/210 792/240/210 795/231/210
f 737/225/211 735/217/211 780/242/211
s 1
f 737/225/211 780/242/211 782/233/211
f 767/227/212 761/221/212 806/243/212
s 0
f 767/227/212 806/243/212 812/235/212
f 793/231/213 790/240/213 836/244/213
f 793/231/213 836/244/213 839/245/213
f 781/233/214 779/242/214 824/246/214
f 781/233/214 824/246/214 827/247/214
f 811/235/215 805/243/215 851/248/215
f 811/235/215 851/248/215 856/249/215
f 798/232/216 794/231/216 840/245/216
f 798/232/216 840/245/216 844/250/216
s 1
f 785/234/217 783/233/217 828/247/217
s 0
f 785/234/217 828/247/217 831/251/217
f 815/236/218 809/235/218 854/249/218
s 1
f 815/236/218 854/249/218 860/252/218
s 0
f 773/238/219 16/253/219 818/254/219
f 802/239/220 797/232/220 843/250/220
f 802/239/220 843/250/220 848/255/220
f 789/240/221 786/234/221 832/251/221
f 789/240/221 832/251/221 835/244/221
f 64/256/222 813/236/222 858/252/222
f 777/242/223 775/238/223 820/254/223
f 777/242/223 820/254/223 822/246/223
f 807/243/224 801/239/224 847/255/224
f 807/243/224 847/255/224 852/248/224
f 846/255/225 841/250/225 887/257/225
f 846/255/225 887/257/225 892/258/225
f 833/244/226 830/251/226 876/259/226
f 833/244/227 876/259/227 879/260/227
f 62/261/228 857/252/228 902/262/228
s 1
f 821/246/229 819/254/229 864/263/229
f 821/246/229 864/263/229 867/264/229
s 0
f 850/248/230 845/255/230 891/258/230
f 850/248/230 891/258/230 896/265/230
f 837/245/231 834/244/231 880/260/231
f 837/245/231 880/260/231 883/266/231
f 825/247/232 823/246/232 868/264/232
s 1
f 825/247/232 868/264/232 871/267/232
s 0
f 855/249/233 849/248/233 895/265/233
f 855/249/233 895/265/233 900/268/233
f 842/250/234 838/245/234 884/266/234
f 842/250/234 884/266/234 888/257/234
f 829/251/235 826/247/235 872/267/235
f 829/251/235 872/267/235 875/259/235
f 859/252/236 853/249/236 899/268/236
f 859/252/236 899/268/236 904/262/236
f 817/254/237 14/269/237 862/263/237
f 886/257/238 882/266/238 36/10/238
f 886/257/238 36/10/238 40/9/238
f 873/259/239 870/267/239 28/1/239
f 873/259/239 28/1/239 911/13/239
f 903/262/240 897/268/240 47/5/240
s 1
f 903/262/240 47/5/240 920/15/240
s 0
f 861/263/241 12/270/241 907/17/241
f 890/258/242 885/257/242 39/9/242
s 1
f 890/258/243 39/9/243 916/20/243
s 0
f 877/260/244 874/259/244 912/13/244
f 877/260/245 912/13/245 31/22/245
f 60/271/246 901/262/246 919/15/246
f 865/264/247 863/263/247 908/17/247
f 865/264/247 908/17/247 23/2/247
f 894/265/248 889/258/248 915/20/248
f 894/265/248 915/20/248 44/6/248
f 881/266/249 878/260/249 32/22/249
f 881/266/249 32/22/249 35/10/249
f 869/267/250 866/264/250 24/2/250
f 869/267/250 24/2/250 27/1/250
f 898/268/251 893/265/251 43/6/251
f 898/268/251 43/6/251 48/5/251
usemtl M_Green
f 922/222/252 925/272/252 931/273/252
f 922/222/252 931/273/252 928/274/252
f 929/274/253 932/273/253 937/275/253
f 929/274/253 937/275/253 934/276/253
f 935/276/254 938/275/254 943/277/254
f 935/276/254 943/277/254 940/278/254
f 941/278/255 944/277/255 949/279/255
f 941/278/255 949/279/255 946/280/255
f 947/280/256 950/279/256 955/281/256
f 947/280/256 955/281/256 952/282/256
f 953/282/257 956/281/257 962/283/257
f 953/282/257 962/283/257 959/284/257
f 958/284/258 961/283/258 968/285/258
f 958/284/258 968/285/258 965/286/258
f 964/286/259 967/285/259 974/287/259
f 964/286/259 974/287/259 971/288/259
f 970/288/260 973/287/260 980/289/260
f 970/288/260 980/289/260 977/290/260
f 976/290/261 979/289/261 986/291/261
f 976/290/261 986/291/261 983/292/261
f 982/292/262 985/291/262 992/293/262
f 982/292/262 992/293/262 989/294/262
f 988/294/263 991/293/263 997/295/263
f 988/294/263 997/295/263 994/296/263
f 995/296/264 998/295/264 1003/297/264
f 995/296/264 1003/297/264 1000/298/264
f 1001/298/265 1004/297/265 1009/299/265
f 1001/298/265 1009/299/265 1006/300/265
f 1007/300/266 1010/299/266 1015/301/266
f 1007/300/266 1015/301/266 1012/302/266
f 1013/302/267 1016/301/267 1021/303/267
f 1013/302/267 1021/303/267 1018/304/267
f 1019/304/268 1022/303/268 1027/305/268
f 1019/304/268 1027/305/268 1024/306/268
f 1025/306/269 1028/305/269 1033/307/269
f 1025/306/269 1033/307/269 1030/308/269
f 1031/308/270 1034/307/270 1040/309/270
f 1031/308/270 1040/309/270 1037/310/270
f 1036/310/271 1039/309/271 1046/311/271
f 1036/310/271 1046/311/271 1043/312/271
f 1042/312/272 1045/311/272 1052/313/272
f 1042/312/272 1052/313/272 1049/314/272
f 1048/314/273 1051/313/273 1058/315/273
f 1048/314/273 1058/315/273 1055/316/273
f 936/317/274 930/318/274 924/319/274
f 924/319/274 1062/320/274 1056/321/274
f 1056/321/274 1050/322/274 1044/323/274
f 1044/323/274 1038/324/274 1032/325/274
f 1032/325/274 1026/326/274 1020/327/274
f 1020/327/274 1014/328/274 1008/329/274
f 1008/329/274 1002/330/274 996/331/274
f 996/331/274 990/332/274 984/333/274
f 984/333/274 978/334/274 972/335/274
f 972/335/274 966/336/274 960/337/274
f 960/337/274 954/338/274 948/339/274
f 948/339/274 942/340/274 936/317/274
f 936/317/274 924/319/274 1056/321/274
f 1056/321/274 1044/323/274 1032/325/274
f 1032/325/274 1020/327/274 1008/329/274
f 1008/329/274 996/331/274 984/333/274
f 984/333/274 972/335/274 960/337/274
f 960/337/274 948/339/274 936/317/274
f 936/317/274 1056/321/274 1032/325/274
f 1032/325/274 1008/329/274 984/333/274
f 984/333/274 960/337/274 936/317/274
f 1032/325/274 984/333/274 936/317/274
f 1054/316/275 1057/315/275 1064/341/275
f 1054/316/275 1064/341/275 1061/342/275
f 1060/342/276 1063/341/276 926/343/276
f 1060/342/276 926/343/276 923/344/276
f 1059/345/277 921/346/277 927/347/277
f 927/347/277 933/348/277 939/349/277
f 939/349/277 945/350/277 951/351/277
f 951/351/277 957/352/277 963/353/277
f 963/353/277 969/354/277 975/355/277
f 975/355/277 981/356/277 987/357/277
f 987/357/277 993/358/277 999/359/277
f 999/359/277 1005/360/277 1011/361/277
f 1011/361/277 1017/362/277 1023/363/277
f 1023/363/277 1029/364/277 1035/365/277
f 1035/365/277 1041/366/277 1047/367/277
f 1047/367/277 1053/368/277 1059/345/277
f 1059/345/277 927/347/277 939/349/277
f 939/349/277 951/351/277 963/353/277
f 963/353/277 975/355/277 987/357/277
f 987/357/277 999/359/277 1011/361/277
f 1011/361/277 1023/363/277 1035/365/277
f 1035/365/277 1047/367/277 1059/345/277
f 1059/345/277 939/349/277 963/353/277
f 963/353/277 987/357/277 1011/361/277
f 1011/361/277 1035/365/277 1059/345/277
f 963/353/277 1011/361/277 1059/345/277
