# Blender 5.2.0 LTS
# www.blender.org
mtllib link3.mtl
o link3_mesh
v 0.000000 -1048.000000 -2.100000
v 0.000000 -1048.000000 -2.100000
v 0.000000 -1048.000000 -2.100000
v 0.000000 -1013.000000 -2.100000
v 0.000000 -1013.000000 -2.100000
v 0.000000 -1013.000000 -2.100000
v 0.543520 -1048.000000 -2.028444
v 0.543520 -1048.000000 -2.028444
v 0.543520 -1048.000000 -2.028444
v 0.543520 -1013.000000 -2.028444
v 0.543520 -1013.000000 -2.028444
v 0.543520 -1013.000000 -2.028444
v 1.050000 -1048.000000 -1.818653
v 1.050000 -1048.000000 -1.818653
v 1.050000 -1048.000000 -1.818653
v 1.050000 -1013.000000 -1.818653
v 1.050000 -1013.000000 -1.818653
v 1.050000 -1013.000000 -1.818653
v 1.484924 -1048.000000 -1.484924
v 1.484924 -1048.000000 -1.484924
v 1.484924 -1048.000000 -1.484924
v 1.484924 -1013.000000 -1.484924
v 1.484924 -1013.000000 -1.484924
v 1.484924 -1013.000000 -1.484924
v 1.818653 -1048.000000 -1.050000
v 1.818653 -1048.000000 -1.050000
v 1.818653 -1048.000000 -1.050000
v 1.818653 -1013.000000 -1.050000
v 1.818653 -1013.000000 -1.050000
v 1.818653 -1013.000000 -1.050000
v 2.028444 -1048.000000 -0.543520
v 2.028444 -1048.000000 -0.543520
v 2.028444 -1048.000000 -0.543520
v 2.028444 -1013.000000 -0.543520
v 2.028444 -1013.000000 -0.543520
v 2.028444 -1013.000000 -0.543520
v 2.100000 -1048.000000 0.000000
v 2.100000 -1048.000000 0.000000
v 2.100000 -1048.000000 0.000000
v 2.100000 -1013.000000 0.000000
v 2.100000 -1013.000000 0.000000
v 2.100000 -1013.000000 0.000000
v 2.028444 -1048.000000 0.543520
v 2.028444 -1048.000000 0.543520
v 2.028444 -1048.000000 0.543520
v 2.028444 -1013.000000 0.543520
v 2.028444 -1013.000000 0.543520
v 2.028444 -1013.000000 0.543520
v 1.818653 -1048.000000 1.050000
v 1.818653 -1048.000000 1.050000
v 1.818653 -1048.000000 1.050000
v 1.818653 -1013.000000 1.050000
v 1.818653 -1013.000000 1.050000
v 1.818653 -1013.000000 1.050000
v 1.484924 -1048.000000 1.484924
v 1.484924 -1048.000000 1.484924
v 1.484924 -1048.000000 1.484924
v 1.484924 -1013.000000 1.484924
v 1.484924 -1013.000000 1.484924
v 1.484924 -1013.000000 1.484924
v 1.050000 -1048.000000 1.818653
v 1.050000 -1048.000000 1.818653
v 1.050000 -1048.000000 1.818653
v 1.050000 -1013.000000 1.818653
v 1.050000 -1013.000000 1.818653
v 1.050000 -1013.000000 1.818653
v 0.543520 -1048.000000 2.028444
v 0.543520 -1048.000000 2.028444
v 0.543520 -1048.000000 2.028444
v 0.543520 -1013.000000 2.028444
v 0.543520 -1013.000000 2.028444
v 0.543520 -1013.000000 2.028444
v 0.000000 -1048.000000 2.100000
v 0.000000 -1048.000000 2.100000
v 0.000000 -1048.000000 2.100000
v 0.000000 -1013.000000 2.100000
v 0.000000 -1013.000000 2.100000
v 0.000000 -1013.000000 2.100000
v -0.543520 -1048.000000 2.028444
v -0.543520 -1048.000000 2.028444
v -0.543520 -1048.000000 2.028444
v -0.543520 -1013.000000 2.028444
v -0.543520 -1013.000000 2.028444
v -0.543520 -1013.000000 2.028444
v -1.050000 -1048.000000 1.818653
v -1.050000 -1048.000000 1.818653
v -1.050000 -1048.000000 1.818653
v -1.050000 -1013.000000 1.818653
v -1.050000 -1013.000000 1.818653
v -1.050000 -1013.000000 1.818653
v -1.484924 -1048.000000 1.484924
v -1.484924 -1048.000000 1.484924
v -1.484924 -1048.000000 1.484924
v -1.484924 -1013.000000 1.484924
v -1.484924 -1013.000000 1.484924
v -1.484924 -1013.000000 1.484924
v -1.818653 -1048.000000 1.050000
v -1.818653 -1048.000000 1.050000
v -1.818653 -1048.000000 1.050000
v -1.818653 -1013.000000 1.050000
v -1.818653 -1013.000000 1.050000
v -1.818653 -1013.000000 1.050000
v -2.028444 -1048.000000 0.543520
v -2.028444 -1048.000000 0.543520
v -2.028444 -1048.000000 0.543520
v -2.028444 -1013.000000 0.543520
v -2.028444 -1013.000000 0.543520
v -2.028444 -1013.000000 0.543520
v -2.100000 -1048.000000 0.000000
v -2.100000 -1048.000000 0.000000
v -2.100000 -1048.000000 0.000000
v -2.100000 -1013.000000 0.000000
v -2.100000 -1013.000000 0.000000
v -2.100000 -1013.000000 0.000000
v -2.028444 -1048.000000 -0.543520
v -2.028444 -1048.000000 -0.543520
v -2.028444 -1048.000000 -0.543520
v -2.028444 -1013.000000 -0.543520
v -2.028444 -1013.000000 -0.543520
v -2.028444 -1013.000000 -0.543520
v -1.818653 -1048.000000 -1.050000
v -1.818653 -1048.000000 -1.050000
v -1.818653 -1048.000000 -1.050000
v -1.818653 -1013.000000 -1.050000
v -1.818653 -1013.000000 -1.050000
v -1.818653 -1013.000000 -1.050000
v -1.484924 -1048.000000 -1.484924
v -1.484924 -1048.000000 -1.484924
v -1.484924 -1048.000000 -1.484924
v -1.484924 -1013.000000 -1.484924
v -1.484924 -1013.000000 -1.484924
v -1.484924 -1013.000000 -1.484924
v -1.050000 -1048.000000 -1.818653
v -1.050000 -1048.000000 -1.818653
v -1.050000 -1048.000000 -1.818653
v -1.050000 -1013.000000 -1.818653
v -1.050000 -1013.000000 -1.818653
v -1.050000 -1013.000000 -1.818653
v -0.543520 -1048.000000 -2.028444
v -0.543520 -1048.000000 -2.028444
v -0.543520 -1048.000000 -2.028444
v -0.543520 -1013.000000 -2.028444
v -0.543520 -1013.000000 -2.028444
v -0.543520 -1013.000000 -2.028444
v -8.000000 -2191.500000 6.000000
v -8.000000 -2191.500000 6.000000
v -8.000000 -2191.500000 6.000000
v -8.000000 -2188.500000 6.000000
v -8.000000 -2188.500000 6.000000
v -8.000000 -2188.500000 6.000000
v -8.000000 -2191.500000 -6.000000
v -8.000000 -2191.500000 -6.000000
v -8.000000 -2191.500000 -6.000000
v -8.000000 -2188.500000 -6.000000
v -8.000000 -2188.500000 -6.000000
v -8.000000 -2188.500000 -6.000000
v 8.000000 -2191.500000 6.000000
v 8.000000 -2191.500000 6.000000
v 8.000000 -2191.500000 6.000000
v 8.000000 -2188.500000 6.000000
v 8.000000 -2188.500000 6.000000
v 8.000000 -2188.500000 6.000000
v 8.000000 -2191.500000 -6.000000
v 8.000000 -2191.500000 -6.000000
v 8.000000 -2191.500000 -6.000000
v 8.000000 -2188.500000 -6.000000
v 8.000000 -2188.500000 -6.000000
v 8.000000 -2188.500000 -6.000000
vn 0.1305 -0.0000 -0.9914
vn 0.3827 -0.0000 -0.9239
vn 0.6088 -0.0000 -0.7934
vn 0.7934 -0.0000 -0.6088
vn 0.9239 -0.0000 -0.3827
vn 0.9914 -0.0000 -0.1305
vn 0.9914 -0.0000 0.1305
vn 0.9239 -0.0000 0.3827
vn 0.7934 -0.0000 0.6088
vn 0.6088 -0.0000 0.7934
vn 0.3827 -0.0000 0.9239
vn 0.1305 -0.0000 0.9914
vn -0.1305 -0.0000 0.9914
vn -0.3827 -0.0000 0.9239
vn -0.6088 -0.0000 0.7934
vn -0.7934 -0.0000 0.6088
vn -0.9239 -0.0000 0.3827
vn -0.9914 -0.0000 0.1305
vn -0.9914 -0.0000 -0.1305
vn -0.9239 -0.0000 -0.3827
vn -0.7934 -0.0000 -0.6088
vn -0.6088 -0.0000 -0.7934
vn -0.0000 1.0000 -0.0000
vn -0.3827 -0.0000 -0.9239
vn -0.1305 -0.0000 -0.9914
vn -0.0000 -1.0000 -0.0000
vn -1.0000 -0.0000 -0.0000
vn -0.0000 -0.0000 -1.0000
vn 1.0000 -0.0000 -0.0000
vn -0.0000 -0.0000 1.0000
vt 1.000000 0.500000
vt 1.000000 1.000000
vt 0.958333 1.000000
vt 0.958333 0.500000
vt 0.916667 1.000000
vt 0.916667 0.500000
vt 0.875000 1.000000
vt 0.875000 0.500000
vt 0.833333 1.000000
vt 0.833333 0.500000
vt 0.791667 1.000000
vt 0.791667 0.500000
vt 0.750000 1.000000
vt 0.750000 0.500000
vt 0.708333 1.000000
vt 0.708333 0.500000
vt 0.666667 1.000000
vt 0.666667 0.500000
vt 0.625000 1.000000
vt 0.625000 0.500000
vt 0.583333 1.000000
vt 0.583333 0.500000
vt 0.541666 1.000000
vt 0.541666 0.500000
vt 0.500000 1.000000
vt 0.500000 0.500000
vt 0.458333 1.000000
vt 0.458333 0.500000
vt 0.416666 1.000000
vt 0.416666 0.500000
vt 0.375000 1.000000
vt 0.375000 0.500000
vt 0.333333 1.000000
vt 0.333333 0.500000
vt 0.291667 1.000000
vt 0.291667 0.500000
vt 0.250000 1.000000
vt 0.250000 0.500000
vt 0.208333 1.000000
vt 0.208333 0.500000
vt 0.166666 1.000000
vt 0.166666 0.500000
vt 0.125000 1.000000
vt 0.125000 0.500000
vt 0.083333 1.000000
vt 0.083333 0.500000
vt 0.370000 0.457846
vt 0.312117 0.481822
vt 0.250000 0.490000
vt 0.187883 0.481822
vt 0.130000 0.457846
vt 0.080294 0.419706
vt 0.042154 0.370000
vt 0.018178 0.312117
vt 0.010000 0.250000
vt 0.018178 0.187883
vt 0.042154 0.130000
vt 0.080294 0.080294
vt 0.130000 0.042154
vt 0.187883 0.018178
vt 0.250000 0.010000
vt 0.312117 0.018178
vt 0.370000 0.042154
vt 0.419706 0.080294
vt 0.457846 0.130000
vt 0.481822 0.187883
vt 0.490000 0.250000
vt 0.481822 0.312117
vt 0.457846 0.370000
vt 0.419706 0.419706
vt 0.041666 1.000000
vt 0.041666 0.500000
vt -0.000000 1.000000
vt -0.000000 0.500000
vt 0.687883 0.481822
vt 0.750000 0.490000
vt 0.812117 0.481822
vt 0.870000 0.457846
vt 0.919706 0.419706
vt 0.957846 0.370000
vt 0.981822 0.312117
vt 0.990000 0.250000
vt 0.981822 0.187883
vt 0.957846 0.130000
vt 0.919706 0.080294
vt 0.870000 0.042154
vt 0.812117 0.018178
vt 0.750000 0.010000
vt 0.687883 0.018178
vt 0.630000 0.042154
vt 0.580294 0.080294
vt 0.542154 0.130000
vt 0.518178 0.187883
vt 0.510000 0.250000
vt 0.518178 0.312117
vt 0.542154 0.370000
vt 0.580294 0.419706
vt 0.630000 0.457846
vt 0.375000 0.000000
vt 0.625000 0.000000
vt 0.625000 0.250000
vt 0.375000 0.250000
vt 0.625000 0.500000
vt 0.375000 0.500000
vt 0.625000 0.750000
vt 0.375000 0.750000
vt 0.625000 1.000000
vt 0.375000 1.000000
vt 0.125000 0.500000
vt 0.125000 0.750000
vt 0.875000 0.500000
vt 0.875000 0.750000
s 0
usemtl M_Red
f 2/1/1 5/2/1 11/3/1
f 2/1/1 11/3/1 8/4/1
s 1
f 9/4/2 12/3/2 17/5/2
s 0
f 9/4/2 17/5/2 14/6/2
f 15/6/3 18/5/3 23/7/3
f 15/6/3 23/7/3 20/8/3
f 21/8/4 24/7/4 29/9/4
f 21/8/4 29/9/4 26/10/4
f 27/10/5 30/9/5 35/11/5
f 27/10/5 35/11/5 32/12/5
f 33/12/6 36/11/6 42/13/6
f 33/12/6 42/13/6 39/14/6
f 38/14/7 41/13/7 48/15/7
f 38/14/7 48/15/7 45/16/7
f 44/16/8 47/15/8 54/17/8
f 44/16/8 54/17/8 51/18/8
f 50/18/9 53/17/9 60/19/9
f 50/18/9 60/19/9 57/20/9
f 56/20/10 59/19/10 66/21/10
f 56/20/10 66/21/10 63/22/10
f 62/22/11 65/21/11 72/23/11
s 1
f 62/22/11 72/23/11 69/24/11
s 0
f 68/24/12 71/23/12 77/25/12
f 68/24/12 77/25/12 74/26/12
f 75/26/13 78/25/13 83/27/13
f 75/26/13 83/27/13 80/28/13
s 1
f 81/28/14 84/27/14 89/29/14
s 0
f 81/28/14 89/29/14 86/30/14
f 87/30/15 90/29/15 95/31/15
f 87/30/15 95/31/15 92/32/15
f 93/32/16 96/31/16 101/33/16
f 93/32/16 101/33/16 98/34/16
f 99/34/17 102/33/17 107/35/17
f 99/34/17 107/35/17 104/36/17
f 105/36/18 108/35/18 113/37/18
f 105/36/18 113/37/18 110/38/18
f 111/38/19 114/37/19 120/39/19
f 111/38/19 120/39/19 117/40/19
f 116/40/20 119/39/20 126/41/20
f 116/40/20 126/41/20 123/42/20
f 122/42/21 125/41/21 132/43/21
f 122/42/21 132/43/21 129/44/21
f 128/44/22 131/43/22 138/45/22
f 128/44/22 138/45/22 135/46/22
f 16/47/23 10/48/23 4/49/23
f 4/49/23 142/50/23 136/51/23
f 136/51/23 130/52/23 124/53/23
f 124/53/23 118/54/23 112/55/23
f 112/55/23 106/56/23 100/57/23
f 100/57/23 94/58/23 88/59/23
f 88/59/23 82/60/23 76/61/23
f 76/61/23 70/62/23 64/63/23
f 64/63/23 58/64/23 52/65/23
f 52/65/23 46/66/23 40/67/23
f 40/67/23 34/68/23 28/69/23
f 28/69/23 22/70/23 16/47/23
f 16/47/23 4/49/23 136/51/23
f 136/51/23 124/53/23 112/55/23
f 112/55/23 100/57/23 88/59/23
f 88/59/23 76/61/23 64/63/23
f 64/63/23 52/65/23 40/67/23
f 40/67/23 28/69/23 16/47/23
f 16/47/23 136/51/23 112/55/23
f 112/55/23 88/59/23 64/63/23
f 64/63/23 40/67/23 16/47/23
f 112/55/23 64/63/23 16/47/23
f 134/46/24 137/45/24 144/71/24
s 1
f 134/46/24 144/71/24 141/72/24
s 0
f 140/72/25 143/71/25 6/73/25
f 140/72/25 6/73/25 3/74/25
f 139/75/26 1/76/26 7/77/26
f 7/77/26 13/78/26 19/79/26
f 19/79/26 25/80/26 31/81/26
f 31/81/26 37/82/26 43/83/26
f 43/83/26 49/84/26 55/85/26
f 55/85/26 61/86/26 67/87/26
f 67/87/26 73/88/26 79/89/26
f 79/89/26 85/90/26 91/91/26
f 91/91/26 97/92/26 103/93/26
f 103/93/26 109/94/26 115/95/26
f 115/95/26 121/96/26 127/97/26
f 127/97/26 133/98/26 139/75/26
f 139/75/26 7/77/26 19/79/26
f 19/79/26 31/81/26 43/83/26
f 43/83/26 55/85/26 67/87/26
f 67/87/26 79/89/26 91/91/26
f 91/91/26 103/93/26 115/95/26
f 115/95/26 127/97/26 139/75/26
f 139/75/26 19/79/26 43/83/26
f 43/83/26 67/87/26 91/91/26
f 91/91/26 115/95/26 139/75/26
f 43/83/26 91/91/26 139/75/26
usemtl M_EE
f 147/99/27 150/100/27 156/101/27
f 147/99/27 156/101/27 153/102/27
f 151/102/28 154/101/28 166/103/28
f 151/102/28 166/103/28 163/104/28
f 165/104/29 168/103/29 162/105/29
f 165/104/29 162/105/29 159/106/29
f 157/106/30 160/105/30 148/107/30
f 157/106/30 148/107/30 145/108/30
f 152/109/26 164/104/26 158/106/26
f 152/109/26 158/106/26 146/110/26
f 167/103/23 155/111/23 149/112/23
f 167/103/23 149/112/23 161/105/23
