# Blender 5.2.0 LTS
# www.blender.org
mtllib link2.mtl
o link2_mesh
v 0.000000 -1087.000000 0.000000
v 0.000000 -1087.000000 0.000000
v 0.000000 -1087.000000 0.000000
v 0.000000 -1087.000000 0.000000
v 0.000000 -1087.000000 0.000000
v 0.000000 -1087.000000 0.000000
v 0.000000 -1087.000000 0.000000
v 0.000000 -1087.000000 0.000000
v 0.000000 -1087.000000 0.000000
v 0.000000 -1087.000000 0.000000
v 0.000000 -1087.000000 0.000000
v 0.000000 -1087.000000 0.000000
v 0.000000 -1087.000000 0.000000
v 0.000000 -1087.000000 0.000000
v 0.000000 -1087.000000 0.000000
v 0.000000 -1087.000000 0.000000
v 0.000000 -1087.000000 0.000000
v 0.000000 -1087.000000 0.000000
v 0.000000 -1087.000000 0.000000
v 0.000000 -1087.000000 0.000000
v 0.000000 -1088.757324 -4.242640
v 0.000000 -1088.757324 -4.242640
v 0.000000 -1088.757324 -4.242640
v 0.000000 -1088.757324 -4.242640
v 0.000000 -1091.447144 -5.795555
v 0.000000 -1091.447144 -5.795555
v 0.000000 -1091.447144 -5.795555
v 0.000000 -1091.447144 -5.795555
v 0.000000 -1094.552856 -5.795555
v 0.000000 -1094.552856 -5.795555
v 0.000000 -1094.552856 -5.795555
v 0.000000 -1094.552856 -5.795555
v 0.000000 -1097.242676 -4.242640
v 0.000000 -1097.242676 -4.242640
v 0.000000 -1097.242676 -4.242640
v 0.000000 -1097.242676 -4.242640
v 0.000000 -1099.000000 0.000000
v 0.000000 -1099.000000 0.000000
v 0.000000 -1099.000000 0.000000
v 0.000000 -1099.000000 0.000000
v 0.000000 -1099.000000 0.000000
v 0.000000 -1099.000000 0.000000
v 0.000000 -1099.000000 0.000000
v 0.000000 -1099.000000 0.000000
v 0.000000 -1099.000000 0.000000
v 0.000000 -1099.000000 0.000000
v 0.000000 -1099.000000 0.000000
v 0.000000 -1099.000000 0.000000
v 0.000000 -1099.000000 0.000000
v 0.000000 -1099.000000 0.000000
v 0.000000 -1099.000000 0.000000
v 0.000000 -1099.000000 0.000000
v 0.000000 -1099.000000 0.000000
v 0.000000 -1099.000000 0.000000
v 0.000000 -1099.000000 0.000000
v 0.000000 -1099.000000 0.000000
v 0.479877 -1087.204468 -1.476909
v 0.479877 -1087.204468 -1.476909
v 0.479877 -1087.204468 -1.476909
v 0.479877 -1087.204468 -1.476909
v 0.927051 -1087.803833 -2.853170
v 0.927051 -1087.803833 -2.853170
v 0.927051 -1087.803833 -2.853170
v 0.927051 -1087.803833 -2.853170
v 1.311048 -1088.757324 -4.034991
v 1.311048 -1088.757324 -4.034991
v 1.311048 -1088.757324 -4.034991
v 1.311048 -1088.757324 -4.034991
v 1.605699 -1090.000000 -4.941834
v 1.605699 -1090.000000 -4.941834
v 1.605699 -1090.000000 -4.941834
v 1.605699 -1090.000000 -4.941834
v 1.790925 -1091.447144 -5.511900
v 1.790925 -1091.447144 -5.511900
v 1.790925 -1091.447144 -5.511900
v 1.790925 -1091.447144 -5.511900
v 1.854102 -1093.000000 -5.706339
v 1.854102 -1093.000000 -5.706339
v 1.854102 -1093.000000 -5.706339
v 1.854102 -1093.000000 -5.706339
v 1.790925 -1094.552856 -5.511900
v 1.790925 -1094.552856 -5.511900
v 1.790925 -1094.552856 -5.511900
v 1.790925 -1094.552856 -5.511900
v 1.605699 -1096.000000 -4.941834
v 1.605699 -1096.000000 -4.941834
v 1.605699 -1096.000000 -4.941834
v 1.605699 -1096.000000 -4.941834
v 1.311048 -1097.242676 -4.034991
v 1.311048 -1097.242676 -4.034991
v 1.311048 -1097.242676 -4.034991
v 1.311048 -1097.242676 -4.034991
v 0.927051 -1098.196167 -2.853170
v 0.927051 -1098.196167 -2.853170
v 0.927051 -1098.196167 -2.853170
v 0.927051 -1098.196167 -2.853170
v 0.479877 -1098.795532 -1.476909
v 0.479877 -1098.795532 -1.476909
v 0.479877 -1098.795532 -1.476909
v 0.479877 -1098.795532 -1.476909
v 0.912780 -1087.204468 -1.256334
v 0.912780 -1087.204468 -1.256334
v 0.912780 -1087.204468 -1.256334
v 0.912780 -1087.204468 -1.256334
v 1.763356 -1087.803833 -2.427051
v 1.763356 -1087.803833 -2.427051
v 1.763356 -1087.803833 -2.427051
v 1.763356 -1087.803833 -2.427051
v 2.493762 -1088.757324 -3.432368
v 2.493762 -1088.757324 -3.432368
v 2.493762 -1088.757324 -3.432368
v 2.493762 -1088.757324 -3.432368
v 3.054222 -1090.000000 -4.203775
v 3.054222 -1090.000000 -4.203775
v 3.054222 -1090.000000 -4.203775
v 3.054222 -1090.000000 -4.203775
v 3.406542 -1091.447144 -4.688703
v 3.406542 -1091.447144 -4.688703
v 3.406542 -1091.447144 -4.688703
v 3.406542 -1091.447144 -4.688703
v 3.526712 -1093.000000 -4.854103
v 3.526712 -1093.000000 -4.854103
v 3.526712 -1093.000000 -4.854103
v 3.526712 -1093.000000 -4.854103
v 3.406542 -1094.552856 -4.688703
v 3.406542 -1094.552856 -4.688703
v 3.406542 -1094.552856 -4.688703
v 3.406542 -1094.552856 -4.688703
v 3.054222 -1096.000000 -4.203775
v 3.054222 -1096.000000 -4.203775
v 3.054222 -1096.000000 -4.203775
v 3.054222 -1096.000000 -4.203775
v 2.493762 -1097.242676 -3.432368
v 2.493762 -1097.242676 -3.432368
v 2.493762 -1097.242676 -3.432368
v 2.493762 -1097.242676 -3.432368
v 1.763356 -1098.196167 -2.427051
v 1.763356 -1098.196167 -2.427051
v 1.763356 -1098.196167 -2.427051
v 1.763356 -1098.196167 -2.427051
v 0.912780 -1098.795532 -1.256334
v 0.912780 -1098.795532 -1.256334
v 0.912780 -1098.795532 -1.256334
v 0.912780 -1098.795532 -1.256334
v 1.256334 -1087.204468 -0.912780
v 1.256334 -1087.204468 -0.912780
v 1.256334 -1087.204468 -0.912780
v 1.256334 -1087.204468 -0.912780
v 2.427051 -1087.803833 -1.763356
v 2.427051 -1087.803833 -1.763356
v 2.427051 -1087.803833 -1.763356
v 2.427051 -1087.803833 -1.763356
v 3.432368 -1088.757324 -2.493762
v 3.432368 -1088.757324 -2.493762
v 3.432368 -1088.757324 -2.493762
v 3.432368 -1088.757324 -2.493762
v 4.203775 -1090.000000 -3.054222
v 4.203775 -1090.000000 -3.054222
v 4.203775 -1090.000000 -3.054222
v 4.203775 -1090.000000 -3.054222
v 4.688703 -1091.447144 -3.406542
v 4.688703 -1091.447144 -3.406542
v 4.688703 -1091.447144 -3.406542
v 4.688703 -1091.447144 -3.406542
v 4.854102 -1093.000000 -3.526712
v 4.854102 -1093.000000 -3.526712
v 4.854102 -1093.000000 -3.526712
v 4.854102 -1093.000000 -3.526712
v 4.688703 -1094.552856 -3.406542
v 4.688703 -1094.552856 -3.406542
v 4.688703 -1094.552856 -3.406542
v 4.688703 -1094.552856 -3.406542
v 4.203775 -1096.000000 -3.054222
v 4.203775 -1096.000000 -3.054222
v 4.203775 -1096.000000 -3.054222
v 4.203775 -1096.000000 -3.054222
v 3.432368 -1097.242676 -2.493762
v 3.432368 -1097.242676 -2.493762
v 3.432368 -1097.242676 -2.493762
v 3.432368 -1097.242676 -2.493762
v 2.427051 -1098.196167 -1.763356
v 2.427051 -1098.196167 -1.763356
v 2.427051 -1098.196167 -1.763356
v 2.427051 -1098.196167 -1.763356
v 1.256334 -1098.795532 -0.912780
v 1.256334 -1098.795532 -0.912780
v 1.256334 -1098.795532 -0.912780
v 1.256334 -1098.795532 -0.912780
v 1.476909 -1087.204468 -0.479877
v 1.476909 -1087.204468 -0.479877
v 1.476909 -1087.204468 -0.479877
v 1.476909 -1087.204468 -0.479877
v 2.853170 -1087.803833 -0.927051
v 2.853170 -1087.803833 -0.927051
v 2.853170 -1087.803833 -0.927051
v 2.853170 -1087.803833 -0.927051
v 4.034991 -1088.757324 -1.311048
v 4.034991 -1088.757324 -1.311048
v 4.034991 -1088.757324 -1.311048
v 4.034991 -1088.757324 -1.311048
v 4.941834 -1090.000000 -1.605699
v 4.941834 -1090.000000 -1.605699
v 4.941834 -1090.000000 -1.605699
v 4.941834 -1090.000000 -1.605699
v 5.511901 -1091.447144 -1.790925
v 5.511901 -1091.447144 -1.790925
v 5.511901 -1091.447144 -1.790925
v 5.511901 -1091.447144 -1.790925
v 5.706340 -1093.000000 -1.854103
v 5.706340 -1093.000000 -1.854103
v 5.706340 -1093.000000 -1.854103
v 5.706340 -1093.000000 -1.854103
v 5.511901 -1094.552856 -1.790925
v 5.511901 -1094.552856 -1.790925
v 5.511901 -1094.552856 -1.790925
v 5.511901 -1094.552856 -1.790925
v 4.941834 -1096.000000 -1.605699
v 4.941834 -1096.000000 -1.605699
v 4.941834 -1096.000000 -1.605699
v 4.941834 -1096.000000 -1.605699
v 4.034991 -1097.242676 -1.311048
v 4.034991 -1097.242676 -1.311048
v 4.034991 -1097.242676 -1.311048
v 4.034991 -1097.242676 -1.311048
v 2.853170 -1098.196167 -0.927051
v 2.853170 -1098.196167 -0.927051
v 2.853170 -1098.196167 -0.927051
v 2.853170 -1098.196167 -0.927051
v 1.476909 -1098.795532 -0.479877
v 1.476909 -1098.795532 -0.479877
v 1.476909 -1098.795532 -0.479877
v 1.476909 -1098.795532 -0.479877
v 1.552914 -1087.204468 -0.000000
v 1.552914 -1087.204468 -0.000000
v 1.552914 -1087.204468 -0.000000
v 1.552914 -1087.204468 -0.000000
v 3.000001 -1087.803833 -0.000000
v 3.000001 -1087.803833 -0.000000
v 3.000001 -1087.803833 -0.000000
v 3.000001 -1087.803833 -0.000000
v 4.242641 -1088.757324 0.000000
v 4.242641 -1088.757324 0.000000
v 4.242641 -1088.757324 0.000000
v 4.242641 -1088.757324 0.000000
v 5.196153 -1090.000000 -0.000000
v 5.196153 -1090.000000 -0.000000
v 5.196153 -1090.000000 -0.000000
v 5.196153 -1090.000000 -0.000000
v 5.795556 -1091.447144 0.000000
v 5.795556 -1091.447144 0.000000
v 5.795556 -1091.447144 0.000000
v 5.795556 -1091.447144 0.000000
v 6.000001 -1093.000000 -0.000000
v 6.000001 -1093.000000 -0.000000
v 6.000001 -1093.000000 -0.000000
v 6.000001 -1093.000000 -0.000000
v 5.795556 -1094.552856 0.000000
v 5.795556 -1094.552856 0.000000
v 5.795556 -1094.552856 0.000000
v 5.795556 -1094.552856 0.000000
v 5.196153 -1096.000000 -0.000000
v 5.196153 -1096.000000 -0.000000
v 5.196153 -1096.000000 -0.000000
v 5.196153 -1096.000000 -0.000000
v 4.242641 -1097.242676 0.000000
v 4.242641 -1097.242676 0.000000
v 4.242641 -1097.242676 0.000000
v 4.242641 -1097.242676 0.000000
v 3.000001 -1098.196167 -0.000000
v 3.000001 -1098.196167 -0.000000
v 3.000001 -1098.196167 -0.000000
v 3.000001 -1098.196167 -0.000000
v 1.552914 -1098.795532 -0.000000
v 1.552914 -1098.795532 -0.000000
v 1.552914 -1098.795532 -0.000000
v 1.552914 -1098.795532 -0.000000
v 1.476909 -1087.204468 0.479877
v 1.476909 -1087.204468 0.479877
v 1.476909 -1087.204468 0.479877
v 1.476909 -1087.204468 0.479877
v 2.853170 -1087.803833 0.927051
v 2.853170 -1087.803833 0.927051
v 2.853170 -1087.803833 0.927051
v 2.853170 -1087.803833 0.927051
v 4.034991 -1088.757324 1.311048
v 4.034991 -1088.757324 1.311048
v 4.034991 -1088.757324 1.311048
v 4.034991 -1088.757324 1.311048
v 4.941835 -1090.000000 1.605699
v 4.941835 -1090.000000 1.605699
v 4.941835 -1090.000000 1.605699
v 4.941835 -1090.000000 1.605699
v 5.511901 -1091.447144 1.790925
v 5.511901 -1091.447144 1.790925
v 5.511901 -1091.447144 1.790925
v 5.511901 -1091.447144 1.790925
v 5.706341 -1093.000000 1.854102
v 5.706341 -1093.000000 1.854102
v 5.706341 -1093.000000 1.854102
v 5.706341 -1093.000000 1.854102
v 5.511901 -1094.552856 1.790925
v 5.511901 -1094.552856 1.790925
v 5.511901 -1094.552856 1.790925
v 5.511901 -1094.552856 1.790925
v 4.941835 -1096.000000 1.605699
v 4.941835 -1096.000000 1.605699
v 4.941835 -1096.000000 1.605699
v 4.941835 -1096.000000 1.605699
v 4.034991 -1097.242676 1.311048
v 4.034991 -1097.242676 1.311048
v 4.034991 -1097.242676 1.311048
v 4.034991 -1097.242676 1.311048
v 2.853170 -1098.196167 0.927051
v 2.853170 -1098.196167 0.927051
v 2.853170 -1098.196167 0.927051
v 2.853170 -1098.196167 0.927051
v 1.476909 -1098.795532 0.479877
v 1.476909 -1098.795532 0.479877
v 1.476909 -1098.795532 0.479877
v 1.476909 -1098.795532 0.479877
v 1.256334 -1087.204468 0.912780
v 1.256334 -1087.204468 0.912780
v 1.256334 -1087.204468 0.912780
v 1.256334 -1087.204468 0.912780
v 2.427052 -1087.803833 1.763356
v 2.427052 -1087.803833 1.763356
v 2.427052 -1087.803833 1.763356
v 2.427052 -1087.803833 1.763356
v 3.432369 -1088.757324 2.493762
v 3.432369 -1088.757324 2.493762
v 3.432369 -1088.757324 2.493762
v 3.432369 -1088.757324 2.493762
v 4.203776 -1090.000000 3.054222
v 4.203776 -1090.000000 3.054222
v 4.203776 -1090.000000 3.054222
v 4.203776 -1090.000000 3.054222
v 4.688703 -1091.447144 3.406542
v 4.688703 -1091.447144 3.406542
v 4.688703 -1091.447144 3.406542
v 4.688703 -1091.447144 3.406542
v 4.854104 -1093.000000 3.526712
v 4.854104 -1093.000000 3.526712
v 4.854104 -1093.000000 3.526712
v 4.854104 -1093.000000 3.526712
v 4.688703 -1094.552856 3.406542
v 4.688703 -1094.552856 3.406542
v 4.688703 -1094.552856 3.406542
v 4.688703 -1094.552856 3.406542
v 4.203776 -1096.000000 3.054222
v 4.203776 -1096.000000 3.054222
v 4.203776 -1096.000000 3.054222
v 4.203776 -1096.000000 3.054222
v 3.432369 -1097.242676 2.493762
v 3.432369 -1097.242676 2.493762
v 3.432369 -1097.242676 2.493762
v 3.432369 -1097.242676 2.493762
v 2.427052 -1098.196167 1.763356
v 2.427052 -1098.196167 1.763356
v 2.427052 -1098.196167 1.763356
v 2.427052 -1098.196167 1.763356
v 1.256334 -1098.795532 0.912780
v 1.256334 -1098.795532 0.912780
v 1.256334 -1098.795532 0.912780
v 1.256334 -1098.795532 0.912780
v 0.912780 -1087.204468 1.256334
v 0.912780 -1087.204468 1.256334
v 0.912780 -1087.204468 1.256334
v 0.912780 -1087.204468 1.256334
v 1.763356 -1087.803833 2.427052
v 1.763356 -1087.803833 2.427052
v 1.763356 -1087.803833 2.427052
v 1.763356 -1087.803833 2.427052
v 2.493762 -1088.757324 3.432369
v 2.493762 -1088.757324 3.432369
v 2.493762 -1088.757324 3.432369
v 2.493762 -1088.757324 3.432369
v 3.054222 -1090.000000 4.203776
v 3.054222 -1090.000000 4.203776
v 3.054222 -1090.000000 4.203776
v 3.054222 -1090.000000 4.203776
v 3.406542 -1091.447144 4.688704
v 3.406542 -1091.447144 4.688704
v 3.406542 -1091.447144 4.688704
v 3.406542 -1091.447144 4.688704
v 3.526713 -1093.000000 4.854103
v 3.526713 -1093.000000 4.854103
v 3.526713 -1093.000000 4.854103
v 3.526713 -1093.000000 4.854103
v 3.406542 -1094.552856 4.688704
v 3.406542 -1094.552856 4.688704
v 3.406542 -1094.552856 4.688704
v 3.406542 -1094.552856 4.688704
v 3.054222 -1096.000000 4.203776
v 3.054222 -1096.000000 4.203776
v 3.054222 -1096.000000 4.203776
v 3.054222 -1096.000000 4.203776
v 2.493762 -1097.242676 3.432369
v 2.493762 -1097.242676 3.432369
v 2.493762 -1097.242676 3.432369
v 2.493762 -1097.242676 3.432369
v 1.763356 -1098.196167 2.427052
v 1.763356 -1098.196167 2.427052
v 1.763356 -1098.196167 2.427052
v 1.763356 -1098.196167 2.427052
v 0.912780 -1098.795532 1.256334
v 0.912780 -1098.795532 1.256334
v 0.912780 -1098.795532 1.256334
v 0.912780 -1098.795532 1.256334
v 0.479877 -1087.204468 1.476909
v 0.479877 -1087.204468 1.476909
v 0.479877 -1087.204468 1.476909
v 0.479877 -1087.204468 1.476909
v 0.927051 -1087.803833 2.853170
v 0.927051 -1087.803833 2.853170
v 0.927051 -1087.803833 2.853170
v 0.927051 -1087.803833 2.853170
v 1.311048 -1088.757324 4.034992
v 1.311048 -1088.757324 4.034992
v 1.311048 -1088.757324 4.034992
v 1.311048 -1088.757324 4.034992
v 1.605699 -1090.000000 4.941835
v 1.605699 -1090.000000 4.941835
v 1.605699 -1090.000000 4.941835
v 1.605699 -1090.000000 4.941835
v 1.790925 -1091.447144 5.511902
v 1.790925 -1091.447144 5.511902
v 1.790925 -1091.447144 5.511902
v 1.790925 -1091.447144 5.511902
v 1.854103 -1093.000000 5.706341
v 1.854103 -1093.000000 5.706341
v 1.854103 -1093.000000 5.706341
v 1.854103 -1093.000000 5.706341
v 1.790925 -1094.552856 5.511902
v 1.790925 -1094.552856 5.511902
v 1.790925 -1094.552856 5.511902
v 1.790925 -1094.552856 5.511902
v 1.605699 -1096.000000 4.941835
v 1.605699 -1096.000000 4.941835
v 1.605699 -1096.000000 4.941835
v 1.605699 -1096.000000 4.941835
v 1.311048 -1097.242676 4.034992
v 1.311048 -1097.242676 4.034992
v 1.311048 -1097.242676 4.034992
v 1.311048 -1097.242676 4.034992
v 0.927051 -1098.196167 2.853170
v 0.927051 -1098.196167 2.853170
v 0.927051 -1098.196167 2.853170
v 0.927051 -1098.196167 2.853170
v 0.479877 -1098.795532 1.476909
v 0.479877 -1098.795532 1.476909
v 0.479877 -1098.795532 1.476909
v 0.479877 -1098.795532 1.476909
v 0.000000 -1087.204468 1.552915
v 0.000000 -1087.204468 1.552915
v 0.000000 -1087.204468 1.552915
v 0.000000 -1087.204468 1.552915
v 0.000000 -1087.803833 3.000001
v 0.000000 -1087.803833 3.000001
v 0.000000 -1087.803833 3.000001
v 0.000000 -1087.803833 3.000001
v -0.000000 -1088.757324 4.242641
v -0.000000 -1088.757324 4.242641
v -0.000000 -1088.757324 4.242641
v -0.000000 -1088.757324 4.242641
v -0.000000 -1090.000000 5.196153
v -0.000000 -1090.000000 5.196153
v -0.000000 -1090.000000 5.196153
v -0.000000 -1090.000000 5.196153
v -0.000000 -1091.447144 5.795557
v -0.000000 -1091.447144 5.795557
v -0.000000 -1091.447144 5.795557
v -0.000000 -1091.447144 5.795557
v 0.000000 -1093.000000 6.000002
v 0.000000 -1093.000000 6.000002
v 0.000000 -1093.000000 6.000002
v 0.000000 -1093.000000 6.000002
v -0.000000 -1094.552856 5.795557
v -0.000000 -1094.552856 5.795557
v -0.000000 -1094.552856 5.795557
v -0.000000 -1094.552856 5.795557
v -0.000000 -1096.000000 5.196153
v -0.000000 -1096.000000 5.196153
v -0.000000 -1096.000000 5.196153
v -0.000000 -1096.000000 5.196153
v -0.000000 -1097.242676 4.242641
v -0.000000 -1097.242676 4.242641
v -0.000000 -1097.242676 4.242641
v -0.000000 -1097.242676 4.242641
v 0.000000 -1098.196167 3.000001
v 0.000000 -1098.196167 3.000001
v 0.000000 -1098.196167 3.000001
v 0.000000 -1098.196167 3.000001
v 0.000000 -1098.795532 1.552915
v 0.000000 -1098.795532 1.552915
v 0.000000 -1098.795532 1.552915
v 0.000000 -1098.795532 1.552915
v -0.479877 -1087.204468 1.476910
v -0.479877 -1087.204468 1.476910
v -0.479877 -1087.204468 1.476910
v -0.479877 -1087.204468 1.476910
v -0.927051 -1087.803833 2.853171
v -0.927051 -1087.803833 2.853171
v -0.927051 -1087.803833 2.853171
v -0.927051 -1087.803833 2.853171
v -1.311049 -1088.757324 4.034992
v -1.311049 -1088.757324 4.034992
v -1.311049 -1088.757324 4.034992
v -1.311049 -1088.757324 4.034992
v -1.605700 -1090.000000 4.941835
v -1.605700 -1090.000000 4.941835
v -1.605700 -1090.000000 4.941835
v -1.605700 -1090.000000 4.941835
v -1.790926 -1091.447144 5.511902
v -1.790926 -1091.447144 5.511902
v -1.790926 -1091.447144 5.511902
v -1.790926 -1091.447144 5.511902
v -1.854102 -1093.000000 5.706341
v -1.854102 -1093.000000 5.706341
v -1.854102 -1093.000000 5.706341
v -1.854102 -1093.000000 5.706341
v -1.790926 -1094.552856 5.511902
v -1.790926 -1094.552856 5.511902
v -1.790926 -1094.552856 5.511902
v -1.790926 -1094.552856 5.511902
v -1.605700 -1096.000000 4.941835
v -1.605700 -1096.000000 4.941835
v -1.605700 -1096.000000 4.941835
v -1.605700 -1096.000000 4.941835
v -1.311049 -1097.242676 4.034992
v -1.311049 -1097.242676 4.034992
v -1.311049 -1097.242676 4.034992
v -1.311049 -1097.242676 4.034992
v -0.927051 -1098.196167 2.853171
v -0.927051 -1098.196167 2.853171
v -0.927051 -1098.196167 2.853171
v -0.927051 -1098.196167 2.853171
v -0.479877 -1098.795532 1.476910
v -0.479877 -1098.795532 1.476910
v -0.479877 -1098.795532 1.476910
v -0.479877 -1098.795532 1.476910
v -0.912780 -1087.204468 1.256334
v -0.912780 -1087.204468 1.256334
v -0.912780 -1087.204468 1.256334
v -0.912780 -1087.204468 1.256334
v -1.763356 -1087.803833 2.427052
v -1.763356 -1087.803833 2.427052
v -1.763356 -1087.803833 2.427052
v -1.763356 -1087.803833 2.427052
v -2.493762 -1088.757324 3.432369
v -2.493762 -1088.757324 3.432369
v -2.493762 -1088.757324 3.432369
v -2.493762 -1088.757324 3.432369
v -3.054223 -1090.000000 4.203776
v -3.054223 -1090.000000 4.203776
v -3.054223 -1090.000000 4.203776
v -3.054223 -1090.000000 4.203776
v -3.406543 -1091.447144 4.688704
v -3.406543 -1091.447144 4.688704
v -3.406543 -1091.447144 4.688704
v -3.406543 -1091.447144 4.688704
v -3.526712 -1093.000000 4.854104
v -3.526712 -1093.000000 4.854104
v -3.526712 -1093.000000 4.854104
v -3.526712 -1093.000000 4.854104
v -3.406543 -1094.552856 4.688704
v -3.406543 -1094.552856 4.688704
v -3.406543 -1094.552856 4.688704
v -3.406543 -1094.552856 4.688704
v -3.054223 -1096.000000 4.203776
v -3.054223 -1096.000000 4.203776
v -3.054223 -1096.000000 4.203776
v -3.054223 -1096.000000 4.203776
v -2.493762 -1097.242676 3.432369
v -2.493762 -1097.242676 3.432369
v -2.493762 -1097.242676 3.432369
v -2.493762 -1097.242676 3.432369
v -1.763356 -1098.196167 2.427052
v -1.763356 -1098.196167 2.427052
v -1.763356 -1098.196167 2.427052
v -1.763356 -1098.196167 2.427052
v -0.912780 -1098.795532 1.256334
v -0.912780 -1098.795532 1.256334
v -0.912780 -1098.795532 1.256334
v -0.912780 -1098.795532 1.256334
v -1.256334 -1087.204468 0.912780
v -1.256334 -1087.204468 0.912780
v -1.256334 -1087.204468 0.912780
v -1.256334 -1087.204468 0.912780
v -2.427052 -1087.803833 1.763357
v -2.427052 -1087.803833 1.763357
v -2.427052 -1087.803833 1.763357
v -2.427052 -1087.803833 1.763357
v -3.432369 -1088.757324 2.493762
v -3.432369 -1088.757324 2.493762
v -3.432369 -1088.757324 2.493762
v -3.432369 -1088.757324 2.493762
v -4.203777 -1090.000000 3.054222
v -4.203777 -1090.000000 3.054222
v -4.203777 -1090.000000 3.054222
v -4.203777 -1090.000000 3.054222
v -4.688704 -1091.447144 3.406543
v -4.688704 -1091.447144 3.406543
v -4.688704 -1091.447144 3.406543
v -4.688704 -1091.447144 3.406543
v -4.854104 -1093.000000 3.526713
v -4.854104 -1093.000000 3.526713
v -4.854104 -1093.000000 3.526713
v -4.854104 -1093.000000 3.526713
v -4.688704 -1094.552856 3.406543
v -4.688704 -1094.552856 3.406543
v -4.688704 -1094.552856 3.406543
v -4.688704 -1094.552856 3.406543
v -4.203777 -1096.000000 3.054222
v -4.203777 -1096.000000 3.054222
v -4.203777 -1096.000000 3.054222
v -4.203777 -1096.000000 3.054222
v -3.432369 -1097.242676 2.493762
v -3.432369 -1097.242676 2.493762
v -3.432369 -1097.242676 2.493762
v -3.432369 -1097.242676 2.493762
v -2.427052 -1098.196167 1.763357
v -2.427052 -1098.196167 1.763357
v -2.427052 -1098.196167 1.763357
v -2.427052 -1098.196167 1.763357
v -1.256334 -1098.795532 0.912780
v -1.256334 -1098.795532 0.912780
v -1.256334 -1098.795532 0.912780
v -1.256334 -1098.795532 0.912780
v -1.476910 -1087.204468 0.479877
v -1.476910 -1087.204468 0.479877
v -1.476910 -1087.204468 0.479877
v -1.476910 -1087.204468 0.479877
v -2.853171 -1087.803833 0.927052
v -2.853171 -1087.803833 0.927052
v -2.853171 -1087.803833 0.927052
v -2.853171 -1087.803833 0.927052
v -4.034992 -1088.757324 1.311048
v -4.034992 -1088.757324 1.311048
v -4.034992 -1088.757324 1.311048
v -4.034992 -1088.757324 1.311048
v -4.941836 -1090.000000 1.605700
v -4.941836 -1090.000000 1.605700
v -4.941836 -1090.000000 1.605700
v -4.941836 -1090.000000 1.605700
v -5.511903 -1091.447144 1.790925
v -5.511903 -1091.447144 1.790925
v -5.511903 -1091.447144 1.790925
v -5.511903 -1091.447144 1.790925
v -5.706342 -1093.000000 1.854103
v -5.706342 -1093.000000 1.854103
v -5.706342 -1093.000000 1.854103
v -5.706342 -1093.000000 1.854103
v -5.511903 -1094.552856 1.790925
v -5.511903 -1094.552856 1.790925
v -5.511903 -1094.552856 1.790925
v -5.511903 -1094.552856 1.790925
v -4.941836 -1096.000000 1.605700
v -4.941836 -1096.000000 1.605700
v -4.941836 -1096.000000 1.605700
v -4.941836 -1096.000000 1.605700
v -4.034992 -1097.242676 1.311048
v -4.034992 -1097.242676 1.311048
v -4.034992 -1097.242676 1.311048
v -4.034992 -1097.242676 1.311048
v -2.853171 -1098.196167 0.927052
v -2.853171 -1098.196167 0.927052
v -2.853171 -1098.196167 0.927052
v -2.853171 -1098.196167 0.927052
v -1.476910 -1098.795532 0.479877
v -1.476910 -1098.795532 0.479877
v -1.476910 -1098.795532 0.479877
v -1.476910 -1098.795532 0.479877
v -1.552915 -1087.204468 0.000000
v -1.552915 -1087.204468 0.000000
v -1.552915 -1087.204468 0.000000
v -1.552915 -1087.204468 0.000000
v -3.000001 -1087.803833 0.000000
v -3.000001 -1087.803833 0.000000
v -3.000001 -1087.803833 0.000000
v -3.000001 -1087.803833 0.000000
v -4.242642 -1088.757324 -0.000000
v -4.242642 -1088.757324 -0.000000
v -4.242642 -1088.757324 -0.000000
v -4.242642 -1088.757324 -0.000000
v -5.196155 -1090.000000 -0.000000
v -5.196155 -1090.000000 -0.000000
v -5.196155 -1090.000000 -0.000000
v -5.196155 -1090.000000 -0.000000
v -5.795557 -1091.447144 -0.000001
v -5.795557 -1091.447144 -0.000001
v -5.795557 -1091.447144 -0.000001
v -5.795557 -1091.447144 -0.000001
v -6.000003 -1093.000000 0.000000
v -6.000003 -1093.000000 0.000000
v -6.000003 -1093.000000 0.000000
v -6.000003 -1093.000000 0.000000
v -5.795557 -1094.552856 -0.000001
v -5.795557 -1094.552856 -0.000001
v -5.795557 -1094.552856 -0.000001
v -5.795557 -1094.552856 -0.000001
v -5.196155 -1096.000000 -0.000000
v -5.196155 -1096.000000 -0.000000
v -5.196155 -1096.000000 -0.000000
v -5.196155 -1096.000000 -0.000000
v -4.242642 -1097.242676 -0.000000
v -4.242642 -1097.242676 -0.000000
v -4.242642 -1097.242676 -0.000000
v -4.242642 -1097.242676 -0.000000
v -3.000001 -1098.196167 0.000000
v -3.000001 -1098.196167 0.000000
v -3.000001 -1098.196167 0.000000
v -3.000001 -1098.196167 0.000000
v -1.552915 -1098.795532 0.000000
v -1.552915 -1098.795532 0.000000
v -1.552915 -1098.795532 0.000000
v -1.552915 -1098.795532 0.000000
v -1.476910 -1087.204468 -0.479877
v -1.476910 -1087.204468 -0.479877
v -1.476910 -1087.204468 -0.479877
v -1.476910 -1087.204468 -0.479877
v -2.853171 -1087.803833 -0.927051
v -2.853171 -1087.803833 -0.927051
v -2.853171 -1087.803833 -0.927051
v -2.853171 -1087.803833 -0.927051
v -4.034992 -1088.757324 -1.311049
v -4.034992 -1088.757324 -1.311049
v -4.034992 -1088.757324 -1.311049
v -4.034992 -1088.757324 -1.311049
v -4.941837 -1090.000000 -1.605700
v -4.941837 -1090.000000 -1.605700
v -4.941837 -1090.000000 -1.605700
v -4.941837 -1090.000000 -1.605700
v -5.511903 -1091.447144 -1.790926
v -5.511903 -1091.447144 -1.790926
v -5.511903 -1091.447144 -1.790926
v -5.511903 -1091.447144 -1.790926
v -5.706342 -1093.000000 -1.854102
v -5.706342 -1093.000000 -1.854102
v -5.706342 -1093.000000 -1.854102
v -5.706342 -1093.000000 -1.854102
v -5.511903 -1094.552856 -1.790926
v -5.511903 -1094.552856 -1.790926
v -5.511903 -1094.552856 -1.790926
v -5.511903 -1094.552856 -1.790926
v -4.941837 -1096.000000 -1.605700
v -4.941837 -1096.000000 -1.605700
v -4.941837 -1096.000000 -1.605700
v -4.941837 -1096.000000 -1.605700
v -4.034992 -1097.242676 -1.311049
v -4.034992 -1097.242676 -1.311049
v -4.034992 -1097.242676 -1.311049
v -4.034992 -1097.242676 -1.311049
v -2.853171 -1098.196167 -0.927051
v -2.853171 -1098.196167 -0.927051
v -2.853171 -1098.196167 -0.927051
v -2.853171 -1098.196167 -0.927051
v -1.476910 -1098.795532 -0.479877
v -1.476910 -1098.795532 -0.479877
v -1.476910 -1098.795532 -0.479877
v -1.476910 -1098.795532 -0.479877
v -1.256335 -1087.204468 -0.912780
v -1.256335 -1087.204468 -0.912780
v -1.256335 -1087.204468 -0.912780
v -1.256335 -1087.204468 -0.912780
v -2.427052 -1087.803833 -1.763356
v -2.427052 -1087.803833 -1.763356
v -2.427052 -1087.803833 -1.763356
v -2.427052 -1087.803833 -1.763356
v -3.432369 -1088.757324 -2.493763
v -3.432369 -1088.757324 -2.493763
v -3.432369 -1088.757324 -2.493763
v -3.432369 -1088.757324 -2.493763
v -4.203778 -1090.000000 -3.054224
v -4.203778 -1090.000000 -3.054224
v -4.203778 -1090.000000 -3.054224
v -4.203778 -1090.000000 -3.054224
v -4.688704 -1091.447144 -3.406544
v -4.688704 -1091.447144 -3.406544
v -4.688704 -1091.447144 -3.406544
v -4.688704 -1091.447144 -3.406544
v -4.854104 -1093.000000 -3.526713
v -4.854104 -1093.000000 -3.526713
v -4.854104 -1093.000000 -3.526713
v -4.854104 -1093.000000 -3.526713
v -4.688704 -1094.552856 -3.406544
v -4.688704 -1094.552856 -3.406544
v -4.688704 -1094.552856 -3.406544
v -4.688704 -1094.552856 -3.406544
v -4.203778 -1096.000000 -3.054224
v -4.203778 -1096.000000 -3.054224
v -4.203778 -1096.000000 -3.054224
v -4.203778 -1096.000000 -3.054224
v -3.432369 -1097.242676 -2.493763
v -3.432369 -1097.242676 -2.493763
v -3.432369 -1097.242676 -2.493763
v -3.432369 -1097.242676 -2.493763
v -2.427052 -1098.196167 -1.763356
v -2.427052 -1098.196167 -1.763356
v -2.427052 -1098.196167 -1.763356
v -2.427052 -1098.196167 -1.763356
v -1.256335 -1098.795532 -0.912780
v -1.256335 -1098.795532 -0.912780
v -1.256335 -1098.795532 -0.912780
v -1.256335 -1098.795532 -0.912780
v -0.912781 -1087.204468 -1.256335
v -0.912781 -1087.204468 -1.256335
v -0.912781 -1087.204468 -1.256335
v -0.912781 -1087.204468 -1.256335
v -1.763357 -1087.803833 -2.427052
v -1.763357 -1087.803833 -2.427052
v -1.763357 -1087.803833 -2.427052
v -1.763357 -1087.803833 -2.427052
v -2.493762 -1088.757324 -3.432370
v -2.493762 -1088.757324 -3.432370
v -2.493762 -1088.757324 -3.432370
v -2.493762 -1088.757324 -3.432370
v -3.054224 -1090.000000 -4.203778
v -3.054224 -1090.000000 -4.203778
v -3.054224 -1090.000000 -4.203778
v -3.054224 -1090.000000 -4.203778
v -3.406543 -1091.447144 -4.688705
v -3.406543 -1091.447144 -4.688705
v -3.406543 -1091.447144 -4.688705
v -3.406543 -1091.447144 -4.688705
v -3.526713 -1093.000000 -4.854104
v -3.526713 -1093.000000 -4.854104
v -3.526713 -1093.000000 -4.854104
v -3.526713 -1093.000000 -4.854104
v -3.406543 -1094.552856 -4.688705
v -3.406543 -1094.552856 -4.688705
v -3.406543 -1094.552856 -4.688705
v -3.406543 -1094.552856 -4.688705
v -3.054224 -1096.000000 -4.203778
v -3.054224 -1096.000000 -4.203778
v -3.054224 -1096.000000 -4.203778
v -3.054224 -1096.000000 -4.203778
v -2.493762 -1097.242676 -3.432370
v -2.493762 -1097.242676 -3.432370
v -2.493762 -1097.242676 -3.432370
v -2.493762 -1097.242676 -3.432370
v -1.763357 -1098.196167 -2.427052
v -1.763357 -1098.196167 -2.427052
v -1.763357 -1098.196167 -2.427052
v -1.763357 -1098.196167 -2.427052
v -0.912781 -1098.795532 -1.256335
v -0.912781 -1098.795532 -1.256335
v -0.912781 -1098.795532 -1.256335
v -0.912781 -1098.795532 -1.256335
v -0.479877 -1087.204468 -1.476910
v -0.479877 -1087.204468 -1.476910
v -0.479877 -1087.204468 -1.476910
v -0.479877 -1087.204468 -1.476910
v -0.927052 -1087.803833 -2.853171
v -0.927052 -1087.803833 -2.853171
v -0.927052 -1087.803833 -2.853171
v -0.927052 -1087.803833 -2.853171
v -1.311048 -1088.757324 -4.034993
v -1.311048 -1088.757324 -4.034993
v -1.311048 -1088.757324 -4.034993
v -1.311048 -1088.757324 -4.034993
v -1.605700 -1090.000000 -4.941838
v -1.605700 -1090.000000 -4.941838
v -1.605700 -1090.000000 -4.941838
v -1.605700 -1090.000000 -4.941838
v -1.790926 -1091.447144 -5.511904
v -1.790926 -1091.447144 -5.511904
v -1.790926 -1091.447144 -5.511904
v -1.790926 -1091.447144 -5.511904
v -1.854103 -1093.000000 -5.706342
v -1.854103 -1093.000000 -5.706342
v -1.854103 -1093.000000 -5.706342
v -1.854103 -1093.000000 -5.706342
v -1.790926 -1094.552856 -5.511904
v -1.790926 -1094.552856 -5.511904
v -1.790926 -1094.552856 -5.511904
v -1.790926 -1094.552856 -5.511904
v -1.605700 -1096.000000 -4.941838
v -1.605700 -1096.000000 -4.941838
v -1.605700 -1096.000000 -4.941838
v -1.605700 -1096.000000 -4.941838
v -1.311048 -1097.242676 -4.034993
v -1.311048 -1097.242676 -4.034993
v -1.311048 -1097.242676 -4.034993
v -1.311048 -1097.242676 -4.034993
v -0.927052 -1098.196167 -2.853171
v -0.927052 -1098.196167 -2.853171
v -0.927052 -1098.196167 -2.853171
v -0.927052 -1098.196167 -2.853171
v -0.479877 -1098.795532 -1.476910
v -0.479877 -1098.795532 -1.476910
v -0.479877 -1098.795532 -1.476910
v -0.479877 -1098.795532 -1.476910
v -0.000000 -1087.204468 -1.552915
v -0.000000 -1087.204468 -1.552915
v -0.000000 -1087.204468 -1.552915
v -0.000000 -1087.204468 -1.552915
v -0.000000 -1087.803833 -3.000001
v -0.000000 -1087.803833 -3.000001
v -0.000000 -1087.803833 -3.000001
v -0.000000 -1087.803833 -3.000001
v 0.000000 -1090.000000 -5.196156
v 0.000000 -1090.000000 -5.196156
v 0.000000 -1090.000000 -5.196156
v 0.000000 -1090.000000 -5.196156
v -0.000000 -1093.000000 -6.000003
v -0.000000 -1093.000000 -6.000003
v -0.000000 -1093.000000 -6.000003
v -0.000000 -1093.000000 -6.000003
v 0.000000 -1096.000000 -5.196156
v 0.000000 -1096.000000 -5.196156
v 0.000000 -1096.000000 -5.196156
v 0.000000 -1096.000000 -5.196156
v -0.000000 -1098.196167 -3.000001
v -0.000000 -1098.196167 -3.000001
v -0.000000 -1098.196167 -3.000001
v -0.000000 -1098.196167 -3.000001
v -0.000000 -1098.795532 -1.552915
v -0.000000 -1098.795532 -1.552915
v -0.000000 -1098.795532 -1.552915
v -0.000000 -1098.795532 -1.552915
v 0.000000 -1093.000000 -2.550000
v 0.000000 -1093.000000 -2.550000
v 0.000000 -1093.000000 -2.550000
v 0.000000 -1048.000000 -2.550000
v 0.000000 -1048.000000 -2.550000
v 0.000000 -1048.000000 -2.550000
v 0.659989 -1093.000000 -2.463111
v 0.659989 -1093.000000 -2.463111
v 0.659989 -1093.000000 -2.463111
v 0.659989 -1048.000000 -2.463111
v 0.659989 -1048.000000 -2.463111
v 0.659989 -1048.000000 -2.463111
v 1.275000 -1093.000000 -2.208365
v 1.275000 -1093.000000 -2.208365
v 1.275000 -1093.000000 -2.208365
v 1.275000 -1048.000000 -2.208365
v 1.275000 -1048.000000 -2.208365
v 1.275000 -1048.000000 -2.208365
v 1.803122 -1093.000000 -1.803122
v 1.803122 -1093.000000 -1.803122
v 1.803122 -1093.000000 -1.803122
v 1.803122 -1048.000000 -1.803122
v 1.803122 -1048.000000 -1.803122
v 1.803122 -1048.000000 -1.803122
v 2.208365 -1093.000000 -1.275000
v 2.208365 -1093.000000 -1.275000
v 2.208365 -1093.000000 -1.275000
v 2.208365 -1048.000000 -1.275000
v 2.208365 -1048.000000 -1.275000
v 2.208365 -1048.000000 -1.275000
v 2.463111 -1093.000000 -0.659989
v 2.463111 -1093.000000 -0.659989
v 2.463111 -1093.000000 -0.659989
v 2.463111 -1048.000000 -0.659989
v 2.463111 -1048.000000 -0.659989
v 2.463111 -1048.000000 -0.659989
v 2.550000 -1093.000000 0.000000
v 2.550000 -1093.000000 0.000000
v 2.550000 -1093.000000 0.000000
v 2.550000 -1048.000000 0.000000
v 2.550000 -1048.000000 0.000000
v 2.550000 -1048.000000 0.000000
v 2.463111 -1093.000000 0.659989
v 2.463111 -1093.000000 0.659989
v 2.463111 -1093.000000 0.659989
v 2.463111 -1048.000000 0.659989
v 2.463111 -1048.000000 0.659989
v 2.463111 -1048.000000 0.659989
v 2.208365 -1093.000000 1.275000
v 2.208365 -1093.000000 1.275000
v 2.208365 -1093.000000 1.275000
v 2.208365 -1048.000000 1.275000
v 2.208365 -1048.000000 1.275000
v 2.208365 -1048.000000 1.275000
v 1.803122 -1093.000000 1.803122
v 1.803122 -1093.000000 1.803122
v 1.803122 -1093.000000 1.803122
v 1.803122 -1048.000000 1.803122
v 1.803122 -1048.000000 1.803122
v 1.803122 -1048.000000 1.803122
v 1.275000 -1093.000000 2.208365
v 1.275000 -1093.000000 2.208365
v 1.275000 -1093.000000 2.208365
v 1.275000 -1048.000000 2.208365
v 1.275000 -1048.000000 2.208365
v 1.275000 -1048.000000 2.208365
v 0.659989 -1093.000000 2.463111
v 0.659989 -1093.000000 2.463111
v 0.659989 -1093.000000 2.463111
v 0.659989 -1048.000000 2.463111
v 0.659989 -1048.000000 2.463111
v 0.659989 -1048.000000 2.463111
v 0.000000 -1093.000000 2.550000
v 0.000000 -1093.000000 2.550000
v 0.000000 -1093.000000 2.550000
v 0.000000 -1048.000000 2.550000
v 0.000000 -1048.000000 2.550000
v 0.000000 -1048.000000 2.550000
v -0.659989 -1093.000000 2.463111
v -0.659989 -1093.000000 2.463111
v -0.659989 -1093.000000 2.463111
v -0.659989 -1048.000000 2.463111
v -0.659989 -1048.000000 2.463111
v -0.659989 -1048.000000 2.463111
v -1.275000 -1093.000000 2.208365
v -1.275000 -1093.000000 2.208365
v -1.275000 -1093.000000 2.208365
v -1.275000 -1048.000000 2.208365
v -1.275000 -1048.000000 2.208365
v -1.275000 -1048.000000 2.208365
v -1.803122 -1093.000000 1.803122
v -1.803122 -1093.000000 1.803122
v -1.803122 -1093.000000 1.803122
v -1.803122 -1048.000000 1.803122
v -1.803122 -1048.000000 1.803122
v -1.803122 -1048.000000 1.803122
v -2.208365 -1093.000000 1.275000
v -2.208365 -1093.000000 1.275000
v -2.208365 -1093.000000 1.275000
v -2.208365 -1048.000000 1.275000
v -2.208365 -1048.000000 1.275000
v -2.208365 -1048.000000 1.275000
v -2.463111 -1093.000000 0.659989
v -2.463111 -1093.000000 0.659989
v -2.463111 -1093.000000 0.659989
v -2.463111 -1048.000000 0.659989
v -2.463111 -1048.000000 0.659989
v -2.463111 -1048.000000 0.659989
v -2.550000 -1093.000000 0.000000
v -2.550000 -1093.000000 0.000000
v -2.550000 -1093.000000 0.000000
v -2.550000 -1048.000000 0.000000
v -2.550000 -1048.000000 0.000000
v -2.550000 -1048.000000 0.000000
v -2.463111 -1093.000000 -0.659989
v -2.463111 -1093.000000 -0.659989
v -2.463111 -1093.000000 -0.659989
v -2.463111 -1048.000000 -0.659989
v -2.463111 -1048.000000 -0.659989
v -2.463111 -1048.000000 -0.659989
v -2.208365 -1093.000000 -1.275000
v -2.208365 -1093.000000 -1.275000
v -2.208365 -1093.000000 -1.275000
v -2.208365 -1048.000000 -1.275000
v -2.208365 -1048.000000 -1.275000
v -2.208365 -1048.000000 -1.275000
v -1.803122 -1093.000000 -1.803122
v -1.803122 -1093.000000 -1.803122
v -1.803122 -1093.000000 -1.803122
v -1.803122 -1048.000000 -1.803122
v -1.803122 -1048.000000 -1.803122
v -1.803122 -1048.000000 -1.803122
v -1.275000 -1093.000000 -2.208365
v -1.275000 -1093.000000 -2.208365
v -1.275000 -1093.000000 -2.208365
v -1.275000 -1048.000000 -2.208365
v -1.275000 -1048.000000 -2.208365
v -1.275000 -1048.000000 -2.208365
v -0.659989 -1093.000000 -2.463111
v -0.659989 -1093.000000 -2.463111
v -0.659989 -1093.000000 -2.463111
v -0.659989 -1048.000000 -2.463111
v -0.659989 -1048.000000 -2.463111
v -0.659989 -1048.000000 -2.463111
vn 0.1551 -0.1289 -0.9794
vn 0.1247 0.6040 -0.7872
vn 0.0605 -0.9222 -0.3820
vn 0.0207 0.9912 -0.1305
vn 0.1448 -0.3786 -0.9141
vn 0.1448 -0.3787 -0.9141
vn 0.1448 0.3786 -0.9141
vn 0.1448 0.3787 -0.9141
vn 0.0207 -0.9912 -0.1305
vn 0.0605 0.9222 -0.3820
vn 0.1247 -0.6040 -0.7872
vn 0.1551 0.1289 -0.9794
vn 0.0960 0.7897 -0.6060
vn 0.0960 -0.7897 -0.6060
vn 0.4202 0.3787 -0.8247
vn 0.0600 -0.9912 -0.1177
vn 0.1756 0.9222 -0.3446
vn 0.3618 -0.6040 -0.7101
vn 0.4502 0.1289 -0.8836
vn 0.2785 0.7897 -0.5466
vn 0.2785 -0.7897 -0.5466
vn 0.4502 -0.1289 -0.8836
vn 0.3618 0.6040 -0.7101
vn 0.1756 -0.9222 -0.3446
vn 0.0600 0.9912 -0.1177
vn 0.4202 -0.3787 -0.8247
vn 0.5635 0.6040 -0.5635
vn 0.2735 -0.9222 -0.2735
vn 0.0934 0.9912 -0.0934
vn 0.6545 -0.3787 -0.6545
vn 0.6545 0.3787 -0.6545
vn 0.0934 -0.9912 -0.0934
vn 0.2735 0.9222 -0.2735
vn 0.5635 -0.6040 -0.5635
vn 0.7012 0.1289 -0.7012
vn 0.4338 0.7897 -0.4338
vn 0.4338 -0.7897 -0.4338
vn 0.7012 -0.1289 -0.7012
vn 0.8836 0.1289 -0.4502
vn 0.5466 0.7897 -0.2785
vn 0.5466 -0.7897 -0.2785
vn 0.8836 -0.1289 -0.4502
vn 0.7101 0.6040 -0.3618
vn 0.3446 -0.9222 -0.1756
vn 0.1177 0.9912 -0.0600
vn 0.8247 -0.3787 -0.4202
vn 0.8247 0.3787 -0.4202
vn 0.1177 -0.9912 -0.0600
vn 0.3446 0.9222 -0.1756
vn 0.7101 -0.6040 -0.3618
vn 0.9141 0.3787 -0.1448
vn 0.1305 -0.9912 -0.0207
vn 0.3820 0.9222 -0.0605
vn 0.7872 -0.6040 -0.1247
vn 0.9794 0.1289 -0.1551
vn 0.6060 0.7897 -0.0960
vn 0.6060 -0.7897 -0.0960
vn 0.9794 -0.1289 -0.1551
vn 0.7872 0.6040 -0.1247
vn 0.3820 -0.9222 -0.0605
vn 0.1305 0.9912 -0.0207
vn 0.9141 -0.3787 -0.1448
vn 0.9794 -0.1289 0.1551
vn 0.7872 0.6040 0.1247
vn 0.3820 -0.9222 0.0605
vn 0.1305 0.9912 0.0207
vn 0.9141 -0.3787 0.1448
vn 0.9141 0.3787 0.1448
vn 0.1305 -0.9912 0.0207
vn 0.3820 0.9222 0.0605
vn 0.7872 -0.6040 0.1247
vn 0.9794 0.1289 0.1551
vn 0.6060 0.7897 0.0960
vn 0.6060 -0.7897 0.0960
vn 0.8836 0.1289 0.4502
vn 0.5466 0.7897 0.2785
vn 0.5466 -0.7897 0.2785
vn 0.8836 -0.1289 0.4502
vn 0.7101 0.6040 0.3618
vn 0.3446 -0.9222 0.1756
vn 0.1177 0.9912 0.0600
vn 0.8247 -0.3787 0.4202
vn 0.8247 0.3787 0.4202
vn 0.1177 -0.9912 0.0600
vn 0.3446 0.9222 0.1756
vn 0.7101 -0.6040 0.3618
vn 0.6545 -0.3787 0.6545
vn 0.6545 0.3787 0.6545
vn 0.0934 -0.9912 0.0934
vn 0.2735 0.9222 0.2735
vn 0.5635 -0.6040 0.5635
vn 0.7012 0.1289 0.7012
vn 0.4338 0.7897 0.4338
vn 0.4338 -0.7897 0.4338
vn 0.7012 -0.1289 0.7012
vn 0.5635 0.6040 0.5635
vn 0.2735 -0.9222 0.2735
vn 0.0934 0.9912 0.0934
vn 0.4502 -0.1289 0.8836
vn 0.3618 0.6040 0.7101
vn 0.1756 -0.9222 0.3446
vn 0.0600 0.9912 0.1177
vn 0.4202 -0.3787 0.8247
vn 0.4202 0.3787 0.8247
vn 0.0600 -0.9912 0.1177
vn 0.1756 0.9222 0.3446
vn 0.3618 -0.6040 0.7101
vn 0.4502 0.1289 0.8836
vn 0.2785 0.7897 0.5466
vn 0.2785 -0.7897 0.5466
vn 0.1247 -0.6040 0.7872
vn 0.1551 0.1289 0.9794
vn 0.0960 0.7897 0.6060
vn 0.0960 -0.7897 0.6060
vn 0.1551 -0.1289 0.9794
vn 0.1247 0.6040 0.7872
vn 0.0605 -0.9222 0.3820
vn 0.0207 0.9912 0.1305
vn 0.1448 -0.3787 0.9141
vn 0.1448 0.3787 0.9141
vn 0.0207 -0.9912 0.1305
vn 0.0605 0.9222 0.3820
vn -0.0207 0.9912 0.1305
vn -0.1448 -0.3787 0.9141
vn -0.1448 0.3787 0.9141
vn -0.0207 -0.9912 0.1305
vn -0.0605 0.9222 0.3820
vn -0.1247 -0.6040 0.7872
vn -0.1551 0.1289 0.9794
vn -0.0960 0.7897 0.6060
vn -0.0960 -0.7897 0.6060
vn -0.1551 -0.1289 0.9794
vn -0.1247 0.6040 0.7872
vn -0.0605 -0.9222 0.3820
vn -0.2785 -0.7897 0.5466
vn -0.4502 -0.1289 0.8836
vn -0.3618 0.6040 0.7101
vn -0.1756 -0.9222 0.3446
vn -0.0600 0.9912 0.1177
vn -0.4202 -0.3787 0.8247
vn -0.4202 0.3787 0.8247
vn -0.0600 -0.9912 0.1177
vn -0.1756 0.9222 0.3446
vn -0.3618 -0.6040 0.7101
vn -0.4502 0.1289 0.8836
vn -0.2785 0.7897 0.5466
vn -0.2735 0.9222 0.2735
vn -0.5635 -0.6040 0.5635
vn -0.7012 0.1289 0.7012
vn -0.4338 0.7897 0.4338
vn -0.4338 -0.7897 0.4338
vn -0.7012 -0.1289 0.7012
vn -0.5635 0.6040 0.5635
vn -0.2735 -0.9222 0.2735
vn -0.0934 0.9912 0.0934
vn -0.6545 -0.3787 0.6545
vn -0.6545 0.3787 0.6545
vn -0.0934 -0.9912 0.0934
vn -0.3446 -0.9222 0.1756
vn -0.1177 0.9912 0.0600
vn -0.8247 -0.3787 0.4202
vn -0.8247 0.3787 0.4202
vn -0.1177 -0.9912 0.0600
vn -0.3446 0.9222 0.1756
vn -0.7101 -0.6040 0.3618
vn -0.8836 0.1289 0.4502
vn -0.5466 0.7897 0.2785
vn -0.5466 -0.7897 0.2785
vn -0.8836 -0.1289 0.4502
vn -0.7101 0.6040 0.3618
vn -0.6060 0.7897 0.0960
vn -0.6060 -0.7897 0.0960
vn -0.9794 -0.1289 0.1551
vn -0.7872 0.6040 0.1247
vn -0.3820 -0.9222 0.0605
vn -0.1305 0.9912 0.0207
vn -0.9141 -0.3787 0.1448
vn -0.9141 0.3787 0.1448
vn -0.1305 -0.9912 0.0207
vn -0.3820 0.9222 0.0605
vn -0.7872 -0.6040 0.1247
vn -0.9794 0.1289 0.1551
vn -0.1305 -0.9912 -0.0207
vn -0.3820 0.9222 -0.0605
vn -0.7872 -0.6040 -0.1247
vn -0.9794 0.1289 -0.1551
vn -0.6060 0.7897 -0.0960
vn -0.6060 -0.7897 -0.0960
vn -0.9794 -0.1289 -0.1551
vn -0.7872 0.6040 -0.1247
vn -0.3820 -0.9222 -0.0605
vn -0.1305 0.9912 -0.0207
vn -0.9141 -0.3787 -0.1448
vn -0.9141 0.3787 -0.1448
vn -0.7101 0.6040 -0.3618
vn -0.3446 -0.9222 -0.1756
vn -0.1177 0.9912 -0.0600
vn -0.8247 -0.3787 -0.4202
vn -0.8247 0.3787 -0.4202
vn -0.1177 -0.9912 -0.0600
vn -0.3446 0.9222 -0.1756
vn -0.7101 -0.6040 -0.3618
vn -0.8836 0.1289 -0.4502
vn -0.5466 0.7897 -0.2785
vn -0.5466 -0.7897 -0.2785
vn -0.8836 -0.1289 -0.4502
vn -0.4338 0.7897 -0.4338
vn -0.4338 -0.7897 -0.4338
vn -0.7012 -0.1289 -0.7012
vn -0.5635 0.6040 -0.5635
vn -0.2735 -0.9222 -0.2735
vn -0.0934 0.9912 -0.0934
vn -0.6545 -0.3787 -0.6545
vn -0.6545 0.3787 -0.6545
vn -0.0934 -0.9912 -0.0934
vn -0.2735 0.9222 -0.2735
vn -0.5635 -0.6040 -0.5635
vn -0.7012 0.1289 -0.7012
vn -0.4202 0.3787 -0.8247
vn -0.0600 -0.9912 -0.1177
vn -0.1756 0.9222 -0.3446
vn -0.3618 -0.6040 -0.7101
vn -0.4502 0.1289 -0.8836
vn -0.2785 0.7897 -0.5466
vn -0.2785 -0.7897 -0.5466
vn -0.4502 -0.1289 -0.8836
vn -0.3618 0.6040 -0.7101
vn -0.1756 -0.9222 -0.3446
vn -0.0600 0.9912 -0.1177
vn -0.4202 -0.3787 -0.8247
vn -0.1247 0.6040 -0.7872
vn -0.0605 -0.9222 -0.3820
vn -0.0207 0.9912 -0.1305
vn -0.1448 -0.3787 -0.9141
vn -0.1448 -0.3786 -0.9141
vn -0.1448 0.3787 -0.9141
vn -0.1448 0.3786 -0.9141
vn -0.0207 -0.9912 -0.1305
vn -0.0605 0.9222 -0.3820
vn -0.1247 -0.6040 -0.7872
vn -0.1551 0.1289 -0.9794
vn -0.0960 0.7897 -0.6060
vn -0.0960 -0.7897 -0.6060
vn -0.1551 -0.1289 -0.9794
vn 0.1305 -0.0000 -0.9914
vn 0.3827 -0.0000 -0.9239
vn 0.6088 -0.0000 -0.7934
vn 0.7934 -0.0000 -0.6088
vn 0.9239 -0.0000 -0.3827
vn 0.9914 -0.0000 -0.1305
vn 0.9914 -0.0000 0.1305
vn 0.9239 -0.0000 0.3827
vn 0.7934 -0.0000 0.6088
vn 0.6088 -0.0000 0.7934
vn 0.3827 -0.0000 0.9239
vn 0.1305 -0.0000 0.9914
vn -0.1305 -0.0000 0.9914
vn -0.3827 -0.0000 0.9239
vn -0.6088 -0.0000 0.7934
vn -0.7934 -0.0000 0.6088
vn -0.9239 -0.0000 0.3827
vn -0.9914 -0.0000 0.1305
vn -0.9914 -0.0000 -0.1305
vn -0.9239 -0.0000 -0.3827
vn -0.7934 -0.0000 -0.6088
vn -0.6088 -0.0000 -0.7934
vn -0.0000 1.0000 -0.0000
vn -0.3827 -0.0000 -0.9239
vn -0.1305 -0.0000 -0.9914
vn -0.0000 -1.0000 -0.0000
vt 0.750000 0.416667
vt 0.750000 0.500000
vt 0.700000 0.500000
vt 0.700000 0.416667
vt 0.750000 0.666667
vt 0.750000 0.750000
vt 0.700000 0.750000
vt 0.700000 0.666667
vt 0.750000 0.083333
vt 0.750000 0.166667
vt 0.700000 0.166667
vt 0.700000 0.083333
vt 0.750000 0.916667
vt 0.725000 1.000000
vt 0.700000 0.916667
vt 0.750000 0.333333
vt 0.700000 0.333333
vt 0.750000 0.583333
vt 0.700000 0.583333
vt 0.725000 0.000000
vt 0.750000 0.833333
vt 0.700000 0.833333
vt 0.750000 0.250000
vt 0.700000 0.250000
vt 0.650000 0.666667
vt 0.650000 0.583333
vt 0.675000 0.000000
vt 0.650000 0.083333
vt 0.650000 0.916667
vt 0.650000 0.833333
vt 0.650000 0.333333
vt 0.650000 0.250000
vt 0.650000 0.500000
vt 0.650000 0.750000
vt 0.650000 0.166667
vt 0.650000 0.416667
vt 0.675000 1.000000
vt 0.600000 0.750000
vt 0.600000 0.666667
vt 0.600000 0.166667
vt 0.600000 0.083333
vt 0.625000 1.000000
vt 0.600000 0.916667
vt 0.600000 0.416667
vt 0.600000 0.333333
vt 0.600000 0.583333
vt 0.625000 0.000000
vt 0.600000 0.833333
vt 0.600000 0.250000
vt 0.600000 0.500000
vt 0.550000 0.583333
vt 0.550000 0.500000
vt 0.550000 0.833333
vt 0.550000 0.750000
vt 0.550000 0.250000
vt 0.550000 0.166667
vt 0.550000 0.416667
vt 0.550000 0.666667
vt 0.550000 0.083333
vt 0.575000 1.000000
vt 0.550000 0.916667
vt 0.550000 0.333333
vt 0.575000 0.000000
vt 0.500000 0.666667
vt 0.500000 0.583333
vt 0.525000 0.000000
vt 0.500000 0.083333
vt 0.500000 0.916667
vt 0.500000 0.833333
vt 0.500000 0.333333
vt 0.500000 0.250000
vt 0.500000 0.500000
vt 0.500000 0.750000
vt 0.500000 0.166667
vt 0.500000 0.416667
vt 0.525000 1.000000
vt 0.450000 0.500000
vt 0.450000 0.416667
vt 0.450000 0.750000
vt 0.450000 0.666667
vt 0.450000 0.166667
vt 0.450000 0.083333
vt 0.475000 1.000000
vt 0.450000 0.916667
vt 0.450000 0.333333
vt 0.450000 0.583333
vt 0.475000 0.000000
vt 0.450000 0.833333
vt 0.450000 0.250000
vt 0.400000 0.583333
vt 0.400000 0.500000
vt 0.400000 0.833333
vt 0.400000 0.750000
vt 0.400000 0.250000
vt 0.400000 0.166667
vt 0.400000 0.416667
vt 0.400000 0.666667
vt 0.400000 0.083333
vt 0.425000 1.000000
vt 0.400000 0.916667
vt 0.400000 0.333333
vt 0.425000 0.000000
vt 0.350000 0.416667
vt 0.350000 0.333333
vt 0.350000 0.666667
vt 0.350000 0.583333
vt 0.375000 0.000000
vt 0.350000 0.083333
vt 0.350000 0.916667
vt 0.350000 0.833333
vt 0.350000 0.250000
vt 0.350000 0.500000
vt 0.350000 0.750000
vt 0.350000 0.166667
vt 0.375000 1.000000
vt 0.300000 0.500000
vt 0.300000 0.416667
vt 0.300000 0.750000
vt 0.300000 0.666667
vt 0.300000 0.166667
vt 0.300000 0.083333
vt 0.325000 1.000000
vt 0.300000 0.916667
vt 0.300000 0.333333
vt 0.300000 0.583333
vt 0.325000 0.000000
vt 0.300000 0.833333
vt 0.300000 0.250000
vt 0.250000 0.333333
vt 0.250000 0.250000
vt 0.250000 0.583333
vt 0.250000 0.500000
vt 0.250000 0.833333
vt 0.250000 0.750000
vt 0.250000 0.166667
vt 0.250000 0.416667
vt 0.250000 0.666667
vt 0.250000 0.083333
vt 0.275000 1.000000
vt 0.250000 0.916667
vt 0.275000 0.000000
vt 0.225000 1.000000
vt 0.200000 0.916667
vt 0.200000 0.416667
vt 0.200000 0.333333
vt 0.200000 0.666667
vt 0.200000 0.583333
vt 0.225000 0.000000
vt 0.200000 0.083333
vt 0.200000 0.833333
vt 0.200000 0.250000
vt 0.200000 0.500000
vt 0.200000 0.750000
vt 0.200000 0.166667
vt 0.150000 0.250000
vt 0.150000 0.166667
vt 0.150000 0.500000
vt 0.150000 0.416667
vt 0.150000 0.750000
vt 0.150000 0.666667
vt 0.150000 0.083333
vt 0.175000 1.000000
vt 0.150000 0.916667
vt 0.150000 0.333333
vt 0.150000 0.583333
vt 0.175000 0.000000
vt 0.150000 0.833333
vt 0.100000 0.916667
vt 0.100000 0.833333
vt 0.100000 0.333333
vt 0.100000 0.250000
vt 0.100000 0.583333
vt 0.100000 0.500000
vt 0.100000 0.750000
vt 0.100000 0.166667
vt 0.100000 0.416667
vt 0.100000 0.666667
vt 0.100000 0.083333
vt 0.125000 1.000000
vt 0.125000 0.000000
vt 0.050000 0.166667
vt 0.050000 0.083333
vt 0.075000 1.000000
vt 0.050000 0.916667
vt 0.050000 0.416667
vt 0.050000 0.333333
vt 0.050000 0.666667
vt 0.050000 0.583333
vt 0.075000 0.000000
vt 0.050000 0.833333
vt 0.050000 0.250000
vt 0.050000 0.500000
vt 0.050000 0.750000
vt 0.000000 0.833333
vt 0.000000 0.750000
vt 0.000000 0.250000
vt 0.000000 0.166667
vt 0.000000 0.500000
vt 0.000000 0.416667
vt 0.000000 0.666667
vt 0.000000 0.083333
vt 0.025000 1.000000
vt 0.000000 0.916667
vt 0.000000 0.333333
vt 0.000000 0.583333
vt 0.025000 0.000000
vt 0.975000 0.000000
vt 1.000000 0.083333
vt 0.950000 0.083333
vt 1.000000 0.833333
vt 1.000000 0.916667
vt 0.950000 0.916667
vt 0.950000 0.833333
vt 1.000000 0.250000
vt 1.000000 0.333333
vt 0.950000 0.333333
vt 0.950000 0.250000
vt 1.000000 0.500000
vt 1.000000 0.583333
vt 0.950000 0.583333
vt 0.950000 0.500000
vt 1.000000 0.750000
vt 0.950000 0.750000
vt 1.000000 0.166667
vt 0.950000 0.166667
vt 1.000000 0.416667
vt 0.950000 0.416667
vt 1.000000 0.666667
vt 0.950000 0.666667
vt 0.975000 1.000000
vt 0.900000 0.750000
vt 0.900000 0.666667
vt 0.900000 0.166667
vt 0.900000 0.083333
vt 0.925000 1.000000
vt 0.900000 0.916667
vt 0.900000 0.416667
vt 0.900000 0.333333
vt 0.900000 0.583333
vt 0.925000 0.000000
vt 0.900000 0.833333
vt 0.900000 0.250000
vt 0.900000 0.500000
vt 0.850000 0.833333
vt 0.850000 0.750000
vt 0.850000 0.250000
vt 0.850000 0.166667
vt 0.850000 0.500000
vt 0.850000 0.416667
vt 0.850000 0.666667
vt 0.850000 0.083333
vt 0.875000 1.000000
vt 0.850000 0.916667
vt 0.850000 0.333333
vt 0.850000 0.583333
vt 0.875000 0.000000
vt 0.800000 0.666667
vt 0.800000 0.583333
vt 0.825000 0.000000
vt 0.800000 0.083333
vt 0.800000 0.916667
vt 0.800000 0.833333
vt 0.800000 0.333333
vt 0.800000 0.250000
vt 0.800000 0.500000
vt 0.800000 0.750000
vt 0.800000 0.166667
vt 0.800000 0.416667
vt 0.825000 1.000000
vt 0.775000 1.000000
vt 0.775000 0.000000
vt 1.000000 1.000000
vt 0.958333 1.000000
vt 0.958333 0.500000
vt 0.916667 1.000000
vt 0.916667 0.500000
vt 0.875000 1.000000
vt 0.875000 0.500000
vt 0.833333 1.000000
vt 0.833333 0.500000
vt 0.791667 1.000000
vt 0.791667 0.500000
vt 0.750000 1.000000
vt 0.750000 0.500000
vt 0.708333 1.000000
vt 0.708333 0.500000
vt 0.666667 1.000000
vt 0.666667 0.500000
vt 0.625000 1.000000
vt 0.625000 0.500000
vt 0.583333 1.000000
vt 0.583333 0.500000
vt 0.541666 1.000000
vt 0.541666 0.500000
vt 0.500000 1.000000
vt 0.500000 0.500000
vt 0.458333 1.000000
vt 0.458333 0.500000
vt 0.416666 1.000000
vt 0.416666 0.500000
vt 0.375000 1.000000
vt 0.375000 0.500000
vt 0.333333 1.000000
vt 0.333333 0.500000
vt 0.291667 1.000000
vt 0.291667 0.500000
vt 0.250000 1.000000
vt 0.250000 0.500000
vt 0.208333 1.000000
vt 0.208333 0.500000
vt 0.166666 1.000000
vt 0.166666 0.500000
vt 0.125000 1.000000
vt 0.125000 0.500000
vt 0.083333 1.000000
vt 0.083333 0.500000
vt 0.370000 0.457846
vt 0.312117 0.481822
vt 0.250000 0.490000
vt 0.187883 0.481822
vt 0.130000 0.457846
vt 0.080294 0.419706
vt 0.042154 0.370000
vt 0.018178 0.312117
vt 0.010000 0.250000
vt 0.018178 0.187883
vt 0.042154 0.130000
vt 0.080294 0.080294
vt 0.130000 0.042154
vt 0.187883 0.018178
vt 0.250000 0.010000
vt 0.312117 0.018178
vt 0.370000 0.042154
vt 0.419706 0.080294
vt 0.457846 0.130000
vt 0.481822 0.187883
vt 0.490000 0.250000
vt 0.481822 0.312117
vt 0.457846 0.370000
vt 0.419706 0.419706
vt 0.041666 1.000000
vt 0.041666 0.500000
vt -0.000000 1.000000
vt -0.000000 0.500000
vt 0.687883 0.481822
vt 0.750000 0.490000
vt 0.812117 0.481822
vt 0.870000 0.457846
vt 0.919706 0.419706
vt 0.957846 0.370000
vt 0.981822 0.312117
vt 0.990000 0.250000
vt 0.981822 0.187883
vt 0.957846 0.130000
vt 0.919706 0.080294
vt 0.870000 0.042154
vt 0.812117 0.018178
vt 0.750000 0.010000
vt 0.687883 0.018178
vt 0.630000 0.042154
vt 0.580294 0.080294
vt 0.542154 0.130000
vt 0.518178 0.187883
vt 0.510000 0.250000
vt 0.518178 0.312117
vt 0.542154 0.370000
vt 0.580294 0.419706
vt 0.630000 0.457846
s 0
usemtl M_Dark
f 30/1/1 906/2/1 78/3/1
s 1
f 30/1/1 78/3/1 82/4/1
s 0
f 901/5/2 22/6/2 66/7/2
f 901/5/2 66/7/2 69/8/2
f 918/9/3 913/10/3 93/11/3
f 918/9/3 93/11/3 99/12/3
f 893/13/4 2/14/4 57/15/4
f 910/16/5 29/1/5 81/4/5
f 910/16/6 81/4/6 86/17/6
f 25/18/7 902/5/7 70/8/7
f 25/18/8 70/8/8 73/19/8
f 38/20/9 917/9/9 97/12/9
f 897/21/10 894/13/10 59/15/10
f 897/21/10 59/15/10 61/22/10
f 34/23/11 909/16/11 85/17/11
f 34/23/11 85/17/11 90/24/11
f 905/2/12 26/18/12 74/19/12
f 905/2/12 74/19/12 77/3/12
f 21/6/13 898/21/13 62/22/13
f 21/6/13 62/22/13 65/7/13
f 914/10/14 33/23/14 89/24/14
f 914/10/14 89/24/14 94/11/14
f 75/19/15 72/8/15 114/25/15
f 75/19/15 114/25/15 117/26/15
f 40/27/16 98/12/16 141/28/16
s 1
f 63/22/17 60/15/17 103/29/17
s 0
f 63/22/17 103/29/17 105/30/17
f 92/24/18 87/17/18 129/31/18
f 92/24/18 129/31/18 134/32/18
f 79/3/19 76/19/19 118/26/19
f 79/3/19 118/26/19 121/33/19
f 67/7/20 64/22/20 107/30/20
f 67/7/20 107/30/20 109/34/20
f 96/11/21 91/24/21 133/32/21
f 96/11/21 133/32/21 139/35/21
f 84/4/22 80/3/22 122/33/22
f 84/4/22 122/33/22 126/36/22
f 71/8/23 68/7/23 110/34/23
f 71/8/23 110/34/23 113/25/23
s 1
f 100/12/24 95/11/24 137/35/24
s 0
f 100/12/24 137/35/24 143/28/24
f 58/15/25 4/37/25 101/29/25
f 88/17/26 83/4/26 125/36/26
f 88/17/26 125/36/26 130/31/26
f 115/25/27 112/34/27 155/38/27
s 1
f 115/25/27 155/38/27 157/39/27
s 0
f 144/28/28 138/35/28 181/40/28
s 1
f 144/28/28 181/40/28 187/41/28
s 0
f 102/29/29 6/42/29 145/43/29
s 1
f 132/31/30 127/36/30 169/44/30
s 0
f 132/31/30 169/44/30 174/45/30
f 119/26/31 116/25/31 158/39/31
f 119/26/31 158/39/31 161/46/31
f 42/47/32 142/28/32 185/41/32
s 1
f 106/30/33 104/29/33 147/43/33
s 0
f 106/30/33 147/43/33 149/48/33
f 136/32/34 131/31/34 173/45/34
f 136/32/34 173/45/34 179/49/34
f 123/33/35 120/26/35 162/46/35
f 123/33/35 162/46/35 165/50/35
f 111/34/36 108/30/36 151/48/36
f 111/34/36 151/48/36 153/38/36
f 140/35/37 135/32/37 177/49/37
f 140/35/37 177/49/37 183/40/37
f 128/36/38 124/33/38 166/50/38
f 128/36/38 166/50/38 170/44/38
f 167/50/39 164/46/39 206/51/39
f 167/50/39 206/51/39 209/52/39
f 154/38/40 152/48/40 195/53/40
f 154/38/40 195/53/40 197/54/40
s 1
f 184/40/41 178/49/41 221/55/41
f 184/40/41 221/55/41 227/56/41
s 0
f 172/44/42 168/50/42 210/52/42
f 172/44/42 210/52/42 214/57/42
f 159/39/43 156/38/43 199/54/43
f 159/39/43 199/54/43 201/58/43
f 188/41/44 182/40/44 225/56/44
f 188/41/44 225/56/44 231/59/44
f 146/43/45 8/60/45 189/61/45
f 176/45/46 171/44/46 213/57/46
f 176/45/46 213/57/46 219/62/46
f 163/46/47 160/39/47 203/58/47
f 163/46/47 203/58/47 205/51/47
f 44/63/48 186/41/48 229/59/48
f 150/48/49 148/43/49 191/61/49
f 150/48/49 191/61/49 193/53/49
f 180/49/50 175/45/50 217/62/50
s 1
f 180/49/50 217/62/50 223/55/50
s 0
f 207/51/51 204/58/51 248/64/51
f 207/51/51 248/64/51 250/65/51
f 46/66/52 230/59/52 274/67/52
f 194/53/53 192/61/53 236/68/53
f 194/53/53 236/68/53 238/69/53
f 224/55/54 218/62/54 262/70/54
f 224/55/54 262/70/54 268/71/54
s 1
f 211/52/55 208/51/55 252/65/55
s 0
f 211/52/55 252/65/55 254/72/55
f 198/54/56 196/53/56 240/69/56
f 198/54/56 240/69/56 242/73/56
f 228/56/57 222/55/57 266/71/57
f 228/56/57 266/71/57 272/74/57
f 216/57/58 212/52/58 256/72/58
f 216/57/58 256/72/58 260/75/58
f 202/58/59 200/54/59 244/73/59
f 202/58/59 244/73/59 246/64/59
s 1
f 232/59/60 226/56/60 270/74/60
s 0
f 232/59/60 270/74/60 276/67/60
f 190/61/61 10/76/61 234/68/61
f 220/62/62 215/57/62 258/75/62
f 220/62/62 258/75/62 264/70/62
f 259/75/63 255/72/63 300/77/63
s 1
f 259/75/63 300/77/63 304/78/63
s 0
f 245/64/64 243/73/64 288/79/64
f 245/64/64 288/79/64 290/80/64
f 275/67/65 269/74/65 314/81/65
s 1
f 275/67/65 314/81/65 320/82/65
s 0
f 233/68/66 9/83/66 278/84/66
f 263/70/67 257/75/67 303/78/67
f 263/70/67 303/78/67 308/85/67
f 249/65/68 247/64/68 292/80/68
f 249/65/68 292/80/68 295/86/68
f 45/87/69 273/67/69 318/82/69
f 237/69/70 235/68/70 280/84/70
f 237/69/70 280/84/70 282/88/70
f 267/71/71 261/70/71 306/85/71
f 267/71/71 306/85/71 312/89/71
f 253/72/72 251/65/72 296/86/72
f 253/72/72 296/86/72 299/77/72
f 241/73/73 239/69/73 284/88/73
f 241/73/73 284/88/73 286/79/73
f 271/74/74 265/71/74 310/89/74
f 271/74/74 310/89/74 316/81/74
f 297/77/75 294/86/75 340/90/75
f 297/77/75 340/90/75 343/91/75
f 285/79/76 283/88/76 328/92/76
f 285/79/76 328/92/76 330/93/76
f 315/81/77 309/89/77 354/94/77
f 315/81/77 354/94/77 360/95/77
f 302/78/78 298/77/78 344/91/78
f 302/78/78 344/91/78 348/96/78
f 289/80/79 287/79/79 332/93/79
f 289/80/79 332/93/79 335/97/79
f 319/82/80 313/81/80 358/95/80
f 319/82/80 358/95/80 364/98/80
f 277/84/81 7/99/81 322/100/81
f 307/85/82 301/78/82 347/96/82
f 307/85/82 347/96/82 352/101/82
f 293/86/83 291/80/83 336/97/83
f 293/86/83 336/97/83 339/90/83
f 43/102/84 317/82/84 362/98/84
f 281/88/85 279/84/85 324/100/85
f 281/88/85 324/100/85 326/92/85
f 311/89/86 305/85/86 351/101/86
f 311/89/86 351/101/86 356/94/86
f 350/101/87 345/96/87 391/103/87
f 350/101/87 391/103/87 396/104/87
f 337/90/88 334/97/88 380/105/88
f 337/90/88 380/105/88 383/106/88
f 41/107/89 361/98/89 406/108/89
f 325/92/90 323/100/90 368/109/90
f 325/92/90 368/109/90 370/110/90
f 355/94/91 349/101/91 395/104/91
f 355/94/91 395/104/91 400/111/91
f 341/91/92 338/90/92 384/106/92
f 341/91/92 384/106/92 387/112/92
f 329/93/93 327/92/93 372/110/93
f 329/93/93 372/110/93 375/113/93
f 359/95/94 353/94/94 399/111/94
f 359/95/94 399/111/94 404/114/94
f 346/96/95 342/91/95 388/112/95
f 346/96/95 388/112/95 392/103/95
f 333/97/96 331/93/96 376/113/96
f 333/97/96 376/113/96 379/105/96
f 363/98/97 357/95/97 402/114/97
f 363/98/97 402/114/97 408/108/97
f 321/100/98 5/115/98 366/109/98
f 390/103/99 386/112/99 432/116/99
f 390/103/99 432/116/99 436/117/99
f 377/105/100 374/113/100 420/118/100
f 377/105/100 420/118/100 423/119/100
f 407/108/101 401/114/101 447/120/101
f 407/108/101 447/120/101 452/121/101
f 365/109/102 3/122/102 410/123/102
f 394/104/103 389/103/103 435/117/103
f 394/104/103 435/117/103 440/124/103
f 381/106/104 378/105/104 424/119/104
f 381/106/104 424/119/104 427/125/104
f 39/126/105 405/108/105 450/121/105
s 1
f 369/110/106 367/109/106 412/123/106
s 0
f 369/110/106 412/123/106 415/127/106
f 398/111/107 393/104/107 439/124/107
f 398/111/107 439/124/107 444/128/107
f 385/112/108 382/106/108 428/125/108
f 385/112/108 428/125/108 431/116/108
f 373/113/109 371/110/109 416/127/109
f 373/113/109 416/127/109 419/118/109
f 403/114/110 397/111/110 443/128/110
f 403/114/110 443/128/110 448/120/110
f 442/128/111 437/124/111 481/129/111
f 442/128/111 481/129/111 486/130/111
s 1
f 429/116/112 426/125/112 470/131/112
s 0
f 429/116/112 470/131/112 473/132/112
f 417/118/113 414/127/113 458/133/113
f 417/118/113 458/133/113 461/134/113
f 446/120/114 441/128/114 485/130/114
f 446/120/114 485/130/114 490/135/114
f 434/117/115 430/116/115 474/132/115
f 434/117/115 474/132/115 478/136/115
f 421/119/116 418/118/116 462/134/116
f 421/119/116 462/134/116 465/137/116
f 451/121/117 445/120/117 489/135/117
f 451/121/117 489/135/117 494/138/117
f 409/123/118 1/139/118 453/140/118
f 438/124/119 433/117/119 477/136/119
f 438/124/119 477/136/119 482/129/119
f 425/125/120 422/119/120 466/137/120
f 425/125/120 466/137/120 469/131/120
f 37/141/121 449/121/121 493/138/121
f 413/127/122 411/123/122 454/140/122
f 413/127/122 454/140/122 457/133/122
f 455/140/123 11/142/123 497/143/123
f 484/129/124 479/136/124 521/144/124
f 484/129/124 521/144/124 526/145/124
f 471/131/125 468/137/125 510/146/125
f 471/131/125 510/146/125 513/147/125
f 47/148/126 495/138/126 537/149/126
f 459/133/127 456/140/127 499/143/127
f 459/133/127 499/143/127 501/150/127
f 488/130/128 483/129/128 525/145/128
f 488/130/128 525/145/128 530/151/128
s 1
f 475/132/129 472/131/129 514/147/129
s 0
f 475/132/129 514/147/129 517/152/129
f 463/134/130 460/133/130 502/150/130
f 463/134/130 502/150/130 505/153/130
f 492/135/131 487/130/131 529/151/131
f 492/135/131 529/151/131 534/154/131
f 480/136/132 476/132/132 518/152/132
s 1
f 480/136/132 518/152/132 522/144/132
s 0
f 467/137/133 464/134/133 506/153/133
f 467/137/133 506/153/133 509/146/133
f 496/138/134 491/135/134 533/154/134
f 496/138/134 533/154/134 539/149/134
f 536/154/135 531/151/135 573/155/135
f 536/154/135 573/155/135 579/156/135
f 524/144/136 520/152/136 562/157/136
f 524/144/136 562/157/136 566/158/136
f 511/146/137 508/153/137 550/159/137
f 511/146/137 550/159/137 553/160/137
f 540/149/138 535/154/138 577/156/138
f 540/149/138 577/156/138 583/161/138
f 498/143/139 13/162/139 541/163/139
f 528/145/140 523/144/140 565/158/140
f 528/145/140 565/158/140 570/164/140
f 515/147/141 512/146/141 554/160/141
f 515/147/141 554/160/141 557/165/141
f 49/166/142 538/149/142 581/161/142
f 503/150/143 500/143/143 543/163/143
f 503/150/143 543/163/143 545/167/143
f 532/151/144 527/145/144 569/164/144
f 532/151/144 569/164/144 574/155/144
s 1
f 519/152/145 516/147/145 558/165/145
s 0
f 519/152/145 558/165/145 561/157/145
f 507/153/146 504/150/146 547/167/146
f 507/153/146 547/167/146 549/159/146
f 546/167/147 544/163/147 587/168/147
f 546/167/147 587/168/147 589/169/147
s 1
f 576/155/148 571/164/148 613/170/148
s 0
f 576/155/148 613/170/148 619/171/148
f 563/157/149 560/165/149 602/172/149
f 563/157/149 602/172/149 605/173/149
f 551/159/150 548/167/150 591/169/150
f 551/159/150 591/169/150 593/174/150
f 580/156/151 575/155/151 617/171/151
f 580/156/151 617/171/151 623/175/151
f 568/158/152 564/157/152 606/173/152
f 568/158/152 606/173/152 610/176/152
f 555/160/153 552/159/153 595/174/153
f 555/160/153 595/174/153 597/177/153
f 584/161/154 578/156/154 621/175/154
f 584/161/154 621/175/154 627/178/154
f 542/163/155 15/179/155 585/168/155
f 572/164/156 567/158/156 609/176/156
s 1
f 572/164/156 609/176/156 614/170/156
s 0
f 559/165/157 556/160/157 598/177/157
f 559/165/157 598/177/157 601/172/157
f 51/180/158 582/161/158 625/178/158
f 628/178/159 622/175/159 665/181/159
f 628/178/159 665/181/159 671/182/159
f 586/168/160 17/183/160 629/184/160
f 616/170/161 611/176/161 653/185/161
s 1
f 616/170/161 653/185/161 659/186/161
s 0
f 603/172/162 600/177/162 643/187/162
f 603/172/162 643/187/162 645/188/162
f 53/189/163 626/178/163 669/182/163
f 590/169/164 588/168/164 631/184/164
f 590/169/164 631/184/164 633/190/164
f 620/171/165 615/170/165 657/186/165
f 620/171/165 657/186/165 663/191/165
f 607/173/166 604/172/166 646/188/166
f 607/173/166 646/188/166 649/192/166
f 594/174/167 592/169/167 635/190/167
f 594/174/167 635/190/167 637/193/167
f 624/175/168 618/171/168 661/191/168
f 624/175/168 661/191/168 667/181/168
f 612/176/169 608/173/169 650/192/169
f 612/176/169 650/192/169 654/185/169
f 599/177/170 596/174/170 639/193/170
f 599/177/170 639/193/170 641/187/170
f 638/193/171 636/190/171 679/194/171
f 638/193/171 679/194/171 681/195/171
f 668/181/172 662/191/172 705/196/172
f 668/181/172 705/196/172 711/197/172
f 656/185/173 652/192/173 695/198/173
f 656/185/173 695/198/173 699/199/173
f 642/187/174 640/193/174 683/195/174
f 642/187/174 683/195/174 685/200/174
f 672/182/175 666/181/175 709/197/175
f 672/182/175 709/197/175 715/201/175
f 630/184/176 19/202/176 673/203/176
f 660/186/177 655/185/177 697/199/177
f 660/186/177 697/199/177 703/204/177
f 647/188/178 644/187/178 687/200/178
f 647/188/178 687/200/178 689/205/178
f 55/206/179 670/182/179 713/201/179
f 634/190/180 632/184/180 675/203/180
f 634/190/180 675/203/180 677/194/180
f 664/191/181 658/186/181 701/204/181
f 664/191/181 701/204/181 707/196/181
s 1
f 651/192/182 648/188/182 691/205/182
s 0
f 651/192/182 691/205/182 693/198/182
f 56/207/183 714/208/183 758/209/183
f 678/210/184 676/211/184 720/212/184
f 678/210/184 720/212/184 722/213/184
f 708/214/185 702/215/185 746/216/185
f 708/214/185 746/216/185 752/217/185
s 1
f 694/218/186 692/219/186 736/220/186
s 0
f 694/218/186 736/220/186 739/221/186
f 682/222/187 680/210/187 724/213/187
f 682/222/187 724/213/187 726/223/187
f 712/224/188 706/214/188 750/217/188
f 712/224/188 750/217/188 756/225/188
f 700/226/189 696/218/189 740/221/189
s 1
f 700/226/189 740/221/189 744/227/189
s 0
f 686/228/190 684/222/190 728/223/190
f 686/228/190 728/223/190 730/229/190
f 716/208/191 710/224/191 754/225/191
f 716/208/191 754/225/191 760/209/191
f 674/211/192 20/230/192 718/212/192
f 704/215/193 698/226/193 743/227/193
f 704/215/193 743/227/193 748/216/193
f 690/219/194 688/228/194 732/229/194
f 690/219/194 732/229/194 735/220/194
f 729/229/195 727/223/195 772/231/195
s 1
f 729/229/195 772/231/195 775/232/195
s 0
f 759/209/196 753/225/196 798/233/196
f 759/209/196 798/233/196 804/234/196
f 717/212/197 18/235/197 762/236/197
f 747/216/198 741/227/198 787/237/198
f 747/216/198 787/237/198 792/238/198
f 733/220/199 731/229/199 776/232/199
f 733/220/199 776/232/199 779/239/199
f 54/240/200 757/209/200 802/234/200
f 721/213/201 719/212/201 764/236/201
f 721/213/201 764/236/201 766/241/201
f 751/217/202 745/216/202 791/238/202
f 751/217/202 791/238/202 796/242/202
f 737/221/203 734/220/203 780/239/203
f 737/221/203 780/239/203 783/243/203
f 725/223/204 723/213/204 768/241/204
f 725/223/204 768/241/204 770/231/204
f 755/225/205 749/217/205 794/242/205
f 755/225/205 794/242/205 800/233/205
f 742/227/206 738/221/206 784/243/206
f 742/227/206 784/243/206 788/237/206
f 769/231/207 767/241/207 812/244/207
f 769/231/207 812/244/207 815/245/207
f 799/233/208 793/242/208 839/246/208
f 799/233/208 839/246/208 844/247/208
f 786/237/209 782/243/209 828/248/209
f 786/237/209 828/248/209 832/249/209
f 773/232/210 771/231/210 816/245/210
f 773/232/210 816/245/210 819/250/210
f 803/234/211 797/233/211 842/247/211
s 1
f 803/234/211 842/247/211 848/251/211
s 0
f 761/236/212 16/252/212 806/253/212
f 790/238/213 785/237/213 831/249/213
s 1
f 790/238/213 831/249/213 836/254/213
f 777/239/214 774/232/214 820/250/214
s 0
f 777/239/214 820/250/214 823/255/214
f 52/256/215 801/234/215 846/251/215
f 765/241/216 763/236/216 808/253/216
f 765/241/216 808/253/216 810/244/216
f 795/242/217 789/238/217 835/254/217
f 795/242/217 835/254/217 840/246/217
f 781/243/218 778/239/218 824/255/218
f 781/243/218 824/255/218 827/248/218
f 821/255/219 818/250/219 864/257/219
f 821/255/219 864/257/219 867/258/219
f 50/259/220 845/251/220 890/260/220
f 809/244/221 807/253/221 852/261/221
s 1
f 809/244/221 852/261/221 855/262/221
s 0
f 838/246/222 833/254/222 879/263/222
f 838/246/222 879/263/222 884/264/222
f 825/248/223 822/255/223 868/258/223
f 825/248/223 868/258/223 871/265/223
f 813/245/224 811/244/224 856/262/224
f 813/245/224 856/262/224 859/266/224
f 843/247/225 837/246/225 883/264/225
f 843/247/225 883/264/225 888/267/225
f 830/249/226 826/248/226 872/265/226
f 830/249/226 872/265/226 876/268/226
f 817/250/227 814/245/227 860/266/227
f 817/250/227 860/266/227 863/257/227
f 847/251/228 841/247/228 887/267/228
f 847/251/228 887/267/228 892/260/228
f 805/253/229 14/269/229 850/261/229
f 834/254/230 829/249/230 875/268/230
f 834/254/230 875/268/230 880/263/230
f 861/257/231 858/266/231 24/6/231
f 861/257/231 24/6/231 903/5/231
f 891/260/232 885/267/232 915/10/232
f 891/260/232 915/10/232 920/9/232
f 849/261/233 12/270/233 895/13/233
f 878/263/234 873/268/234 31/1/234
f 878/263/235 31/1/235 912/16/235
f 865/258/236 862/257/236 904/5/236
f 865/258/237 904/5/237 27/18/237
f 48/271/238 889/260/238 919/9/238
f 853/262/239 851/261/239 896/13/239
f 853/262/239 896/13/239 899/21/239
f 882/264/240 877/263/240 911/16/240
f 882/264/240 911/16/240 36/23/240
f 869/265/241 866/258/241 28/18/241
f 869/265/241 28/18/241 907/2/241
f 857/266/242 854/262/242 900/21/242
f 857/266/242 900/21/242 23/6/242
f 886/267/243 881/264/243 35/23/243
f 886/267/243 35/23/243 916/10/243
f 874/268/244 870/265/244 908/2/244
f 874/268/244 908/2/244 32/1/244
usemtl M_Yellow
f 922/218/245 925/272/245 931/273/245
f 922/218/245 931/273/245 928/274/245
s 1
f 929/274/246 932/273/246 937/275/246
f 929/274/246 937/275/246 934/276/246
s 0
f 935/276/247 938/275/247 943/277/247
f 935/276/247 943/277/247 940/278/247
f 941/278/248 944/277/248 949/279/248
f 941/278/248 949/279/248 946/280/248
f 947/280/249 950/279/249 955/281/249
s 1
f 947/280/249 955/281/249 952/282/249
s 0
f 953/282/250 956/281/250 962/283/250
f 953/282/250 962/283/250 959/284/250
f 958/284/251 961/283/251 968/285/251
f 958/284/251 968/285/251 965/286/251
s 1
f 964/286/252 967/285/252 974/287/252
s 0
f 964/286/252 974/287/252 971/288/252
f 970/288/253 973/287/253 980/289/253
f 970/288/253 980/289/253 977/290/253
f 976/290/254 979/289/254 986/291/254
f 976/290/254 986/291/254 983/292/254
s 1
f 982/292/255 985/291/255 992/293/255
f 982/292/255 992/293/255 989/294/255
s 0
f 988/294/256 991/293/256 997/295/256
f 988/294/256 997/295/256 994/296/256
f 995/296/257 998/295/257 1003/297/257
f 995/296/257 1003/297/257 1000/298/257
s 1
f 1001/298/258 1004/297/258 1009/299/258
f 1001/298/258 1009/299/258 1006/300/258
s 0
f 1007/300/259 1010/299/259 1015/301/259
f 1007/300/259 1015/301/259 1012/302/259
f 1013/302/260 1016/301/260 1021/303/260
f 1013/302/260 1021/303/260 1018/304/260
f 1019/304/261 1022/303/261 1027/305/261
s 1
f 1019/304/261 1027/305/261 1024/306/261
s 0
f 1025/306/262 1028/305/262 1033/307/262
f 1025/306/262 1033/307/262 1030/308/262
f 1031/308/263 1034/307/263 1040/309/263
f 1031/308/263 1040/309/263 1037/310/263
s 1
f 1036/310/264 1039/309/264 1046/311/264
s 0
f 1036/310/264 1046/311/264 1043/312/264
f 1042/312/265 1045/311/265 1052/313/265
f 1042/312/265 1052/313/265 1049/314/265
f 1048/314/266 1051/313/266 1058/315/266
f 1048/314/266 1058/315/266 1055/316/266
f 936/317/267 930/318/267 924/319/267
f 924/319/267 1062/320/267 1056/321/267
f 1056/321/267 1050/322/267 1044/323/267
f 1044/323/267 1038/324/267 1032/325/267
f 1032/325/267 1026/326/267 1020/327/267
f 1020/327/267 1014/328/267 1008/329/267
f 1008/329/267 1002/330/267 996/331/267
f 996/331/267 990/332/267 984/333/267
f 984/333/267 978/334/267 972/335/267
f 972/335/267 966/336/267 960/337/267
f 960/337/267 954/338/267 948/339/267
f 948/339/267 942/340/267 936/317/267
f 936/317/267 924/319/267 1056/321/267
f 1056/321/267 1044/323/267 1032/325/267
f 1032/325/267 1020/327/267 1008/329/267
f 1008/329/267 996/331/267 984/333/267
f 984/333/267 972/335/267 960/337/267
f 960/337/267 948/339/267 936/317/267
f 936/317/267 1056/321/267 1032/325/267
f 1032/325/267 1008/329/267 984/333/267
f 984/333/267 960/337/267 936/317/267
f 1032/325/267 984/333/267 936/317/267
s 1
f 1054/316/268 1057/315/268 1064/341/268
f 1054/316/268 1064/341/268 1061/342/268
s 0
f 1060/342/269 1063/341/269 926/343/269
f 1060/342/269 926/343/269 923/344/269
f 1059/345/270 921/346/270 927/347/270
f 927/347/270 933/348/270 939/349/270
f 939/349/270 945/350/270 951/351/270
f 951/351/270 957/352/270 963/353/270
f 963/353/270 969/354/270 975/355/270
f 975/355/270 981/356/270 987/357/270
f 987/357/270 993/358/270 999/359/270
f 999/359/270 1005/360/270 1011/361/270
f 1011/361/270 1017/362/270 1023/363/270
f 1023/363/270 1029/364/270 1035/365/270
f 1035/365/270 1041/366/270 1047/367/270
f 1047/367/270 1053/368/270 1059/345/270
f 1059/345/270 927/347/270 939/349/270
f 939/349/270 951/351/270 963/353/270
f 963/353/270 975/355/270 987/357/270
f 987/357/270 999/359/270 1011/361/270
f 1011/361/270 1023/363/270 1035/365/270
f 1035/365/270 1047/367/270 1059/345/270
f 1059/345/270 939/349/270 963/353/270
f 963/353/270 987/357/270 1011/361/270
f 1011/361/270 1035/365/270 1059/345/270
f 963/353/270 1011/361/270 1059/345/270
